<?xml version="1.0" standalone="no"?>
<!DOCTYPE svg PUBLIC "-//W3C//DTD SVG 1.1//EN" "http://www.w3.org/Graphics/SVG/1.1/DTD/svg11.dtd" >
<svg>
<metadata>
Created by FontForge 20090622 at Sat Jun 22 12:07:39 2019
 By deploy user
Copyright (c) 2009 by Luc[as] de Groot. Published by LucasFonts www.LucasFonts.com. All rights reserved.
</metadata>
<defs>
<font id="TheSansArabic-Light" horiz-adv-x="0" >
  <font-face 
    font-family="TheSansArabic Light"
    font-weight="300"
    font-stretch="normal"
    units-per-em="1000"
    panose-1="2 11 3 2 5 3 2 2 2 3"
    ascent="740"
    descent="-260"
    x-height="497"
    cap-height="675"
    bbox="-219 -320 1198 980"
    underline-thickness="50"
    underline-position="-177"
    unicode-range="U+000D-U+FEFC"
  />
<missing-glyph horiz-adv-x="550" 
d="M300 150h-150v250h50v-200h100v-50zM500 50h-450v450h450v-450zM350 350h-100v50h150v-250h-50v100h-100v50h100v50zM100 100h350v350h-350v-350z" />
    <glyph glyph-name="uniFEF5" unicode="&#xfedf;&#xfe82;" horiz-adv-x="572" arabic-form="isolated" 
d="M115 709l171 -557h-64l-169 548zM470 0h-374v51h310v654h64v-705zM8 803l-30 37l78 59l2 -3q3 -2 7.5 -5.5l10.5 -8t14 -9t16.5 -8t20 -6t22.5 -2.5q61 0 106 45v-58l-3 -2q-2 -3 -6.5 -6l-11 -7t-15.5 -8t-19.5 -7.5t-24.5 -5.5t-29 -2q-57 0 -90 33z" />
    <glyph glyph-name="uniFEF6" unicode="&#xfee0;&#xfe82;" horiz-adv-x="572" arabic-form="final" 
d="M96 0v51h310v654h64v-654h117v-51h-491zM115 709l171 -557h-64l-169 548zM8 803l-30 37l78 59l2 -3q3 -2 7.5 -5.5l10.5 -8t14 -9t16.5 -8t20 -6t22.5 -2.5q61 0 106 45v-58l-3 -2q-2 -3 -6.5 -6l-11 -7t-15.5 -8t-19.5 -7.5t-24.5 -5.5t-29 -2q-57 0 -90 33z" />
    <glyph glyph-name="uniFEF7" unicode="&#xfedf;&#xfe84;" horiz-adv-x="592" arabic-form="isolated" 
d="M167 603l139 -451h-64l-140 451h65zM490 0h-374v51h310v652h64v-703zM5 640v42q47 0 65 -3q-22 13 -22 41q0 34 27 56.5t75 22.5q31 0 51 -5l-7 -43q-22 6 -46 6q-49 0 -49 -36q0 -39 68 -39h58v-42h-220z" />
    <glyph glyph-name="uniFEF8" unicode="&#xfee0;&#xfe84;" horiz-adv-x="592" arabic-form="final" 
d="M607 0h-491v51h310v652h64v-652h117v-51zM167 603l139 -451h-64l-140 451h65zM5 640v42q47 0 65 -3q-22 13 -22 41q0 34 27 56.5t75 22.5q31 0 51 -5l-7 -43q-22 6 -46 6q-49 0 -49 -36q0 -39 68 -39h58v-42h-220z" />
    <glyph glyph-name="uniFEF9" unicode="&#xfedf;&#xfe88;" horiz-adv-x="572" arabic-form="isolated" 
d="M115 709l171 -557h-64l-169 548zM470 0h-374v51h310v654h64v-705zM161 -243v42q47 0 65 -3q-22 13 -22 41q0 34 27 56.5t74 22.5q31 0 52 -5l-7 -43q-24 6 -47 6q-22 0 -35.5 -10t-13.5 -26q0 -39 68 -39h59v-42h-220z" />
    <glyph glyph-name="uniFEFA" unicode="&#xfee0;&#xfe88;" horiz-adv-x="572" arabic-form="final" 
d="M587 0h-491v51h310v654h64v-654h117v-51zM115 709l171 -557h-64l-169 548zM161 -243v42q47 0 65 -3q-22 13 -22 41q0 34 27 56.5t74 22.5q31 0 52 -5l-7 -43q-24 6 -47 6q-22 0 -35.5 -10t-13.5 -26q0 -39 68 -39h59v-42h-220z" />
    <glyph glyph-name="uniFEFB" unicode="&#xfedf;&#xfe8e;" horiz-adv-x="572" arabic-form="isolated" 
d="M115 709l171 -557h-64l-169 548zM470 0h-374v51h310v654h64v-705z" />
    <glyph glyph-name="uniFEFC" unicode="&#xfee0;&#xfe8e;" horiz-adv-x="572" arabic-form="final" 
d="M587 0h-491v51h310v654h64v-654h117v-51zM115 709l171 -557h-64l-169 548z" />
    <glyph glyph-name="uni0621" unicode="&#x621;" horiz-adv-x="530" arabic-form="isolated" 
d="M56 0v50q74 0 138 -4q-65 24 -65 100q0 59 45.5 101.5t137.5 42.5q48 0 82 -7l-7 -52q-47 9 -86 9q-52 0 -80 -24.5t-28 -65.5q0 -45 36.5 -72.5t113.5 -27.5h91v-50h-378z" />
    <glyph glyph-name="uni0622" unicode="&#x622;" horiz-adv-x="268" arabic-form="isolated" 
d="M102 0v705h64v-705h-64zM10 803l-30 37l78 59l2 -3q3 -2 7.5 -5.5l10.5 -8t14 -9t16.5 -8t20 -6t22.5 -2.5q61 0 106 45v-58l-3 -2q-2 -3 -6.5 -6l-11 -7t-15.5 -8t-19.5 -7.5t-24.5 -5.5t-29 -2q-57 0 -90 33z" />
    <glyph glyph-name="uni0623" unicode="&#x623;" horiz-adv-x="268" arabic-form="isolated" 
d="M102 0v675h64v-675h-64zM7 733v42q49 0 79 -5q-34 15 -34 54q0 37 28.5 63.5t86.5 26.5q31 0 51 -4l-7 -42q-24 4 -49 4q-29 0 -44.5 -12.5t-15.5 -33.5q0 -51 84 -51h52v-42h-231z" />
    <glyph glyph-name="uni0624" unicode="&#x624;" horiz-adv-x="584" arabic-form="isolated" 
d="M212 -254q-35 0 -74.5 4t-61.5 8l-23 5l5 56q89 -22 163 -22q92 0 148 40.5t56 131.5v31h-116q-138 0 -199 60.5t-61 174.5q0 104 64 174.5t180 70.5q46 0 95 -9t74 -17l26 -9v-476q0 -41 -14 -78.5t-44.5 -71t-86.5 -53.5t-131 -20zM425 51v352q-56 26 -140 26
q-79 0 -124.5 -50.5t-45.5 -136.5q0 -99 48.5 -145t156.5 -46h105zM157 574v43q47 0 79 -5q-16 6 -25 22t-9 32q0 37 29 64t87 27q20 0 50 -4l-7 -43q-24 4 -48 4q-60 0 -60 -46q0 -51 83 -51h52v-43h-231z" />
    <glyph glyph-name="uni0625" unicode="&#x625;" horiz-adv-x="268" arabic-form="isolated" 
d="M102 0v705h64v-705h-64zM13 -243v42q47 0 65 -3q-22 13 -22 41q0 34 27 56.5t74 22.5q31 0 52 -5l-7 -43q-24 6 -47 6q-22 0 -35.5 -10t-13.5 -26q0 -39 68 -39h59v-42h-220z" />
    <glyph glyph-name="uni0626" unicode="&#x626;" horiz-adv-x="1000" arabic-form="isolated" 
d="M580 0h-171q-177 0 -257 70t-80 217q0 100 36 174l68 12q-41 -82 -41 -177q0 -127 61.5 -186t222.5 -59h98v410q83 19 168 19q117 0 168 -55t51 -162v-143h-63v132q0 94 -39 135.5t-125 41.5q-21 0 -45 -2.5t-38 -4.5l-14 -3v-419zM49 575v43q47 0 79 -5q-16 6 -25 22
t-9 32q0 37 29 64t87 27q20 0 50 -4l-7 -43q-24 4 -48 4q-60 0 -60 -46q0 -51 83 -51h52v-43h-231z" />
    <glyph glyph-name="uni0627" unicode="&#x627;" horiz-adv-x="268" arabic-form="isolated" 
d="M102 0v705h64v-705h-64z" />
    <glyph glyph-name="uni0628" unicode="&#x628;" horiz-adv-x="773" arabic-form="isolated" 
d="M676 0h-267q-177 0 -257 70t-80 217q0 100 36 174l68 12q-41 -82 -41 -177q0 -127 61.5 -186t222.5 -59h194v419h63v-470zM393 -194q-18 0 -31 12.5t-13 31.5q0 18 13 31t31 13t31 -12.5t13 -31.5q0 -18 -13 -31t-31 -13z" />
    <glyph glyph-name="uni0629" unicode="&#x629;" horiz-adv-x="594" arabic-form="isolated" 
d="M498 0h-189q-137 0 -198.5 60.5t-61.5 173.5q0 105 64 175.5t179 70.5q101 0 153.5 -56t52.5 -164v-260zM435 51v194q0 97 -38.5 140.5t-111.5 43.5q-79 0 -124.5 -51t-45.5 -137q0 -98 48.5 -144t156.5 -46h115zM354 573q-18 0 -30.5 12.5t-12.5 31.5q0 18 12.5 30.5
t30.5 12.5t31 -12.5t13 -30.5t-13 -31t-31 -13zM219 573q-18 0 -30.5 12.5t-12.5 31.5q0 18 12.5 30.5t30.5 12.5q19 0 31.5 -12t12.5 -31q0 -18 -12.5 -31t-31.5 -13z" />
    <glyph glyph-name="uni062A" unicode="&#x62a;" horiz-adv-x="773" arabic-form="isolated" 
d="M676 0h-267q-177 0 -257 70t-80 217q0 100 36 174l68 12q-41 -82 -41 -177q0 -127 61.5 -186t222.5 -59h194v419h63v-470zM468 573q-18 0 -30.5 12.5t-12.5 31.5q0 18 12.5 30.5t30.5 12.5t31 -12.5t13 -30.5t-13 -31t-31 -13zM333 573q-18 0 -30.5 12.5t-12.5 31.5
q0 18 12.5 30.5t30.5 12.5q19 0 31.5 -12t12.5 -31q0 -18 -12.5 -31t-31.5 -13z" />
    <glyph glyph-name="uni062B" unicode="&#x62b;" horiz-adv-x="773" arabic-form="isolated" 
d="M676 0h-267q-177 0 -257 70t-80 217q0 100 36 174l68 12q-41 -82 -41 -177q0 -127 61.5 -186t222.5 -59h194v419h63v-470zM401 676q-17 0 -29.5 12t-12.5 31q0 18 12.5 30.5t29.5 12.5q18 0 30.5 -12t12.5 -31q0 -18 -12.5 -30.5t-30.5 -12.5zM469 573q-18 0 -31 12.5
t-13 31.5q0 18 13 30.5t31 12.5t30.5 -12t12.5 -31q0 -18 -12.5 -31t-30.5 -13zM334 573q-18 0 -30.5 12.5t-12.5 31.5q0 18 12.5 30.5t30.5 12.5t31 -12.5t13 -30.5t-13 -31t-31 -13z" />
    <glyph glyph-name="uni062C" unicode="&#x62c;" horiz-adv-x="590" arabic-form="isolated" 
d="M498 0h-180q-130 0 -180.5 -35.5t-50.5 -99.5q0 -57 53.5 -95.5t150.5 -38.5l-4 -51q-126 0 -194.5 51t-68.5 127q0 193 299 193h120q8 69 8 122q0 131 -52.5 190t-183.5 59q-55 0 -108 -7v50q60 8 114 8q158 0 226 -72t68 -220q0 -79 -17 -181zM353 -194q-18 0 -31 12.5
t-13 31.5q0 18 13 31t31 13t31 -12.5t13 -31.5q0 -18 -13 -31t-31 -13z" />
    <glyph glyph-name="uni062D" unicode="&#x62d;" horiz-adv-x="588" arabic-form="isolated" 
d="M287 -320q-127 0 -195 49.5t-68 128.5q0 193 299 193h118q9 64 9 122q0 131 -53 190t-183 59q-55 0 -108 -7v50q58 8 113 8q158 0 226 -72t68 -220q0 -85 -16 -181h-179q-130 0 -180.5 -35.5t-50.5 -99.5q0 -60 53 -97t152 -37q86 0 186 22l6 -50q-101 -23 -197 -23z" />
    <glyph glyph-name="uni062E" unicode="&#x62e;" horiz-adv-x="588" arabic-form="isolated" 
d="M287 -320q-127 0 -195 49.5t-68 128.5q0 193 299 193h118q9 64 9 122q0 131 -53 190t-183 59q-55 0 -108 -7v50q58 8 113 8q158 0 226 -72t68 -220q0 -85 -16 -181h-179q-130 0 -180.5 -35.5t-50.5 -99.5q0 -60 53 -97t152 -37q86 0 186 22l6 -50q-101 -23 -197 -23z
M246 594q-18 0 -31 12.5t-13 31.5q0 18 13 31t31 13t31 -12.5t13 -31.5q0 -18 -13 -31t-31 -13z" />
    <glyph glyph-name="uni062F" unicode="&#x62f;" horiz-adv-x="531" arabic-form="isolated" 
d="M56 0v51h338q-1 158 -61 245.5t-203 135.5l18 54q165 -55 237 -157.5t72 -290.5v-38h-401z" />
    <glyph glyph-name="uni0630" unicode="&#x630;" horiz-adv-x="531" arabic-form="isolated" 
d="M56 0v51h338q-1 158 -61 245.5t-203 135.5l18 54q165 -55 237 -157.5t72 -290.5v-38h-401zM197 594q-18 0 -31 12.5t-13 31.5q0 18 13 31t31 13t31 -12.5t13 -31.5q0 -18 -13 -31t-31 -13z" />
    <glyph glyph-name="uni0631" unicode="&#x631;" horiz-adv-x="418" arabic-form="isolated" 
d="M100 -259q-64 0 -118 18l10 54q57 -21 114 -21q75 0 113.5 44.5t38.5 149.5v484h63v-475q0 -254 -221 -254z" />
    <glyph glyph-name="uni0632" unicode="&#x632;" horiz-adv-x="418" arabic-form="isolated" 
d="M100 -259q-64 0 -118 18l10 54q57 -21 114 -21q75 0 113.5 44.5t38.5 149.5v484h63v-475q0 -254 -221 -254zM288 594q-18 0 -31 12.5t-13 31.5q0 18 13 31t31 13t31 -12.5t13 -31.5q0 -18 -13 -31t-31 -13z" />
    <glyph glyph-name="uni0633" unicode="&#x633;" horiz-adv-x="1175" arabic-form="isolated" 
d="M303 -231q-48 0 -89 14t-75 45t-53.5 86t-19.5 130q0 103 25 198l66 13q-27 -102 -27 -205q0 -126 52.5 -178t129.5 -52q70 0 114.5 50t44.5 163v377h64v-181q0 -95 23 -140t80 -45t83.5 44t26.5 140v222h63v-260q0 -88 34.5 -113.5t131.5 -25.5h36q10 75 10 153
q0 156 -37 281l62 14q38 -130 38 -288q0 -102 -17 -211h-77q-106 0 -153.5 18.5t-67.5 69.5q-14 -49 -52.5 -72t-77.5 -23q-76 0 -108 54q2 -150 -62 -214t-168 -64z" />
    <glyph glyph-name="uni0634" unicode="&#x634;" horiz-adv-x="1175" arabic-form="isolated" 
d="M303 -231q-48 0 -89 14t-75 45t-53.5 86t-19.5 130q0 103 25 198l66 13q-27 -102 -27 -205q0 -126 52.5 -178t129.5 -52q70 0 114.5 50t44.5 163v377h64v-181q0 -95 23 -140t80 -45t83.5 44t26.5 140v222h63v-260q0 -88 34.5 -113.5t131.5 -25.5h36q10 75 10 153
q0 156 -37 281l62 14q38 -130 38 -288q0 -102 -17 -211h-77q-106 0 -153.5 18.5t-67.5 69.5q-14 -49 -52.5 -72t-77.5 -23q-76 0 -108 54q2 -150 -62 -214t-168 -64zM768 676q-18 0 -30 12t-12 31q0 18 12.5 30.5t29.5 12.5q18 0 30.5 -12t12.5 -31q0 -18 -12.5 -30.5
t-30.5 -12.5zM836 573q-18 0 -31 12.5t-13 31.5q0 18 13 30.5t31 12.5t30.5 -12t12.5 -31q0 -18 -12.5 -31t-30.5 -13zM701 573q-18 0 -30.5 12.5t-12.5 31.5q0 18 12.5 30.5t30.5 12.5t31 -12.5t13 -30.5t-13 -31t-31 -13z" />
    <glyph glyph-name="uni0635" unicode="&#x635;" horiz-adv-x="1055" arabic-form="isolated" 
d="M303 -231q-48 0 -89 14t-75 45t-53.5 86t-19.5 130q0 103 25 198l66 13q-27 -102 -27 -205q0 -126 52.5 -178t129.5 -52q70 0 114.5 50t44.5 163v437h64v-49q0 -114 -10 -201h1q35 124 114 192t175 68q91 0 141.5 -59.5t50.5 -167.5q0 -112 -67 -182.5t-215 -70.5h-192
q-7 -114 -70 -172.5t-160 -58.5zM534 51h199q208 0 208 195q0 86 -34 134.5t-102 48.5q-75 0 -136.5 -58.5t-94.5 -143t-40 -176.5z" />
    <glyph glyph-name="uni0636" unicode="&#x636;" horiz-adv-x="1055" arabic-form="isolated" 
d="M303 -231q-48 0 -89 14t-75 45t-53.5 86t-19.5 130q0 103 25 198l66 13q-27 -102 -27 -205q0 -126 52.5 -178t129.5 -52q70 0 114.5 50t44.5 163v437h64v-49q0 -114 -10 -201h1q35 124 114 192t175 68q91 0 141.5 -59.5t50.5 -167.5q0 -112 -67 -182.5t-215 -70.5h-192
q-7 -114 -70 -172.5t-160 -58.5zM534 51h199q208 0 208 195q0 86 -34 134.5t-102 48.5q-75 0 -136.5 -58.5t-94.5 -143t-40 -176.5zM803 594q-18 0 -31 12.5t-13 31.5q0 18 13 31t31 13t31 -12.5t13 -31.5q0 -18 -13 -31t-31 -13z" />
    <glyph glyph-name="uni0637" unicode="&#x637;" horiz-adv-x="733" arabic-form="isolated" 
d="M0 0v51h149v654h63v-284q0 -114 -10 -201h1q36 124 115 192t175 68q91 0 141.5 -59.5t50.5 -167.5q0 -112 -67 -182.5t-215 -70.5h-403zM211 51h200q208 0 208 195q0 87 -34 135t-103 48q-75 0 -136 -58.5t-94.5 -143t-40.5 -176.5z" />
    <glyph glyph-name="uni0638" unicode="&#x638;" horiz-adv-x="733" arabic-form="isolated" 
d="M0 0v51h149v654h63v-284q0 -114 -10 -201h1q36 124 115 192t175 68q91 0 141.5 -59.5t50.5 -167.5q0 -112 -67 -182.5t-215 -70.5h-403zM211 51h200q208 0 208 195q0 87 -34 135t-103 48q-75 0 -136 -58.5t-94.5 -143t-40.5 -176.5zM481 594q-18 0 -31 12.5t-13 31.5
q0 18 13 31t31 13t31 -12.5t13 -31.5q0 -18 -13 -31t-31 -13z" />
    <glyph glyph-name="uni0639" unicode="&#x639;" horiz-adv-x="530" arabic-form="isolated" 
d="M310 -259q-134 0 -199.5 47t-65.5 121q0 66 53.5 117t153.5 98q-65 0 -115 45.5t-50 121.5q0 85 59.5 138.5t161.5 53.5q20 0 43 -3t35 -6l13 -3l-9 -53q-44 15 -87 15q-67 0 -109.5 -38t-42.5 -97q0 -50 22.5 -82.5t57.5 -43t76 -6t79 23.5l33 17l21 -46l-158 -78
q-90 -44 -131.5 -83t-41.5 -86q0 -55 51.5 -88.5t157.5 -33.5q34 0 74.5 3.5t63.5 6.5l24 4l4 -49q-90 -16 -174 -16z" />
    <glyph glyph-name="uni063A" unicode="&#x63a;" horiz-adv-x="530" arabic-form="isolated" 
d="M310 -259q-134 0 -199.5 47t-65.5 121q0 66 53.5 117t153.5 98q-65 0 -115 45.5t-50 121.5q0 85 59.5 138.5t161.5 53.5q20 0 43 -3t35 -6l13 -3l-9 -53q-44 15 -87 15q-67 0 -109.5 -38t-42.5 -97q0 -50 22.5 -82.5t57.5 -43t76 -6t79 23.5l33 17l21 -46l-158 -78
q-90 -44 -131.5 -83t-41.5 -86q0 -55 51.5 -88.5t157.5 -33.5q34 0 74.5 3.5t63.5 6.5l24 4l4 -49q-90 -16 -174 -16zM266 594q-18 0 -31 12.5t-13 31.5q0 18 13 31t31 13t31 -12.5t13 -31.5q0 -18 -13 -31t-31 -13z" />
    <glyph glyph-name="uni0641" unicode="&#x641;" horiz-adv-x="918" arabic-form="isolated" 
d="M858 247q0 -105 -63.5 -176t-170.5 -71h-215q-177 0 -257 70t-80 217q0 100 36 174l68 12q-41 -82 -41 -177q0 -127 61 -186t220 -59h70q-78 50 -78 188q0 102 63 171.5t171 69.5q96 0 156 -55.5t60 -177.5zM793 244q0 88 -40.5 136.5t-118.5 48.5q-67 0 -113.5 -47.5
t-46.5 -139.5q0 -91 42 -141t119 -50q67 0 112.5 48.5t45.5 144.5zM638 594q-18 0 -31 12.5t-13 31.5q0 18 13 31t31 13t31 -12.5t13 -31.5q0 -18 -13 -31t-31 -13z" />
    <glyph glyph-name="uni0642" unicode="&#x642;" horiz-adv-x="880" arabic-form="isolated" 
d="M783 445v-682q-143 -14 -288 -14q-227 0 -328 70.5t-101 229.5q0 98 25 193l66 13q-27 -102 -27 -198q0 -139 87 -198t286 -59q45 0 99 2.5t86 5.5l31 2v190h-115q-137 0 -198 60.5t-61 174.5q0 104 63.5 174.5t179.5 70.5q46 0 95 -9t75 -17zM720 51v352q-56 26 -140 26
q-78 0 -124 -50.5t-46 -136.5q0 -98 48.5 -144.5t156.5 -46.5h105zM649 573q-18 0 -30.5 12.5t-12.5 31.5q0 18 12.5 30.5t30.5 12.5t31 -12.5t13 -30.5t-13 -31t-31 -13zM514 573q-18 0 -30.5 12.5t-12.5 31.5q0 18 12.5 30.5t30.5 12.5q19 0 31.5 -12t12.5 -31
q0 -18 -12.5 -31t-31.5 -13z" />
    <glyph glyph-name="uni0643" unicode="&#x643;" horiz-adv-x="847" arabic-form="isolated" 
d="M318 406v43q47 0 79 -5q-16 6 -25 22t-9 32q0 37 29 64t87 27q20 0 50 -4l-7 -43q-24 4 -48 4q-60 0 -60 -46q0 -51 83 -51h52v-43h-231zM409 0q-177 0 -257 70t-80 217q0 100 36 174l68 12q-41 -82 -41 -177q0 -127 61.5 -186t222.5 -59h262v654h63v-705h-335z" />
    <glyph glyph-name="uni0644" unicode="&#x644;" horiz-adv-x="636" arabic-form="isolated" 
d="M471 40v665h64v-658q0 -143 -64.5 -210.5t-167.5 -67.5q-48 0 -89 14t-75 45t-53.5 86t-19.5 130q0 103 25 198l66 13q-27 -102 -27 -205q0 -126 52.5 -178t129.5 -52q71 0 115 51.5t44 168.5z" />
    <glyph glyph-name="uni0645" unicode="&#x645;" horiz-adv-x="794" arabic-form="isolated" 
d="M698 0h-190q-133 0 -194.5 57.5t-63.5 165.5h-35q-60 0 -82 -38.5t-10 -118.5l52 -326h-62l-51 319q-16 101 23 158t135 57h32q11 90 73.5 148t166.5 58q101 0 153.5 -56t52.5 -164v-260zM635 51v194q0 97 -38.5 140.5t-111.5 43.5q-79 0 -125 -51t-46 -137
q0 -98 49 -144t157 -46h115z" />
    <glyph glyph-name="uni0646" unicode="&#x646;" horiz-adv-x="650" arabic-form="isolated" 
d="M553 470v-434q0 -133 -64 -200t-187 -67q-48 0 -89 14t-75.5 45t-54 86t-19.5 130q0 103 25 198l66 13q-27 -102 -27 -205q0 -66 16 -113t43.5 -71.5t57.5 -35t65 -10.5q179 0 179 213v437h64zM314 393q-18 0 -31 12.5t-13 31.5q0 18 13 31t31 13t31 -12.5t13 -31.5
q0 -18 -13 -31t-31 -13z" />
    <glyph glyph-name="uni0647" unicode="&#x647;" horiz-adv-x="594" arabic-form="isolated" 
d="M498 0h-189q-137 0 -198.5 60.5t-61.5 173.5q0 105 64 175.5t179 70.5q101 0 153.5 -56t52.5 -164v-260zM435 51v194q0 97 -38.5 140.5t-111.5 43.5q-79 0 -124.5 -51t-45.5 -137q0 -98 48.5 -144t156.5 -46h115z" />
    <glyph glyph-name="uni0648" unicode="&#x648;" horiz-adv-x="584" arabic-form="isolated" 
d="M212 -254q-35 0 -74.5 4t-61.5 8l-23 5l5 56q89 -22 163 -22q92 0 148 40.5t56 131.5v31h-116q-138 0 -199 60.5t-61 174.5q0 104 64 174.5t180 70.5q46 0 95 -9t74 -17l26 -9v-476q0 -41 -14 -78.5t-44.5 -71t-86.5 -53.5t-131 -20zM425 51v352q-56 26 -140 26
q-79 0 -124.5 -50.5t-45.5 -136.5q0 -99 48.5 -145t156.5 -46h105z" />
    <glyph glyph-name="uni0649" unicode="&#x649;" horiz-adv-x="1000" arabic-form="isolated" 
d="M580 0h-171q-177 0 -257 70t-80 217q0 100 36 174l68 12q-41 -82 -41 -177q0 -127 61.5 -186t222.5 -59h98v410q83 19 168 19q117 0 168 -55t51 -162v-143h-63v132q0 94 -39 135.5t-125 41.5q-21 0 -45 -2.5t-38 -4.5l-14 -3v-419z" />
    <glyph glyph-name="uni064A" unicode="&#x64a;" horiz-adv-x="1000" arabic-form="isolated" 
d="M580 0h-171q-177 0 -257 70t-80 217q0 100 36 174l68 12q-41 -82 -41 -177q0 -127 61.5 -186t222.5 -59h98v410q83 19 168 19q117 0 168 -55t51 -162v-143h-63v132q0 94 -39 135.5t-125 41.5q-21 0 -45 -2.5t-38 -4.5l-14 -3v-419zM510 -149q0 -18 -13 -31t-31 -13
t-30.5 12.5t-12.5 31.5q0 18 12.5 31t30.5 13t31 -12.5t13 -31.5zM375 -149q0 -18 -12.5 -31t-31.5 -13q-18 0 -30.5 12.5t-12.5 31.5q0 18 12.5 31t30.5 13q19 0 31.5 -12.5t12.5 -31.5z" />
    <glyph glyph-name="uni064B" unicode="&#xfe70;" arabic-form="isolated" 
d="M2 820v41l224 32v-41zM3 906v42l224 32v-42z" />
    <glyph glyph-name="uni064C" unicode="&#xfe72;" arabic-form="isolated" 
d="M-20 796l-27 125l39 9l20 -91l60 12q-8 26 -8 47q0 36 25 59t62 23q31 0 52 -19t21 -49q0 -62 -74 -80zM112 860l33 7q18 3 29 15.5t11 27.5t-10 24.5t-26 9.5q-21 0 -33 -12.5t-12 -32.5q0 -8 2 -18t4 -15z" />
    <glyph glyph-name="uni064D" unicode="&#xfe74;" arabic-form="isolated" 
d="M30 -320v41l224 32v-41zM31 -233v41l224 32v-41z" />
    <glyph glyph-name="uni064E" unicode="&#xfe76;" arabic-form="isolated" 
d="M-16 820v46l224 32v-46z" />
    <glyph glyph-name="uni0650" unicode="&#xfe7a;" arabic-form="isolated" 
d="M-16 -166v46l224 32v-46z" />
    <glyph glyph-name="uni0651" unicode="&#xfe7c;" arabic-form="isolated" 
d="M102 858q-20 -33 -64 -33q-48 0 -56 61l-7 48l39 7l7 -47q5 -31 27 -31q18 0 27 11.5t6 29.5l-7 47l40 6l7 -48q6 -33 31 -33q38 0 31 50l-7 49l40 5l7 -47q6 -40 -13.5 -67.5t-63.5 -27.5q-29 0 -44 20z" />
    <glyph glyph-name="uni0652" unicode="&#xfe7e;" arabic-form="isolated" 
d="M6 906q0 -17 12 -27t30 -10t29 10.5t11 28.5q0 17 -12 27t-30 10q-16 0 -28 -11t-12 -28zM-36 905q0 32 24.5 53.5t59.5 21.5q36 0 59 -19t23 -52q0 -32 -24.5 -53.5t-59.5 -21.5q-36 0 -59 19t-23 52z" />
    <glyph glyph-name="uni0671" unicode="&#x671;" horiz-adv-x="268" arabic-form="isolated" 
d="M78 812h137v14q0 47 -11 64.5t-35 17.5q-34 0 -57 -27t-34 -69zM-29 772v40h58q17 61 54 98.5t91 37.5q45 0 68 -26t23 -94v-56h-294zM102 0v675h64v-675h-64z" />
    <glyph glyph-name="uni0679" unicode="&#x679;" horiz-adv-x="773" arabic-form="isolated" 
d="M497 672q0 57 -47 57q-41 0 -77 -42.5t-38 -86.5h76q86 0 86 72zM336 840v-87q0 -28 -7 -65h1q20 36 54.5 59t72.5 23q43 0 67 -24.5t24 -66.5q0 -56 -36.5 -87.5t-108.5 -31.5h-116v280h49zM676 0h-267q-177 0 -257 70t-80 217q0 100 36 174l68 12q-41 -82 -41 -177
q0 -127 61.5 -186t222.5 -59h194v419h63v-470z" />
    <glyph glyph-name="uni067E" unicode="&#x67e;" horiz-adv-x="773" arabic-form="isolated" 
d="M676 0h-267q-177 0 -257 70t-80 217q0 100 36 174l68 12q-41 -82 -41 -177q0 -127 61.5 -186t222.5 -59h194v419h63v-470zM457 -215q0 -17 -12.5 -29.5t-29.5 -12.5q-18 0 -30.5 12t-12.5 30t12.5 30.5t30.5 12.5q17 0 29.5 -12.5t12.5 -30.5zM525 -114q0 -18 -13 -30.5
t-30 -12.5q-18 0 -30.5 12t-12.5 31q0 17 12.5 30t30.5 13q17 0 30 -12.5t13 -30.5zM390 -114q0 -18 -12.5 -30.5t-29.5 -12.5q-18 0 -30.5 12t-12.5 31q0 17 12.5 30t30.5 13q17 0 29.5 -12.5t12.5 -30.5z" />
    <glyph glyph-name="uni0686" unicode="&#x686;" horiz-adv-x="592" arabic-form="isolated" 
d="M501 0h-183q-130 0 -180.5 -35.5t-50.5 -99.5q0 -51 37.5 -85t106.5 -44l-12 -52q-90 12 -142.5 58.5t-52.5 114.5q0 194 299 194h122q8 57 8 122q0 131 -52.5 190t-182.5 59q-56 0 -108 -7v50q58 8 113 8q158 0 226 -72t68 -220q0 -85 -16 -181zM401 -215
q0 -17 -12.5 -29.5t-29.5 -12.5q-18 0 -30.5 12t-12.5 30t12.5 30.5t30.5 12.5q17 0 29.5 -12.5t12.5 -30.5zM469 -114q0 -18 -13 -30.5t-30 -12.5q-18 0 -30.5 12t-12.5 31q0 17 12.5 30t30.5 13q17 0 30 -12.5t13 -30.5zM334 -114q0 -18 -12.5 -30.5t-29.5 -12.5
q-18 0 -30.5 12t-12.5 31q0 17 12.5 30t30.5 13q17 0 29.5 -12.5t12.5 -30.5z" />
    <glyph glyph-name="uni0688" unicode="&#x688;" horiz-adv-x="531" arabic-form="isolated" 
d="M56 0v51h338q-1 158 -61 245.5t-203 135.5l18 54q165 -55 237 -157.5t72 -290.5v-38h-401zM337 702q0 57 -47 57q-41 0 -77 -42.5t-38 -86.5h76q86 0 86 72zM176 870v-87q0 -28 -7 -65h1q20 36 54.5 59t72.5 23q43 0 67 -24.5t24 -66.5q0 -56 -36.5 -87.5t-108.5 -31.5
h-116v280h49z" />
    <glyph glyph-name="uni0691" unicode="&#x691;" horiz-adv-x="418" arabic-form="isolated" 
d="M100 -259q-64 0 -118 18l10 54q57 -21 114 -21q75 0 113.5 44.5t38.5 149.5v484h63v-475q0 -254 -221 -254zM367 702q0 57 -47 57q-41 0 -77 -42.5t-38 -86.5h76q86 0 86 72zM206 870v-87q0 -28 -7 -65h1q20 36 54.5 59t72.5 23q43 0 67 -24.5t24 -66.5
q0 -56 -36.5 -87.5t-108.5 -31.5h-116v280h49z" />
    <glyph glyph-name="uni0698" unicode="&#x698;" horiz-adv-x="418" arabic-form="isolated" 
d="M100 -259q-64 0 -118 18l10 54q57 -21 114 -21q75 0 113.5 44.5t38.5 149.5v484h63v-475q0 -254 -221 -254zM284 676q-18 0 -30 12t-12 31q0 18 12.5 30.5t29.5 12.5q18 0 30.5 -12t12.5 -31q0 -18 -12.5 -30.5t-30.5 -12.5zM352 573q-18 0 -31 12.5t-13 31.5
q0 18 13 30.5t31 12.5t30.5 -12t12.5 -31q0 -18 -12.5 -31t-30.5 -13zM217 573q-18 0 -30.5 12.5t-12.5 31.5q0 18 12.5 30.5t30.5 12.5t31 -12.5t13 -30.5t-13 -31t-31 -13z" />
    <glyph glyph-name="uni06A4" unicode="&#x6a4;" horiz-adv-x="918" arabic-form="isolated" 
d="M858 247q0 -105 -63.5 -176t-170.5 -71h-215q-177 0 -257 70t-80 217q0 100 36 174l68 12q-41 -82 -41 -177q0 -127 61 -186t220 -59h70q-78 50 -78 188q0 102 63 171.5t171 69.5q96 0 156 -55.5t60 -177.5zM793 244q0 88 -40.5 136.5t-118.5 48.5q-67 0 -113.5 -47.5
t-46.5 -139.5q0 -91 42 -141t119 -50q67 0 112.5 48.5t45.5 144.5zM637 676q-17 0 -29.5 12t-12.5 31q0 18 12.5 30.5t29.5 12.5q18 0 30.5 -12t12.5 -31q0 -18 -12.5 -30.5t-30.5 -12.5zM705 573q-18 0 -31 12.5t-13 31.5q0 18 13 30.5t31 12.5t30.5 -12t12.5 -31
q0 -18 -12.5 -31t-30.5 -13zM570 573q-18 0 -30.5 12.5t-12.5 31.5q0 18 12.5 30.5t30.5 12.5t31 -12.5t13 -30.5t-13 -31t-31 -13z" />
    <glyph glyph-name="uni06A9" unicode="&#x6a9;" horiz-adv-x="848" arabic-form="isolated" 
d="M761 0h-352q-177 0 -257 70t-80 217q0 100 36 174l68 12q-41 -82 -41 -177q0 -127 61.5 -186t222.5 -59h279q-1 165 -65.5 251.5t-208.5 132.5v48l367 231v-65l-292 -181q134 -54 198 -152t64 -277v-39z" />
    <glyph glyph-name="uni06AF" unicode="&#x6af;" horiz-adv-x="848" arabic-form="isolated" 
d="M761 0h-352q-177 0 -257 70t-80 217q0 100 36 174l68 12q-41 -82 -41 -177q0 -127 61.5 -186t222.5 -59h279q-1 165 -65.5 251.5t-208.5 132.5v46l367 231v-63l-292 -181q134 -54 198 -152t64 -277v-39zM424 575v62l367 231v-63z" />
    <glyph glyph-name="uni06BA" unicode="&#x6ba;" horiz-adv-x="651" arabic-form="isolated" 
d="M555 470v-434q0 -133 -64 -200t-187 -67q-48 0 -89 14t-75.5 45t-54 86t-19.5 130q0 103 25 198l66 13q-27 -102 -27 -205q0 -66 16 -113t43.5 -71.5t57.5 -35t65 -10.5q179 0 179 213v437h64z" />
    <glyph glyph-name="uni06BE" unicode="&#x6be;" horiz-adv-x="784" arabic-form="isolated" 
d="M702 0h-682v51h138h10t9.5 -0.5t8 -0.5h5.5h2q-4 2 -14 11t-22.5 35.5t-12.5 57.5q0 77 49.5 120.5t130.5 43.5q86 0 129 -57.5t43 -158.5v-51h143v26q0 204 -75.5 292t-236.5 88q-103 0 -212 -34l-7 49q114 35 229 35q182 0 273.5 -100.5t91.5 -322.5v-84zM435 51v45
q0 174 -116 174q-54 0 -83.5 -28.5t-29.5 -77.5q0 -57 35 -85t89 -28h105z" />
    <glyph glyph-name="uni06C0" unicode="&#x6c0;" horiz-adv-x="594" arabic-form="isolated" 
d="M498 0h-189q-137 0 -198.5 60.5t-61.5 173.5q0 105 64 175.5t179 70.5q101 0 153.5 -56t52.5 -164v-260zM435 51v194q0 97 -38.5 140.5t-111.5 43.5q-79 0 -124.5 -51t-45.5 -137q0 -98 48.5 -144t156.5 -46h115zM154 575v43q47 0 79 -5q-16 6 -25 22t-9 32q0 37 29 64
t87 27q20 0 50 -4l-7 -43q-24 4 -48 4q-60 0 -60 -46q0 -51 83 -51h52v-43h-231z" />
    <glyph glyph-name="uni06C1" unicode="&#x6c1;" horiz-adv-x="594" arabic-form="isolated" 
d="M498 0h-189q-137 0 -198.5 60.5t-61.5 173.5q0 105 64 175.5t179 70.5q101 0 153.5 -56t52.5 -164v-260zM435 51v194q0 97 -38.5 140.5t-111.5 43.5q-79 0 -124.5 -51t-45.5 -137q0 -98 48.5 -144t156.5 -46h115z" />
    <glyph glyph-name="uniFBFC" unicode="&#x6cc;" horiz-adv-x="1000" arabic-form="isolated" 
d="M580 0h-171q-177 0 -257 70t-80 217q0 100 36 174l68 12q-41 -82 -41 -177q0 -127 61.5 -186t222.5 -59h98v410q83 19 168 19q117 0 168 -55t51 -162v-143h-63v132q0 94 -39 135.5t-125 41.5q-21 0 -45 -2.5t-38 -4.5l-14 -3v-419z" />
    <glyph glyph-name="uni06D2" unicode="&#x6d2;" horiz-adv-x="750" arabic-form="isolated" 
d="M684 0h-602q-8 117 29 227t111.5 181.5t166.5 71.5q154 0 154 -161v-69h-63v47q0 67 -22.5 99.5t-78.5 32.5q-67 0 -122.5 -61t-83.5 -146.5t-28 -170.5h539v-51z" />
    <glyph glyph-name="uni06D3" unicode="&#x6d3;" horiz-adv-x="750" arabic-form="isolated" 
d="M684 0h-602q-8 117 29 227t111.5 181.5t166.5 71.5q154 0 154 -161v-69h-63v47q0 67 -22.5 99.5t-78.5 32.5q-67 0 -122.5 -61t-83.5 -146.5t-28 -170.5h539v-51zM198 575v43q47 0 79 -5q-16 6 -25 22t-9 32q0 37 29 64t87 27q20 0 50 -4l-7 -43q-24 4 -48 4
q-60 0 -60 -46q0 -51 83 -51h52v-43h-231z" />
    <glyph glyph-name="uniFB51" unicode="&#x671;" horiz-adv-x="268" arabic-form="final" 
d="M102 0v675h64v-624h117v-51h-181zM-29 772v40h58q17 61 54 98.5t91 37.5q45 0 68 -26t23 -94v-56h-294zM78 812h137v14q0 47 -11 64.5t-35 17.5q-34 0 -57 -27t-34 -69z" />
    <glyph glyph-name="uniFB57" unicode="&#x67e;" horiz-adv-x="781" arabic-form="final" 
d="M796 0h-387q-177 0 -257 70t-80 217q0 100 36 174l68 12q-41 -82 -41 -177q0 -127 61.5 -186t222.5 -59h194v419h63v-419h120v-51zM525 -114q0 -18 -13 -30.5t-30 -12.5q-18 0 -30.5 12t-12.5 31q0 17 12.5 30t30.5 13q17 0 30 -12.5t13 -30.5zM390 -114
q0 -18 -12.5 -30.5t-29.5 -12.5q-18 0 -30.5 12t-12.5 31q0 17 12.5 30t30.5 13q17 0 29.5 -12.5t12.5 -30.5zM457 -215q0 -17 -12.5 -29.5t-29.5 -12.5q-18 0 -30.5 12t-12.5 30t12.5 30.5t30.5 12.5q17 0 29.5 -12.5t12.5 -30.5z" />
    <glyph glyph-name="uniFB58" unicode="&#x67e;" horiz-adv-x="370" arabic-form="initial" 
d="M0 0v51h210v419h63v-470h-273zM216 -215q0 -17 -12.5 -29.5t-29.5 -12.5q-18 0 -30.5 12t-12.5 30t12.5 30.5t30.5 12.5q17 0 29.5 -12.5t12.5 -30.5zM284 -114q0 -18 -13 -30.5t-30 -12.5q-18 0 -30.5 12t-12.5 31q0 17 12.5 30t30.5 13q17 0 30 -12.5t13 -30.5z
M149 -114q0 -18 -12.5 -30.5t-29.5 -12.5q-18 0 -30.5 12t-12.5 31q0 17 12.5 30t30.5 13q17 0 29.5 -12.5t12.5 -30.5z" />
    <glyph glyph-name="uniFB59" unicode="&#x67e;" horiz-adv-x="378" arabic-form="medial" 
d="M0 0v51h210v419h63v-419h120v-51h-393zM284 -114q0 -18 -13 -30.5t-30 -12.5q-18 0 -30.5 12t-12.5 31q0 17 12.5 30t30.5 13q17 0 30 -12.5t13 -30.5zM149 -114q0 -18 -12.5 -30.5t-29.5 -12.5q-18 0 -30.5 12t-12.5 31q0 17 12.5 30t30.5 13q17 0 29.5 -12.5
t12.5 -30.5zM216 -215q0 -17 -12.5 -29.5t-29.5 -12.5q-18 0 -30.5 12t-12.5 30t12.5 30.5t30.5 12.5q17 0 29.5 -12.5t12.5 -30.5z" />
    <glyph glyph-name="uniFB67" unicode="&#x679;" horiz-adv-x="781" arabic-form="final" 
d="M409 0q-177 0 -257 70t-80 217q0 100 36 174l68 12q-41 -82 -41 -177q0 -127 61.5 -186t222.5 -59h194v419h63v-419h120v-51h-387zM336 840v-87q0 -28 -7 -65h1q20 36 54.5 59t72.5 23q43 0 67 -24.5t24 -66.5q0 -56 -36.5 -87.5t-108.5 -31.5h-116v280h49zM497 672
q0 57 -47 57q-41 0 -77 -42.5t-38 -86.5h76q86 0 86 72z" />
    <glyph glyph-name="uniFB68" unicode="&#x679;" horiz-adv-x="370" arabic-form="initial" 
d="M270 702q0 57 -47 57q-41 0 -77 -42.5t-38 -86.5h76q86 0 86 72zM109 870v-87q0 -28 -7 -65h1q20 36 54.5 59t72.5 23q43 0 67 -24.5t24 -66.5q0 -56 -36.5 -87.5t-108.5 -31.5h-116v280h49zM0 0v51h210v419h63v-470h-273z" />
    <glyph glyph-name="uniFB69" unicode="&#x679;" horiz-adv-x="378" arabic-form="medial" 
d="M109 870v-87q0 -28 -7 -65h1q20 36 54.5 59t72.5 23q43 0 67 -24.5t24 -66.5q0 -56 -36.5 -87.5t-108.5 -31.5h-116v280h49zM0 0v51h210v419h63v-419h120v-51h-393zM270 702q0 57 -47 57q-41 0 -77 -42.5t-38 -86.5h76q86 0 86 72z" />
    <glyph glyph-name="uniFB6B" unicode="&#x6a4;" horiz-adv-x="925" arabic-form="final" 
d="M940 51v-51h-531q-177 0 -257 70t-80 217q0 100 36 174l68 12q-41 -82 -41 -177q0 -127 61 -186t220 -59h70q-78 50 -78 188q0 102 63 171.5t171 69.5q96 0 156 -55.5t60 -177.5q0 -62 -24 -115t-68 -83q57 2 95 2h79zM793 244q0 88 -40.5 136.5t-118.5 48.5
q-67 0 -113.5 -47.5t-46.5 -139.5q0 -91 42 -141t119 -50q67 0 112.5 48.5t45.5 144.5zM637 676q-17 0 -29.5 12t-12.5 31q0 18 12.5 30.5t29.5 12.5q18 0 30.5 -12t12.5 -31q0 -18 -12.5 -30.5t-30.5 -12.5zM705 573q-18 0 -31 12.5t-13 31.5q0 18 13 30.5t31 12.5
t30.5 -12t12.5 -31q0 -18 -12.5 -31t-30.5 -13zM570 573q-18 0 -30.5 12.5t-12.5 31.5q0 18 12.5 30.5t30.5 12.5t31 -12.5t13 -30.5t-13 -31t-31 -13z" />
    <glyph glyph-name="uniFB6C" unicode="&#x6a4;" horiz-adv-x="612" arabic-form="initial" 
d="M516 0h-516v51h95l59 -3q-87 50 -87 187q0 104 64 174.5t179 70.5q101 0 153.5 -56t52.5 -164v-260zM453 51v194q0 97 -38.5 140.5t-111.5 43.5q-79 0 -124.5 -51t-45.5 -137q0 -98 48.5 -144t156.5 -46h115zM300 676q-18 0 -30 12t-12 31q0 18 12.5 30.5t29.5 12.5
q18 0 30.5 -12t12.5 -31q0 -18 -12.5 -30.5t-30.5 -12.5zM368 573q-18 0 -31 12.5t-13 31.5q0 18 13 30.5t31 12.5t30.5 -12t12.5 -31q0 -18 -12.5 -31t-30.5 -13zM233 573q-18 0 -30.5 12.5t-12.5 31.5q0 18 12.5 30.5t30.5 12.5t31 -12.5t13 -30.5t-13 -31t-31 -13z" />
    <glyph glyph-name="uniFB6D" unicode="&#x6a4;" horiz-adv-x="584" arabic-form="medial" 
d="M0 0v51h70l77 -2q-80 51 -80 190q0 102 63 171.5t171 69.5q96 0 156 -55.5t60 -177.5q0 -62 -24 -115t-68 -83q57 2 95 2h79v-51h-599zM294 51q67 0 112.5 48.5t45.5 144.5q0 88 -40.5 136.5t-118.5 48.5q-67 0 -113.5 -47.5t-46.5 -138.5q0 -92 42 -142t119 -50z
M296 676q-18 0 -30 12t-12 31q0 18 12.5 30.5t29.5 12.5q18 0 30.5 -12t12.5 -31q0 -18 -12.5 -30.5t-30.5 -12.5zM364 573q-18 0 -31 12.5t-13 31.5q0 18 13 30.5t31 12.5t30.5 -12t12.5 -31q0 -18 -12.5 -31t-30.5 -13zM229 573q-18 0 -30.5 12.5t-12.5 31.5
q0 18 12.5 30.5t30.5 12.5t31 -12.5t13 -30.5t-13 -31t-31 -13z" />
    <glyph glyph-name="uniFB7B" unicode="&#x686;" horiz-adv-x="597" arabic-form="final" 
d="M318 0q-130 0 -180.5 -35.5t-50.5 -99.5q0 -51 37.5 -85t106.5 -44l-12 -52q-90 12 -142.5 58.5t-52.5 114.5q0 194 299 194h122q8 57 8 122q0 131 -52.5 190t-182.5 59q-56 0 -108 -7v50q58 8 113 8q158 0 226 -72t68 -220q0 -66 -9 -130h104v-51h-294zM469 -114
q0 -18 -13 -30.5t-30 -12.5q-18 0 -30.5 12t-12.5 31q0 17 12.5 30t30.5 13q17 0 30 -12.5t13 -30.5zM334 -114q0 -18 -12.5 -30.5t-29.5 -12.5q-18 0 -30.5 12t-12.5 31q0 17 12.5 30t30.5 13q17 0 29.5 -12.5t12.5 -30.5zM401 -215q0 -17 -12.5 -29.5t-29.5 -12.5
q-18 0 -30.5 12t-12.5 30t12.5 30.5t30.5 12.5q17 0 29.5 -12.5t12.5 -30.5z" />
    <glyph glyph-name="uniFB7C" unicode="&#x686;" horiz-adv-x="578" arabic-form="initial" 
d="M0 0v51h431q9 64 9 122q0 131 -53 190t-183 59q-55 0 -108 -7v50q58 8 113 8q158 0 226 -72t68 -220q0 -85 -16 -181h-487zM279 -215q0 -17 -12.5 -29.5t-29.5 -12.5q-18 0 -30.5 12t-12.5 30t12.5 30.5t30.5 12.5q17 0 29.5 -12.5t12.5 -30.5zM347 -114q0 -18 -13 -30.5
t-30 -12.5q-18 0 -30.5 12t-12.5 31q0 17 12.5 30t30.5 13q17 0 30 -12.5t13 -30.5zM212 -114q0 -18 -12.5 -30.5t-29.5 -12.5q-18 0 -30.5 12t-12.5 31q0 17 12.5 30t30.5 13q17 0 29.5 -12.5t12.5 -30.5z" />
    <glyph glyph-name="uniFB7D" unicode="&#x686;" horiz-adv-x="583" arabic-form="medial" 
d="M0 0v51h431q9 64 9 122q0 131 -53 190t-183 59q-55 0 -108 -7v50q58 8 113 8q158 0 226 -72t68 -220q0 -66 -9 -130h104v-51h-598zM347 -114q0 -18 -13 -30.5t-30 -12.5q-18 0 -30.5 12t-12.5 31q0 17 12.5 30t30.5 13q17 0 30 -12.5t13 -30.5zM212 -114
q0 -18 -12.5 -30.5t-29.5 -12.5q-18 0 -30.5 12t-12.5 31q0 17 12.5 30t30.5 13q17 0 29.5 -12.5t12.5 -30.5zM279 -215q0 -17 -12.5 -29.5t-29.5 -12.5q-18 0 -30.5 12t-12.5 30t12.5 30.5t30.5 12.5q17 0 29.5 -12.5t12.5 -30.5z" />
    <glyph glyph-name="uniFB89" unicode="&#x688;" horiz-adv-x="531" arabic-form="final" 
d="M56 0v51h338q-1 158 -61 245.5t-203 135.5l18 54q162 -54 234.5 -154t74.5 -281h88v-51h-489zM176 870v-87q0 -28 -7 -65h1q20 36 54.5 59t72.5 23q43 0 67 -24.5t24 -66.5q0 -56 -36.5 -87.5t-108.5 -31.5h-116v280h49zM337 702q0 57 -47 57q-41 0 -77 -42.5t-38 -86.5
h76q86 0 86 72z" />
    <glyph glyph-name="uniFB8B" unicode="&#x698;" horiz-adv-x="426" arabic-form="final" 
d="M100 -259q-64 0 -118 18l10 54q57 -21 114 -21q75 0 113.5 44.5t38.5 149.5v484h63v-419h120v-51h-120v-5q0 -254 -221 -254zM217 573q-18 0 -30.5 12.5t-12.5 31.5q0 18 12.5 30.5t30.5 12.5t31 -12.5t13 -30.5t-13 -31t-31 -13zM352 573q-18 0 -31 12.5t-13 31.5
q0 18 13 30.5t31 12.5t30.5 -12t12.5 -31q0 -18 -12.5 -31t-30.5 -13zM284 676q-18 0 -30 12t-12 31q0 18 12.5 30.5t29.5 12.5q18 0 30.5 -12t12.5 -31q0 -18 -12.5 -30.5t-30.5 -12.5z" />
    <glyph glyph-name="uniFB8D" unicode="&#x691;" horiz-adv-x="426" arabic-form="final" 
d="M100 -259q-64 0 -118 18l10 54q57 -21 114 -21q75 0 113.5 44.5t38.5 149.5v484h63v-419h120v-51h-120v-5q0 -254 -221 -254zM206 870v-87q0 -28 -7 -65h1q20 36 54.5 59t72.5 23q43 0 67 -24.5t24 -66.5q0 -56 -36.5 -87.5t-108.5 -31.5h-116v280h49zM367 702
q0 57 -47 57q-41 0 -77 -42.5t-38 -86.5h76q86 0 86 72z" />
    <glyph glyph-name="uniFB8F" unicode="&#x6a9;" horiz-adv-x="848" arabic-form="final" 
d="M863 0h-454q-177 0 -257 70t-80 217q0 100 36 174l68 12q-41 -82 -41 -177q0 -127 61.5 -186t222.5 -59h279q-1 165 -65.5 251.5t-208.5 132.5v48l367 231v-65l-292 -181q132 -53 196 -148.5t66 -268.5h102v-51z" />
    <glyph glyph-name="uniFB90" unicode="&#x6a9;" horiz-adv-x="488" arabic-form="initial" 
d="M0 0v51h339q-1 165 -66 251.5t-209 132.5v48l368 231v-65l-292 -181q134 -54 198 -152t64 -277v-39h-402z" />
    <glyph glyph-name="uniFB91" unicode="&#x6a9;" horiz-adv-x="488" arabic-form="medial" 
d="M0 0v51h339q-1 165 -66 251.5t-209 132.5v48l368 231v-65l-292 -181q87 -35 142 -85t87 -132.5t33 -199.5h101v-51h-503z" />
    <glyph glyph-name="uniFB93" unicode="&#x6af;" horiz-adv-x="848" arabic-form="final" 
d="M409 0q-177 0 -257 70t-80 217q0 100 36 174l68 12q-41 -82 -41 -177q0 -127 61.5 -186t222.5 -59h279q-1 165 -65.5 251.5t-208.5 132.5v46l367 231v-63l-292 -181q132 -53 196 -148.5t66 -268.5h102v-51h-454zM424 575v62l367 231v-63z" />
    <glyph glyph-name="uniFB94" unicode="&#x6af;" horiz-adv-x="488" arabic-form="initial" 
d="M0 0v51h339q-1 165 -66 251.5t-209 132.5v46l368 231v-63l-292 -181q134 -54 198 -152t64 -277v-39h-402zM64 575v62l368 231v-63z" />
    <glyph glyph-name="uniFB95" unicode="&#x6af;" horiz-adv-x="488" arabic-form="medial" 
d="M0 0v51h339q-1 165 -66 251.5t-209 132.5v46l368 231v-63l-292 -181q87 -35 142 -85t87 -132.5t33 -199.5h101v-51h-503zM64 575v62l368 231v-63z" />
    <glyph glyph-name="uniFB9F" unicode="&#x6ba;" horiz-adv-x="658" arabic-form="final" 
d="M553 470v-419h120v-51h-122q-8 -115 -72 -173t-177 -58q-48 0 -89 14t-75.5 45t-54 86t-19.5 130q0 103 25 198l66 13q-27 -102 -27 -205q0 -66 16 -113t43.5 -71.5t57.5 -35t65 -10.5q179 0 179 213v437h64z" />
    <glyph glyph-name="uniFBA5" unicode="&#x6c0;" horiz-adv-x="592" arabic-form="final" 
d="M607 0h-298q-138 0 -199 60.5t-61 174.5q0 104 64 174.5t180 70.5q46 0 95 -9t74 -17l26 -9v-394h119v-51zM425 51v352q-56 26 -140 26q-79 0 -124.5 -50.5t-45.5 -136.5q0 -99 48.5 -145t156.5 -46h105zM154 575v43q47 0 79 -5q-16 6 -25 22t-9 32q0 37 29 64t87 27
q20 0 50 -4l-7 -43q-24 4 -48 4q-60 0 -60 -46q0 -51 83 -51h52v-43h-231z" />
    <glyph glyph-name="uniFBA7" unicode="&#x6c1;" horiz-adv-x="552" arabic-form="final" 
d="M567 51v-51h-25q-203 0 -203 219v61q-149 -21 -236 -164l-45 36q59 87 142.5 137.5t183.5 50.5l18 -1v-109q0 -95 34.5 -137t110.5 -42h20z" />
    <glyph glyph-name="uniFBA8" unicode="&#x6c1;" horiz-adv-x="311" arabic-form="initial" 
d="M0 0v51h151v419h64v-470h-215zM108 -239q-20 0 -32.5 15t-12.5 37q0 62 88 137l25 -25q-44 -40 -44 -76q0 -13 7.5 -25.5t7.5 -22.5q0 -16 -11 -28t-28 -12z" />
    <glyph glyph-name="uniFBA9" unicode="&#x6c1;" horiz-adv-x="696" arabic-form="medial" 
d="M711 51v-51h-138v-261h-65q-129 0 -202 70.5t-73 201.5q0 63 7 113l-2 1q-21 -58 -67.5 -91.5t-110.5 -33.5h-60v51h70q72 0 117 61t45 157v101h63v-350q0 -113 55.5 -172t159.5 -59v262h201zM94 -259q-20 0 -32.5 15t-12.5 37q0 62 83 139l26 -23q-42 -42 -42 -78
q0 -13 8.5 -26t8.5 -25q0 -16 -11 -27.5t-28 -11.5z" />
    <glyph glyph-name="uniFBAB" unicode="&#x6be;" horiz-adv-x="661" arabic-form="final" 
d="M676 51v-51h-147q-41 0 -69 2v-1q50 -16 80 -53t30 -91q0 -85 -51 -131t-140 -46q-121 0 -185.5 84t-70.5 236h-123v51h123q3 132 56.5 245.5t155.5 187.5q216 -126 216 -271q0 -62 -25 -104t-66 -58v-2q27 2 73 2h143zM339 408q-69 -57 -110 -153t-42 -204h132
q88 0 128 43t40 111q0 108 -148 203zM308 0h-120q14 -269 198 -269q59 0 89.5 32.5t30.5 88.5q0 64 -54 106t-144 42z" />
    <glyph glyph-name="uniFBAF" unicode="&#x6d2;" horiz-adv-x="775" arabic-form="final" 
d="M684 -320h-602q-6 99 31.5 182t122 136t201.5 53h353v-51h-362q-70 0 -126.5 -25t-89.5 -65.5t-50 -86.5t-17 -92h539v-51z" />
    <glyph glyph-name="uniFBB1" unicode="&#x6d3;" horiz-adv-x="775" arabic-form="final" 
d="M684 -320h-602q-6 99 31.5 182t122 136t201.5 53h353v-51h-362q-70 0 -126.5 -25t-89.5 -65.5t-50 -86.5t-17 -92h539v-51zM49 206v43q47 0 79 -5q-16 6 -25 22t-9 32q0 37 29 64t87 27q20 0 50 -4l-7 -43q-24 4 -48 4q-60 0 -60 -46q0 -51 83 -51h52v-43h-231z" />
    <glyph glyph-name="uniFBE8" unicode="&#x649;" horiz-adv-x="311" arabic-form="initial" 
d="M0 0v51h151v419h64v-470h-215z" />
    <glyph glyph-name="uniFBE9" unicode="&#x649;" horiz-adv-x="319" arabic-form="medial" 
d="M0 0v51h151v419h64v-419h119v-51h-334z" />
    <glyph glyph-name="uniFBFD" unicode="&#x6cc;" horiz-adv-x="1000" arabic-form="final" 
d="M580 0h-171q-177 0 -257 70t-80 217q0 100 36 174l68 12q-41 -82 -41 -177q0 -127 61.5 -186t222.5 -59h98v410q83 19 168 19q117 0 168 -55t51 -162v-212h111v-51h-174v252q0 94 -39 135.5t-125 41.5q-21 0 -45 -2.5t-38 -4.5l-14 -3v-419z" />
    <glyph glyph-name="uniFBFE" unicode="&#x6cc;" horiz-adv-x="370" arabic-form="initial" 
d="M0 0v51h210v419h63v-470h-273zM263 -149q0 -18 -13 -31t-31 -13t-30.5 12.5t-12.5 31.5q0 18 12.5 31t30.5 13t31 -12.5t13 -31.5zM128 -149q0 -18 -12.5 -31t-31.5 -13q-18 0 -30.5 12.5t-12.5 31.5q0 18 12.5 31t30.5 13q19 0 31.5 -12.5t12.5 -31.5z" />
    <glyph glyph-name="uniFBFF" unicode="&#x6cc;" horiz-adv-x="378" arabic-form="medial" 
d="M0 0v51h210v419h63v-419h120v-51h-393zM128 -149q0 -18 -12.5 -31t-31.5 -13q-18 0 -30.5 12.5t-12.5 31.5q0 18 12.5 31t30.5 13q19 0 31.5 -12.5t12.5 -31.5zM263 -149q0 -18 -13 -31t-31 -13t-30.5 12.5t-12.5 31.5q0 18 12.5 31t30.5 13t31 -12.5t13 -31.5z" />
    <glyph glyph-name="uniFDF2" unicode="&#xfdf2;" horiz-adv-x="1251" arabic-form="isolated" 
d="M309 0q-138 0 -199 60.5t-61 174.5q0 104 64 174.5t180 70.5q46 0 95 -9t74 -17l26 -9v-394h255v577h64v-577h253v654h64v-705h-815zM425 51v352q-56 26 -140 26q-79 0 -124.5 -50.5t-45.5 -136.5q0 -99 48.5 -145t156.5 -46h105z" />
    <glyph glyph-name="uniFE78" unicode="&#xfe78;" horiz-adv-x="404" arabic-form="isolated" 
d="M0 811l-8 34l80 17q-8 18 -8 38q0 36 24.5 58t61.5 22q30 0 50 -18t20 -47q0 -33 -22.5 -49.5t-63.5 -25.5zM112 871l15 3q54 10 54 38q0 14 -9 23t-25 9q-43 0 -43 -43q0 -8 2 -15.5t4 -11.5z" />
    <glyph glyph-name="uniFE82" unicode="&#x622;" horiz-adv-x="268" arabic-form="final" 
d="M102 0v705h64v-654h117v-51h-181zM10 803l-30 37l78 59l2 -3q3 -2 7.5 -5.5l10.5 -8t14 -9t16.5 -8t20 -6t22.5 -2.5q61 0 106 45v-58l-3 -2q-2 -3 -6.5 -6l-11 -7t-15.5 -8t-19.5 -7.5t-24.5 -5.5t-29 -2q-57 0 -90 33z" />
    <glyph glyph-name="uniFE84" unicode="&#x623;" horiz-adv-x="268" arabic-form="final" 
d="M102 0v675h64v-624h117v-51h-181zM7 733v42q49 0 79 -5q-34 15 -34 54q0 37 28.5 63.5t86.5 26.5q31 0 51 -4l-7 -42q-24 4 -49 4q-29 0 -44.5 -12.5t-15.5 -33.5q0 -51 84 -51h52v-42h-231z" />
    <glyph glyph-name="uniFE86" unicode="&#x624;" horiz-adv-x="592" arabic-form="final" 
d="M212 -254q-35 0 -74.5 4t-61.5 8l-23 5l5 56q89 -22 163 -22q92 0 148 40.5t56 131.5v31h-116q-138 0 -199 60.5t-61 174.5q0 104 64 174.5t180 70.5q46 0 95 -9t74 -17l26 -9v-394h119v-51h-119v-31q0 -41 -14 -78.5t-44.5 -71t-86.5 -53.5t-131 -20zM425 51v352
q-56 26 -140 26q-79 0 -124.5 -50.5t-45.5 -136.5q0 -99 48.5 -145t156.5 -46h105zM159 574v43q47 0 79 -5q-16 6 -25 22t-9 32q0 37 29 64t87 27q20 0 50 -4l-7 -43q-24 4 -48 4q-60 0 -60 -46q0 -51 83 -51h52v-43h-231z" />
    <glyph glyph-name="uniFE88" unicode="&#x625;" horiz-adv-x="268" arabic-form="final" 
d="M102 0v705h64v-654h117v-51h-181zM11 -243v42q47 0 65 -3q-22 13 -22 41q0 34 27 56.5t74 22.5q31 0 52 -5l-7 -43q-24 6 -47 6q-22 0 -35.5 -10t-13.5 -26q0 -39 68 -39h59v-42h-220z" />
    <glyph glyph-name="uniFE8A" unicode="&#x626;" horiz-adv-x="1000" arabic-form="final" 
d="M49 575v43q47 0 79 -5q-16 6 -25 22t-9 32q0 37 29 64t87 27q20 0 50 -4l-7 -43q-24 4 -48 4q-60 0 -60 -46q0 -51 83 -51h52v-43h-231zM580 0h-171q-177 0 -257 70t-80 217q0 100 36 174l68 12q-41 -82 -41 -177q0 -127 61.5 -186t222.5 -59h98v410q83 19 168 19
q117 0 168 -55t51 -162v-212h111v-51h-174v252q0 94 -39 135.5t-125 41.5q-21 0 -45 -2.5t-38 -4.5l-14 -3v-419z" />
    <glyph glyph-name="uniFE8B" unicode="&#x626;" horiz-adv-x="311" arabic-form="initial" 
d="M42 570v43q47 0 79 -5q-16 6 -25 22t-9 32q0 37 29 64t87 27q20 0 50 -4l-7 -43q-24 4 -48 4q-60 0 -60 -46q0 -51 83 -51h52v-43h-231zM0 0v51h151v419h64v-470h-215z" />
    <glyph glyph-name="uniFE8C" unicode="&#x626;" horiz-adv-x="319" arabic-form="medial" 
d="M0 0v51h151v419h64v-419h119v-51h-334zM42 575v43q47 0 79 -5q-16 6 -25 22t-9 32q0 37 29 64t87 27q20 0 50 -4l-7 -43q-24 4 -48 4q-60 0 -60 -46q0 -51 83 -51h52v-43h-231z" />
    <glyph glyph-name="uniFE8E" unicode="&#x627;" horiz-adv-x="268" arabic-form="final" 
d="M102 0v705h64v-654h117v-51h-181z" />
    <glyph glyph-name="uniFE90" unicode="&#x628;" horiz-adv-x="781" arabic-form="final" 
d="M409 0q-177 0 -257 70t-80 217q0 100 36 174l68 12q-41 -82 -41 -177q0 -127 61.5 -186t222.5 -59h194v419h63v-419h120v-51h-387zM393 -194q-18 0 -31 12.5t-13 31.5q0 18 13 31t31 13t31 -12.5t13 -31.5q0 -18 -13 -31t-31 -13z" />
    <glyph glyph-name="uniFE91" unicode="&#x628;" horiz-adv-x="311" arabic-form="initial" 
d="M0 0v51h151v419h64v-470h-215zM121 -194q-18 0 -31 12.5t-13 31.5q0 18 13 31t31 13t31 -12.5t13 -31.5q0 -18 -13 -31t-31 -13z" />
    <glyph glyph-name="uniFE92" unicode="&#x628;" horiz-adv-x="319" arabic-form="medial" 
d="M0 0v51h151v419h64v-419h119v-51h-334zM121 -194q-18 0 -31 12.5t-13 31.5q0 18 13 31t31 13t31 -12.5t13 -31.5q0 -18 -13 -31t-31 -13z" />
    <glyph glyph-name="uniFE94" unicode="&#x629;" horiz-adv-x="592" arabic-form="final" 
d="M607 0h-298q-138 0 -199 60.5t-61 174.5q0 104 64 174.5t180 70.5q46 0 95 -9t74 -17l26 -9v-394h119v-51zM425 51v352q-56 26 -140 26q-79 0 -124.5 -50.5t-45.5 -136.5q0 -99 48.5 -145t156.5 -46h105zM354 573q-18 0 -30.5 12.5t-12.5 31.5q0 18 12.5 30.5t30.5 12.5
t31 -12.5t13 -30.5t-13 -31t-31 -13zM219 573q-18 0 -30.5 12.5t-12.5 31.5q0 18 12.5 30.5t30.5 12.5q19 0 31.5 -12t12.5 -31q0 -18 -12.5 -31t-31.5 -13z" />
    <glyph glyph-name="uniFE96" unicode="&#x62a;" horiz-adv-x="781" arabic-form="final" 
d="M409 0q-177 0 -257 70t-80 217q0 100 36 174l68 12q-41 -82 -41 -177q0 -127 61.5 -186t222.5 -59h194v419h63v-419h120v-51h-387zM333 573q-18 0 -30.5 12.5t-12.5 31.5q0 18 12.5 30.5t30.5 12.5q19 0 31.5 -12t12.5 -31q0 -18 -12.5 -31t-31.5 -13zM468 573
q-18 0 -30.5 12.5t-12.5 31.5q0 18 12.5 30.5t30.5 12.5t31 -12.5t13 -30.5t-13 -31t-31 -13z" />
    <glyph glyph-name="uniFE97" unicode="&#x62a;" horiz-adv-x="311" arabic-form="initial" 
d="M0 0v51h151v419h64v-470h-215zM235 573q-18 0 -30.5 12.5t-12.5 31.5q0 18 12.5 30.5t30.5 12.5t31 -12.5t13 -30.5t-13 -31t-31 -13zM100 573q-18 0 -30.5 12.5t-12.5 31.5q0 18 12.5 30.5t30.5 12.5q19 0 31.5 -12t12.5 -31q0 -18 -12.5 -31t-31.5 -13z" />
    <glyph glyph-name="uniFE98" unicode="&#x62a;" horiz-adv-x="311" arabic-form="medial" 
d="M0 0v51h151v419h64v-419h111v-51h-326zM100 573q-18 0 -30.5 12.5t-12.5 31.5q0 18 12.5 30.5t30.5 12.5q19 0 31.5 -12t12.5 -31q0 -18 -12.5 -31t-31.5 -13zM235 573q-18 0 -30.5 12.5t-12.5 31.5q0 18 12.5 30.5t30.5 12.5t31 -12.5t13 -30.5t-13 -31t-31 -13z" />
    <glyph glyph-name="uniFE9A" unicode="&#x62b;" horiz-adv-x="781" arabic-form="final" 
d="M409 0q-177 0 -257 70t-80 217q0 100 36 174l68 12q-41 -82 -41 -177q0 -127 61.5 -186t222.5 -59h194v419h63v-419h120v-51h-387zM334 573q-18 0 -30.5 12.5t-12.5 31.5q0 18 12.5 30.5t30.5 12.5t31 -12.5t13 -30.5t-13 -31t-31 -13zM469 573q-18 0 -31 12.5t-13 31.5
q0 18 13 30.5t31 12.5t30.5 -12t12.5 -31q0 -18 -12.5 -31t-30.5 -13zM401 676q-17 0 -29.5 12t-12.5 31q0 18 12.5 30.5t29.5 12.5q18 0 30.5 -12t12.5 -31q0 -18 -12.5 -30.5t-30.5 -12.5z" />
    <glyph glyph-name="uniFE9B" unicode="&#x62b;" horiz-adv-x="311" arabic-form="initial" 
d="M0 0v51h151v419h64v-470h-215zM167 676q-17 0 -29.5 12t-12.5 31q0 18 12.5 30.5t29.5 12.5q18 0 30.5 -12t12.5 -31q0 -18 -12.5 -30.5t-30.5 -12.5zM235 573q-18 0 -31 12.5t-13 31.5q0 18 13 30.5t31 12.5t30.5 -12t12.5 -31q0 -18 -12.5 -31t-30.5 -13zM100 573
q-18 0 -30.5 12.5t-12.5 31.5q0 18 12.5 30.5t30.5 12.5t31 -12.5t13 -30.5t-13 -31t-31 -13z" />
    <glyph glyph-name="uniFE9C" unicode="&#x62b;" horiz-adv-x="319" arabic-form="medial" 
d="M0 0v51h151v419h64v-419h119v-51h-334zM100 573q-18 0 -30.5 12.5t-12.5 31.5q0 18 12.5 30.5t30.5 12.5t31 -12.5t13 -30.5t-13 -31t-31 -13zM235 573q-18 0 -31 12.5t-13 31.5q0 18 13 30.5t31 12.5t30.5 -12t12.5 -31q0 -18 -12.5 -31t-30.5 -13zM167 676
q-17 0 -29.5 12t-12.5 31q0 18 12.5 30.5t29.5 12.5q18 0 30.5 -12t12.5 -31q0 -18 -12.5 -30.5t-30.5 -12.5z" />
    <glyph glyph-name="uniFE9E" unicode="&#x62c;" horiz-adv-x="584" arabic-form="final" 
d="M599 0h-281q-130 0 -180.5 -35.5t-50.5 -99.5q0 -57 53.5 -95.5t150.5 -38.5l-4 -51q-126 0 -194.5 51t-68.5 127q0 193 299 193h120q8 69 8 122q0 131 -52.5 190t-183.5 59q-55 0 -108 -7v50q60 8 114 8q158 0 226 -72t68 -220q0 -59 -10 -130h94v-51zM353 -194
q-18 0 -31 12.5t-13 31.5q0 18 13 31t31 13t31 -12.5t13 -31.5q0 -18 -13 -31t-31 -13z" />
    <glyph glyph-name="uniFE9F" unicode="&#x62c;" horiz-adv-x="578" arabic-form="initial" 
d="M0 0v51h431q9 64 9 122q0 131 -53 190t-183 59q-55 0 -108 -7v50q58 8 113 8q158 0 226 -72t68 -220q0 -85 -16 -181h-487zM236 -194q-18 0 -31 12.5t-13 31.5q0 18 13 31t31 13t31 -12.5t13 -31.5q0 -18 -13 -31t-31 -13z" />
    <glyph glyph-name="uniFEA0" unicode="&#x62c;" horiz-adv-x="583" arabic-form="medial" 
d="M0 0v51h431q9 64 9 122q0 131 -53 190t-183 59q-55 0 -108 -7v50q58 8 113 8q158 0 226 -72t68 -220q0 -66 -9 -130h104v-51h-598zM236 -194q-18 0 -31 12.5t-13 31.5q0 18 13 31t31 13t31 -12.5t13 -31.5q0 -18 -13 -31t-31 -13z" />
    <glyph glyph-name="uniFEA2" unicode="&#x62d;" horiz-adv-x="593" arabic-form="final" 
d="M318 0q-130 0 -180.5 -35.5t-50.5 -99.5q0 -60 53 -97t152 -37q86 0 186 22l6 -50q-101 -23 -197 -23q-127 0 -195 49.5t-68 128.5q0 193 299 193h118q9 64 9 122q0 131 -53 190t-183 59q-55 0 -108 -7v50q58 8 113 8q158 0 226 -72t68 -220q0 -66 -9 -130h104v-51h-290z
" />
    <glyph glyph-name="uniFEA3" unicode="&#x62d;" horiz-adv-x="578" arabic-form="initial" 
d="M0 0v51h431q9 64 9 122q0 131 -53 190t-183 59q-55 0 -108 -7v50q58 8 113 8q158 0 226 -72t68 -220q0 -85 -16 -181h-487z" />
    <glyph glyph-name="uniFEA4" unicode="&#x62d;" horiz-adv-x="583" arabic-form="medial" 
d="M0 0v51h431q9 64 9 122q0 131 -53 190t-183 59q-55 0 -108 -7v50q58 8 113 8q158 0 226 -72t68 -220q0 -66 -9 -130h104v-51h-598z" />
    <glyph glyph-name="uniFEA6" unicode="&#x62e;" horiz-adv-x="593" arabic-form="final" 
d="M287 -320q-127 0 -195 49.5t-68 128.5q0 193 299 193h118q9 64 9 122q0 131 -53 190t-183 59q-55 0 -108 -7v50q58 8 113 8q158 0 226 -72t68 -220q0 -66 -9 -130h104v-51h-290q-130 0 -180.5 -35.5t-50.5 -99.5q0 -60 53 -97t152 -37q86 0 186 22l6 -50
q-101 -23 -197 -23zM246 594q-18 0 -31 12.5t-13 31.5q0 18 13 31t31 13t31 -12.5t13 -31.5q0 -18 -13 -31t-31 -13z" />
    <glyph glyph-name="uniFEA7" unicode="&#x62e;" horiz-adv-x="578" arabic-form="initial" 
d="M0 0v51h431q9 64 9 122q0 131 -53 190t-183 59q-55 0 -108 -7v50q58 8 113 8q158 0 226 -72t68 -220q0 -85 -16 -181h-487zM236 594q-18 0 -31 12.5t-13 31.5q0 18 13 31t31 13t31 -12.5t13 -31.5q0 -18 -13 -31t-31 -13z" />
    <glyph glyph-name="uniFEA8" unicode="&#x62e;" horiz-adv-x="583" arabic-form="medial" 
d="M0 0v51h431q9 64 9 122q0 131 -53 190t-183 59q-55 0 -108 -7v50q58 8 113 8q158 0 226 -72t68 -220q0 -66 -9 -130h104v-51h-598zM236 594q-18 0 -31 12.5t-13 31.5q0 18 13 31t31 13t31 -12.5t13 -31.5q0 -18 -13 -31t-31 -13z" />
    <glyph glyph-name="uniFEAA" unicode="&#x62f;" horiz-adv-x="531" arabic-form="final" 
d="M56 0v51h338q-1 158 -61 245.5t-203 135.5l18 54q162 -54 234.5 -154t74.5 -281h88v-51h-489z" />
    <glyph glyph-name="uniFEAC" unicode="&#x630;" horiz-adv-x="531" arabic-form="final" 
d="M56 0v51h338q-1 158 -61 245.5t-203 135.5l18 54q162 -54 234.5 -154t74.5 -281h88v-51h-489zM197 594q-18 0 -31 12.5t-13 31.5q0 18 13 31t31 13t31 -12.5t13 -31.5q0 -18 -13 -31t-31 -13z" />
    <glyph glyph-name="uniFEAE" unicode="&#x631;" horiz-adv-x="426" arabic-form="final" 
d="M100 -259q-64 0 -118 18l10 54q57 -21 114 -21q75 0 113.5 44.5t38.5 149.5v484h63v-419h120v-51h-120v-5q0 -254 -221 -254z" />
    <glyph glyph-name="uniFEB0" unicode="&#x632;" horiz-adv-x="426" arabic-form="final" 
d="M100 -259q-64 0 -118 18l10 54q57 -21 114 -21q75 0 113.5 44.5t38.5 149.5v484h63v-419h120v-51h-120v-5q0 -254 -221 -254zM288 594q-18 0 -31 12.5t-13 31.5q0 18 13 31t31 13t31 -12.5t13 -31.5q0 -18 -13 -31t-31 -13z" />
    <glyph glyph-name="uniFEB2" unicode="&#x633;" horiz-adv-x="1183" arabic-form="final" 
d="M992 0q-106 0 -153.5 18.5t-67.5 69.5q-14 -49 -52.5 -72t-77.5 -23q-76 0 -108 54q2 -150 -62 -214t-168 -64q-48 0 -89 14t-75 45t-53.5 86t-19.5 130q0 103 25 198l66 13q-27 -102 -27 -205q0 -126 52.5 -178t129.5 -52q70 0 114.5 50t44.5 163v377h64v-181
q0 -95 23 -140t80 -45t83.5 44t26.5 140v222h63v-260q0 -88 34.5 -113.5t131.5 -25.5h36q10 75 10 153q0 156 -37 281l62 14q38 -130 38 -288q0 -72 -10 -160h122v-51h-206z" />
    <glyph glyph-name="uniFEB3" unicode="&#x633;" horiz-adv-x="855" arabic-form="initial" 
d="M0 0v51h39q59 0 85.5 33t26.5 113v213h64v-181v-40.5t1 -34.5t3.5 -33t6.5 -25.5t11 -23t17 -15t23.5 -11t31.5 -2.5q57 0 88 40t31 144v222h63v-260q0 -46 8 -74t30 -42t50 -18.5t77 -4.5h37q9 67 9 153q0 159 -36 281l62 14q38 -130 38 -288q0 -106 -18 -211h-76
q-107 0 -153.5 18.5t-67.5 69.5q-12 -39 -49 -67t-103 -28q-50 0 -82.5 25.5t-42.5 66.5q-28 -85 -135 -85h-39z" />
    <glyph glyph-name="uniFEB4" unicode="&#x633;" horiz-adv-x="863" arabic-form="medial" 
d="M0 0v51h39q59 0 85.5 33t26.5 113v213h64v-181v-40.5t1 -34.5t3.5 -33t6.5 -25.5t11 -23t17 -15t23.5 -11t31.5 -2.5q57 0 88 40t31 144v222h63v-260q0 -46 8 -74t30 -42t50 -18.5t77 -4.5h37q9 67 9 153q0 159 -36 281l62 14q38 -130 38 -288q0 -77 -11 -160h123v-51
h-206q-107 0 -153.5 18.5t-67.5 69.5q-12 -39 -49 -67t-103 -28q-50 0 -82.5 25.5t-42.5 66.5q-28 -85 -135 -85h-39z" />
    <glyph glyph-name="uniFEB6" unicode="&#x634;" horiz-adv-x="1183" arabic-form="final" 
d="M992 0q-106 0 -153.5 18.5t-67.5 69.5q-14 -49 -52.5 -72t-77.5 -23q-76 0 -108 54q2 -150 -62 -214t-168 -64q-48 0 -89 14t-75 45t-53.5 86t-19.5 130q0 103 25 198l66 13q-27 -102 -27 -205q0 -126 52.5 -178t129.5 -52q70 0 114.5 50t44.5 163v377h64v-181
q0 -95 23 -140t80 -45t83.5 44t26.5 140v222h63v-260q0 -88 34.5 -113.5t131.5 -25.5h36q10 75 10 153q0 156 -37 281l62 14q38 -130 38 -288q0 -72 -10 -160h122v-51h-206zM701 573q-18 0 -30.5 12.5t-12.5 31.5q0 18 12.5 30.5t30.5 12.5t31 -12.5t13 -30.5t-13 -31
t-31 -13zM836 573q-18 0 -31 12.5t-13 31.5q0 18 13 30.5t31 12.5t30.5 -12t12.5 -31q0 -18 -12.5 -31t-30.5 -13zM768 676q-18 0 -30 12t-12 31q0 18 12.5 30.5t29.5 12.5q18 0 30.5 -12t12.5 -31q0 -18 -12.5 -30.5t-30.5 -12.5z" />
    <glyph glyph-name="uniFEB7" unicode="&#x634;" horiz-adv-x="855" arabic-form="initial" 
d="M0 0v51h39q59 0 85.5 33t26.5 113v213h64v-181v-40.5t1 -34.5t3.5 -33t6.5 -25.5t11 -23t17 -15t23.5 -11t31.5 -2.5q57 0 88 40t31 144v222h63v-260q0 -46 8 -74t30 -42t50 -18.5t77 -4.5h37q9 67 9 153q0 159 -36 281l62 14q38 -130 38 -288q0 -106 -18 -211h-76
q-107 0 -153.5 18.5t-67.5 69.5q-12 -39 -49 -67t-103 -28q-50 0 -82.5 25.5t-42.5 66.5q-28 -85 -135 -85h-39zM455 676q-17 0 -29.5 12t-12.5 31q0 18 12.5 30.5t29.5 12.5q18 0 30.5 -12t12.5 -31q0 -18 -12.5 -30.5t-30.5 -12.5zM523 573q-18 0 -31 12.5t-13 31.5
q0 18 13 30.5t31 12.5t30.5 -12t12.5 -31q0 -18 -12.5 -31t-30.5 -13zM388 573q-18 0 -30.5 12.5t-12.5 31.5q0 18 12.5 30.5t30.5 12.5t31 -12.5t13 -30.5t-13 -31t-31 -13z" />
    <glyph glyph-name="uniFEB8" unicode="&#x634;" horiz-adv-x="863" arabic-form="medial" 
d="M672 0q-107 0 -153.5 18.5t-67.5 69.5q-12 -39 -49 -67t-103 -28q-50 0 -82.5 25.5t-42.5 66.5q-28 -85 -135 -85h-39v51h39q59 0 85.5 33t26.5 113v213h64v-181v-40.5t1 -34.5t3.5 -33t6.5 -25.5t11 -23t17 -15t23.5 -11t31.5 -2.5q57 0 88 40t31 144v222h63v-260
q0 -46 8 -74t30 -42t50 -18.5t77 -4.5h37q9 67 9 153q0 159 -36 281l62 14q38 -130 38 -288q0 -77 -11 -160h123v-51h-206zM388 573q-18 0 -30.5 12.5t-12.5 31.5q0 18 12.5 30.5t30.5 12.5t31 -12.5t13 -30.5t-13 -31t-31 -13zM523 573q-18 0 -31 12.5t-13 31.5
q0 18 13 30.5t31 12.5t30.5 -12t12.5 -31q0 -18 -12.5 -31t-30.5 -13zM455 676q-17 0 -29.5 12t-12.5 31q0 18 12.5 30.5t29.5 12.5q18 0 30.5 -12t12.5 -31q0 -18 -12.5 -30.5t-30.5 -12.5z" />
    <glyph glyph-name="uniFEBA" unicode="&#x635;" horiz-adv-x="1060" arabic-form="final" 
d="M303 -231q-48 0 -89 14t-75 45t-53.5 86t-19.5 130q0 103 25 198l66 13q-27 -102 -27 -205q0 -126 52.5 -178t129.5 -52q70 0 114.5 50t44.5 163v437h64v-49q0 -114 -10 -201h1q35 124 114 192t175 68q91 0 141.5 -59.5t50.5 -167.5q0 -137 -90 -202h160v-51h-337h-15
h-192q-7 -114 -70 -172.5t-160 -58.5zM534 51h211q196 5 196 195q0 86 -34 134.5t-102 48.5q-75 0 -136.5 -58.5t-94.5 -143t-40 -176.5z" />
    <glyph glyph-name="uniFEBB" unicode="&#x635;" horiz-adv-x="753" arabic-form="initial" 
d="M0 0v51h150v419h64v-49q0 -114 -10 -201h1q35 124 114 192t175 68q91 0 141.5 -59.5t50.5 -167.5q0 -112 -67 -182.5t-215 -70.5h-404zM213 51h199q208 0 208 195q0 86 -34 134.5t-102 48.5q-75 0 -136.5 -58.5t-94.5 -143t-40 -176.5z" />
    <glyph glyph-name="uniFEBC" unicode="&#x635;" horiz-adv-x="752" arabic-form="medial" 
d="M411 0h-7h-404v51h150v419h64v-49q0 -114 -10 -201h1q35 124 114 192t175 68q91 0 141.5 -59.5t50.5 -167.5q0 -137 -90 -202h173v-51h-358zM213 51h199q208 0 208 195q0 86 -34 134.5t-102 48.5q-75 0 -136.5 -58.5t-94.5 -143t-40 -176.5z" />
    <glyph glyph-name="uniFEBE" unicode="&#x636;" horiz-adv-x="1060" arabic-form="final" 
d="M303 -231q-48 0 -89 14t-75 45t-53.5 86t-19.5 130q0 103 25 198l66 13q-27 -102 -27 -205q0 -126 52.5 -178t129.5 -52q70 0 114.5 50t44.5 163v437h64v-49q0 -114 -10 -201h1q35 124 114 192t175 68q91 0 141.5 -59.5t50.5 -167.5q0 -137 -90 -202h160v-51h-544
q-7 -114 -70 -172.5t-160 -58.5zM534 51h199q208 0 208 195q0 86 -34 134.5t-102 48.5q-75 0 -136.5 -58.5t-94.5 -143t-40 -176.5zM803 594q-18 0 -31 12.5t-13 31.5q0 18 13 31t31 13t31 -12.5t13 -31.5q0 -18 -13 -31t-31 -13z" />
    <glyph glyph-name="uniFEBF" unicode="&#x636;" horiz-adv-x="734" arabic-form="initial" 
d="M0 0v51h150v419h64v-49q0 -114 -10 -201h1q35 124 114 192t175 68q91 0 141.5 -59.5t50.5 -167.5q0 -112 -67 -182.5t-215 -70.5h-404zM213 51h199q208 0 208 195q0 86 -34 134.5t-102 48.5q-75 0 -136.5 -58.5t-94.5 -143t-40 -176.5zM481 594q-18 0 -31 12.5t-13 31.5
q0 18 13 31t31 13t31 -12.5t13 -31.5q0 -18 -13 -31t-31 -13z" />
    <glyph glyph-name="uniFEC0" unicode="&#x636;" horiz-adv-x="738" arabic-form="medial" 
d="M0 0v51h150v419h64v-49q0 -114 -10 -201h1q35 124 114 192t175 68q91 0 141.5 -59.5t50.5 -167.5q0 -137 -90 -202h158v-51h-754zM213 51h211q196 5 196 195q0 86 -34 134.5t-102 48.5q-75 0 -136.5 -58.5t-94.5 -143t-40 -176.5zM481 594q-18 0 -31 12.5t-13 31.5
q0 18 13 31t31 13t31 -12.5t13 -31.5q0 -18 -13 -31t-31 -13z" />
    <glyph glyph-name="uniFEC2" unicode="&#x637;" horiz-adv-x="738" arabic-form="final" 
d="M0 0v51h149v654h63v-284q0 -114 -10 -201h1q36 124 115 192t175 68q91 0 141.5 -59.5t50.5 -167.5q0 -137 -90 -202h159v-51h-336h-15h-403zM211 51h212q196 5 196 195q0 87 -34 135t-103 48q-75 0 -136 -58.5t-94.5 -143t-40.5 -176.5z" />
    <glyph glyph-name="uniFEC3" unicode="&#x637;" horiz-adv-x="733" arabic-form="initial" 
d="M0 0v51h149v654h63v-284q0 -114 -10 -201h1q36 124 115 192t175 68q91 0 141.5 -59.5t50.5 -167.5q0 -112 -67 -182.5t-215 -70.5h-403zM211 51h200q208 0 208 195q0 87 -34 135t-103 48q-75 0 -136 -58.5t-94.5 -143t-40.5 -176.5z" />
    <glyph glyph-name="uniFEC4" unicode="&#x637;" horiz-adv-x="748" arabic-form="medial" 
d="M0 0v51h149v654h63v-284q0 -114 -10 -201h1q36 124 115 192t175 68q91 0 141.5 -59.5t50.5 -167.5q0 -137 -90 -202h170v-51h-347h-15h-403zM211 51h212q196 5 196 195q0 87 -34 135t-103 48q-75 0 -136 -58.5t-94.5 -143t-40.5 -176.5z" />
    <glyph glyph-name="uniFEC6" unicode="&#x638;" horiz-adv-x="738" arabic-form="final" 
d="M0 0v51h149v654h63v-284q0 -114 -10 -201h1q36 124 115 192t175 68q91 0 141.5 -59.5t50.5 -167.5q0 -137 -90 -202h159v-51h-754zM211 51h200q208 0 208 195q0 87 -34 135t-103 48q-75 0 -136 -58.5t-94.5 -143t-40.5 -176.5zM481 594q-18 0 -31 12.5t-13 31.5
q0 18 13 31t31 13t31 -12.5t13 -31.5q0 -18 -13 -31t-31 -13z" />
    <glyph glyph-name="uniFEC7" unicode="&#x638;" horiz-adv-x="733" arabic-form="initial" 
d="M0 0v51h149v654h63v-284q0 -114 -10 -201h1q36 124 115 192t175 68q91 0 141.5 -59.5t50.5 -167.5q0 -112 -67 -182.5t-215 -70.5h-403zM211 51h200q208 0 208 195q0 87 -34 135t-103 48q-75 0 -136 -58.5t-94.5 -143t-40.5 -176.5zM481 594q-18 0 -31 12.5t-13 31.5
q0 18 13 31t31 13t31 -12.5t13 -31.5q0 -18 -13 -31t-31 -13z" />
    <glyph glyph-name="uniFEC8" unicode="&#x638;" horiz-adv-x="738" arabic-form="medial" 
d="M0 0v51h149v654h63v-284q0 -114 -10 -201h1q36 124 115 192t175 68q91 0 141.5 -59.5t50.5 -167.5q0 -137 -90 -202h159v-51h-754zM211 51h200q208 0 208 195q0 87 -34 135t-103 48q-75 0 -136 -58.5t-94.5 -143t-40.5 -176.5zM481 594q-18 0 -31 12.5t-13 31.5
q0 18 13 31t31 13t31 -12.5t13 -31.5q0 -18 -13 -31t-31 -13z" />
    <glyph glyph-name="uniFECA" unicode="&#x639;" horiz-adv-x="624" arabic-form="final" 
d="M310 -259q-134 0 -199.5 47t-65.5 122q0 19 4.5 37t15 34t20.5 29t29.5 27.5l32 23.5t38 22.5l38 20l42 21t40.5 19.5l-69.5 66.5t-71 54t-92.5 47.5l5 43q163 127 290 127q89 0 134 -43.5t45 -106.5q0 -64 -40 -110.5t-111 -86.5q95 -84 186 -84h58v-51h-69
q-66 0 -118 27.5t-109 80.5l-48 -24l-49 -25l-42 -23t-39.5 -26.5t-28 -27.5t-21.5 -32.5t-6 -35.5q0 -55 51.5 -88.5t157.5 -33.5q34 0 74.5 3.5t63.5 6.5l24 4l4 -49q-90 -16 -174 -16zM137 338q22 -8 44 -20.5t37.5 -23t39 -30.5t33 -29l35 -33.5l31.5 -30.5q60 33 93 69
t33 83q0 48 -30.5 78.5t-92.5 30.5q-92 0 -223 -94z" />
    <glyph glyph-name="uniFECB" unicode="&#x639;" horiz-adv-x="590" arabic-form="initial" 
d="M0 0v51h222q-56 22 -92.5 74.5t-36.5 123.5q0 99 61.5 165t175.5 66q32 0 65.5 -6t50.5 -12l18 -7l-12 -52q-61 27 -129 27q-75 0 -120.5 -46.5t-45.5 -128.5q0 -91 72.5 -147.5t220.5 -56.5h85v-51h-535z" />
    <glyph glyph-name="uniFECC" unicode="&#x639;" horiz-adv-x="624" arabic-form="medial" 
d="M0 0v51h32q172 0 298 69q-9 8 -36.5 35l-39.5 38.5t-38 33.5t-45 34.5t-45.5 27t-53.5 23.5l5 43q163 127 290 127q89 0 134 -43.5t45 -106.5q0 -54 -33.5 -111t-95.5 -104q81 -66 164 -66h58v-51h-69q-101 0 -201 84q-144 -84 -345 -84h-24zM137 338q35 -13 73 -38.5
t55.5 -41t62 -58.5l50.5 -49q105 77 105 172q0 48 -30.5 78.5t-92.5 30.5q-92 0 -223 -94z" />
    <glyph glyph-name="uniFECE" unicode="&#x63a;" horiz-adv-x="624" arabic-form="final" 
d="M310 -259q-134 0 -199.5 47t-65.5 122q0 19 4.5 37t15 34t20.5 29t29.5 27.5l32 23.5t38 22.5l38 20l42 21t40.5 19.5l-69.5 66.5t-71 54t-92.5 47.5l5 43q163 127 290 127q89 0 134 -43.5t45 -106.5q0 -64 -40 -110.5t-111 -86.5q95 -84 186 -84h58v-51h-69
q-66 0 -118 27.5t-109 80.5l-48 -24l-49 -25l-42 -23t-39.5 -26.5t-28 -27.5t-21.5 -32.5t-6 -35.5q0 -55 51.5 -88.5t157.5 -33.5q34 0 74.5 3.5t63.5 6.5l24 4l4 -49q-90 -16 -174 -16zM137 338q22 -8 44 -20.5t37.5 -23t39 -30.5t33 -29l35 -33.5l31.5 -30.5q60 33 93 69
t33 83q0 48 -30.5 78.5t-92.5 30.5q-92 0 -223 -94zM346 595q-18 0 -31 12.5t-13 31.5q0 18 13 31t31 13t31 -12.5t13 -31.5q0 -18 -13 -31t-31 -13z" />
    <glyph glyph-name="uniFECF" unicode="&#x63a;" horiz-adv-x="590" arabic-form="initial" 
d="M0 0v51h222q-56 22 -92.5 74.5t-36.5 123.5q0 99 61.5 165t175.5 66q32 0 65.5 -6t50.5 -12l18 -7l-12 -52q-61 27 -129 27q-75 0 -120.5 -46.5t-45.5 -128.5q0 -91 72.5 -147.5t220.5 -56.5h85v-51h-535zM312 594q-18 0 -31 12.5t-13 31.5q0 18 13 31t31 13t31 -12.5
t13 -31.5q0 -18 -13 -31t-31 -13z" />
    <glyph glyph-name="uniFED0" unicode="&#x63a;" horiz-adv-x="624" arabic-form="medial" 
d="M0 0v51h32q172 0 298 69q-9 8 -36.5 35l-39.5 38.5t-38 33.5t-45 34.5t-45.5 27t-53.5 23.5l5 43q163 127 290 127q89 0 134 -43.5t45 -106.5q0 -54 -33.5 -111t-95.5 -104q81 -66 164 -66h58v-51h-69q-101 0 -201 84q-144 -84 -345 -84h-24zM137 338q35 -13 73 -38.5
t55.5 -41t62 -58.5l50.5 -49q105 77 105 172q0 48 -30.5 78.5t-92.5 30.5q-92 0 -223 -94zM346 595q-18 0 -31 12.5t-13 31.5q0 18 13 31t31 13t31 -12.5t13 -31.5q0 -18 -13 -31t-31 -13z" />
    <glyph glyph-name="uniFED2" unicode="&#x641;" horiz-adv-x="925" arabic-form="final" 
d="M940 51v-51h-531q-177 0 -257 70t-80 217q0 100 36 174l68 12q-41 -82 -41 -177q0 -127 61 -186t220 -59h70q-78 50 -78 188q0 102 63 171.5t171 69.5q96 0 156 -55.5t60 -177.5q0 -62 -24 -115t-68 -83q57 2 95 2h79zM793 244q0 88 -40.5 136.5t-118.5 48.5
q-67 0 -113.5 -47.5t-46.5 -139.5q0 -91 42 -141t119 -50q67 0 112.5 48.5t45.5 144.5zM638 595q-18 0 -31 12.5t-13 31.5q0 18 13 31t31 13t31 -12.5t13 -31.5q0 -18 -13 -31t-31 -13z" />
    <glyph glyph-name="uniFED3" unicode="&#x641;" horiz-adv-x="612" arabic-form="initial" 
d="M516 0h-516v51h95l59 -3q-87 50 -87 187q0 104 64 174.5t179 70.5q101 0 153.5 -56t52.5 -164v-260zM453 51v194q0 97 -38.5 140.5t-111.5 43.5q-79 0 -124.5 -51t-45.5 -137q0 -98 48.5 -144t156.5 -46h115zM301 595q-18 0 -31 12.5t-13 31.5q0 18 13 31t31 13t31 -12.5
t13 -31.5q0 -18 -13 -31t-31 -13z" />
    <glyph glyph-name="uniFED4" unicode="&#x641;" horiz-adv-x="584" arabic-form="medial" 
d="M0 0v51h70l77 -2q-80 51 -80 190q0 102 63 171.5t171 69.5q96 0 156 -55.5t60 -177.5q0 -62 -24 -115t-68 -83q57 2 95 2h79v-51h-599zM294 51q67 0 112.5 48.5t45.5 144.5q0 88 -40.5 136.5t-118.5 48.5q-67 0 -113.5 -47.5t-46.5 -138.5q0 -92 42 -142t119 -50z
M297 595q-18 0 -31 12.5t-13 31.5q0 18 13 31t31 13t31 -12.5t13 -31.5q0 -18 -13 -31t-31 -13z" />
    <glyph glyph-name="uniFED6" unicode="&#x642;" horiz-adv-x="888" arabic-form="final" 
d="M783 445v-394h120v-51h-120v-237q-143 -14 -288 -14q-227 0 -328 70.5t-101 229.5q0 98 25 193l66 13q-27 -102 -27 -198q0 -139 87 -198t286 -59q45 0 99 2.5t86 5.5l31 2v190h-115q-137 0 -198 60.5t-61 174.5q0 104 63.5 174.5t179.5 70.5q46 0 95 -9t75 -17zM720 51
v352q-56 26 -140 26q-78 0 -124 -50.5t-46 -136.5q0 -98 48.5 -144.5t156.5 -46.5h105zM514 573q-18 0 -30.5 12.5t-12.5 31.5q0 18 12.5 30.5t30.5 12.5q19 0 31.5 -12t12.5 -31q0 -18 -12.5 -31t-31.5 -13zM649 573q-18 0 -30.5 12.5t-12.5 31.5q0 18 12.5 30.5t30.5 12.5
t31 -12.5t13 -30.5t-13 -31t-31 -13z" />
    <glyph glyph-name="uniFED7" unicode="&#x642;" horiz-adv-x="612" arabic-form="initial" 
d="M516 0h-516v51h95l59 -3q-87 50 -87 187q0 104 64 174.5t179 70.5q101 0 153.5 -56t52.5 -164v-260zM453 51v194q0 97 -38.5 140.5t-111.5 43.5q-79 0 -124.5 -51t-45.5 -137q0 -98 48.5 -144t156.5 -46h115zM368 573q-18 0 -30.5 12.5t-12.5 31.5q0 18 12.5 30.5
t30.5 12.5t31 -12.5t13 -30.5t-13 -31t-31 -13zM233 573q-18 0 -30.5 12.5t-12.5 31.5q0 18 12.5 30.5t30.5 12.5q19 0 31.5 -12t12.5 -31q0 -18 -12.5 -31t-31.5 -13z" />
    <glyph glyph-name="uniFED8" unicode="&#x642;" horiz-adv-x="584" arabic-form="medial" 
d="M0 0v51h70l77 -2q-80 51 -80 190q0 102 63 171.5t171 69.5q96 0 156 -55.5t60 -177.5q0 -62 -24 -115t-68 -83q57 2 95 2h79v-51h-599zM294 51q67 0 112.5 48.5t45.5 144.5q0 88 -40.5 136.5t-118.5 48.5q-67 0 -113.5 -47.5t-46.5 -138.5q0 -92 42 -142t119 -50z
M364 573q-18 0 -30.5 12.5t-12.5 31.5q0 18 12.5 30.5t30.5 12.5t31 -12.5t13 -30.5t-13 -31t-31 -13zM229 573q-18 0 -30.5 12.5t-12.5 31.5q0 18 12.5 30.5t30.5 12.5q19 0 31.5 -12t12.5 -31q0 -18 -12.5 -31t-31.5 -13z" />
    <glyph glyph-name="uniFEDA" unicode="&#x643;" horiz-adv-x="847" arabic-form="final" 
d="M409 0q-177 0 -257 70t-80 217q0 100 36 174l68 12q-41 -82 -41 -177q0 -127 61.5 -186t222.5 -59h262v654h63v-654h117v-51h-452zM318 406v43q47 0 79 -5q-16 6 -25 22t-9 32q0 37 29 64t87 27q20 0 50 -4l-7 -43q-24 4 -48 4q-60 0 -60 -46q0 -51 83 -51h52v-43h-231z
" />
    <glyph glyph-name="uniFEDB" unicode="&#x643;" horiz-adv-x="488" arabic-form="initial" 
d="M0 0v51h339q-1 165 -66 251.5t-209 132.5v48l368 231v-65l-292 -181q134 -54 198 -152t64 -277v-39h-402z" />
    <glyph glyph-name="uniFEDC" unicode="&#x643;" horiz-adv-x="488" arabic-form="medial" 
d="M0 0v51h339q-1 165 -66 251.5t-209 132.5v48l368 231v-65l-292 -181q87 -35 142 -85t87 -132.5t33 -199.5h101v-51h-503z" />
    <glyph glyph-name="uniFEDE" unicode="&#x644;" horiz-adv-x="636" arabic-form="final" 
d="M471 40v665h64v-654h116v-51h-118q-11 -119 -73.5 -175t-156.5 -56q-48 0 -89 14t-75 45t-53.5 86t-19.5 130q0 103 25 198l66 13q-27 -102 -27 -205q0 -126 52.5 -178t129.5 -52q71 0 115 51.5t44 168.5z" />
    <glyph glyph-name="uniFEDF" unicode="&#x644;" horiz-adv-x="317" arabic-form="initial" 
d="M0 0v51h151v654h63v-705h-214z" />
    <glyph glyph-name="uniFEE0" unicode="&#x644;" horiz-adv-x="317" arabic-form="medial" 
d="M0 0v51h151v654h63v-654h118v-51h-332z" />
    <glyph glyph-name="uniFEE2" unicode="&#x645;" horiz-adv-x="794" arabic-form="final" 
d="M508 0q-133 0 -194.5 57.5t-63.5 165.5h-35q-60 0 -82 -38.5t-10 -118.5l52 -326h-62l-51 319q-16 101 23 158t135 57h32q11 90 73.5 148t166.5 58q101 0 153.5 -56t52.5 -164v-209h111v-51h-301zM635 51v194q0 97 -38.5 140.5t-111.5 43.5q-79 0 -125 -51t-46 -137
q0 -98 49 -144t157 -46h115z" />
    <glyph glyph-name="uniFEE3" unicode="&#x645;" horiz-adv-x="612" arabic-form="initial" 
d="M516 0h-516v51h95l59 -3q-87 50 -87 187q0 104 64 174.5t179 70.5q101 0 153.5 -56t52.5 -164v-260zM453 51v194q0 97 -38.5 140.5t-111.5 43.5q-79 0 -124.5 -51t-45.5 -137q0 -98 48.5 -144t156.5 -46h115z" />
    <glyph glyph-name="uniFEE4" unicode="&#x645;" horiz-adv-x="652" arabic-form="medial" 
d="M379 0q-104 0 -157 27t-79 79q-9 -46 -48 -76t-100 -30h-15v51q62 0 94.5 38.5t32.5 145.5q0 104 64 174.5t179 70.5q101 0 153.5 -56t52.5 -164v-209h111v-51h-288zM493 51v194q0 97 -38.5 140.5t-111.5 43.5q-79 0 -124.5 -51t-45.5 -137q0 -98 48.5 -144t156.5 -46
h115z" />
    <glyph glyph-name="uniFEE6" unicode="&#x646;" horiz-adv-x="658" arabic-form="final" 
d="M553 470v-419h120v-51h-122q-8 -115 -72 -173t-177 -58q-48 0 -89 14t-75.5 45t-54 86t-19.5 130q0 103 25 198l66 13q-27 -102 -27 -205q0 -66 16 -113t43.5 -71.5t57.5 -35t65 -10.5q179 0 179 213v437h64zM305 393q-18 0 -31 12.5t-13 31.5q0 18 13 31t31 13t31 -12.5
t13 -31.5q0 -18 -13 -31t-31 -13z" />
    <glyph glyph-name="uniFEE7" unicode="&#x646;" horiz-adv-x="311" arabic-form="initial" 
d="M183 594q-18 0 -31 12.5t-13 31.5q0 18 13 31t31 13t31 -12.5t13 -31.5q0 -18 -13 -31t-31 -13zM0 0v51h151v419h64v-470h-215z" />
    <glyph glyph-name="uniFEE8" unicode="&#x646;" horiz-adv-x="319" arabic-form="medial" 
d="M0 0v51h151v419h64v-419h119v-51h-334zM183 594q-18 0 -31 12.5t-13 31.5q0 18 13 31t31 13t31 -12.5t13 -31.5q0 -18 -13 -31t-31 -13z" />
    <glyph glyph-name="uniFEEA" unicode="&#x647;" horiz-adv-x="592" arabic-form="final" 
d="M607 0h-298q-138 0 -199 60.5t-61 174.5q0 104 64 174.5t180 70.5q46 0 95 -9t74 -17l26 -9v-394h119v-51zM425 51v352q-56 26 -140 26q-79 0 -124.5 -50.5t-45.5 -136.5q0 -99 48.5 -145t156.5 -46h105z" />
    <glyph glyph-name="uniFEEB" unicode="&#x647;" horiz-adv-x="764" arabic-form="initial" 
d="M682 0h-682v51h138h10t9.5 -0.5t8 -0.5h5.5h2q-4 2 -14 11t-22.5 35.5t-12.5 57.5q0 77 49.5 120.5t130.5 43.5q86 0 129 -57.5t43 -158.5v-51h143v26q0 204 -75.5 292t-236.5 88q-103 0 -212 -34l-7 49q114 35 229 35q182 0 273.5 -100.5t91.5 -322.5v-84zM415 51v45
q0 174 -116 174q-54 0 -83.5 -28.5t-29.5 -77.5q0 -57 35 -85t89 -28h105z" />
    <glyph glyph-name="uniFEEC" unicode="&#x647;" horiz-adv-x="764" arabic-form="medial" 
d="M0 0v51h138h10t9.5 -0.5t8 -0.5h5.5h2q-4 2 -14 11t-22.5 35.5t-12.5 57.5q0 77 49.5 120.5t130.5 43.5q86 0 129 -57.5t43 -158.5v-51h143v26q0 204 -75.5 292t-236.5 88q-103 0 -212 -34l-7 49q114 35 229 35q182 0 273.5 -100.5t91.5 -322.5v-33h97v-51h-779zM415 51
v45q0 174 -116 174q-54 0 -83.5 -28.5t-29.5 -77.5q0 -57 35 -85t89 -28h105z" />
    <glyph glyph-name="uniFEEE" unicode="&#x648;" horiz-adv-x="603" arabic-form="final" 
d="M223 -254q-35 0 -74.5 4t-62.5 8l-22 5l5 56q89 -22 163 -22q92 0 148 40.5t56 131.5v31h-116q-138 0 -199 60.5t-61 174.5q0 104 64 174.5t180 70.5q46 0 95 -9t75 -17l25 -9v-394h119v-51h-119v-31q0 -41 -14 -78.5t-44.5 -71t-86.5 -53.5t-131 -20zM436 51v352
q-56 26 -140 26q-79 0 -124.5 -50.5t-45.5 -136.5q0 -99 48.5 -145t156.5 -46h105z" />
    <glyph glyph-name="uniFEF0" unicode="&#x649;" horiz-adv-x="1000" arabic-form="final" 
d="M580 0h-171q-177 0 -257 70t-80 217q0 100 36 174l68 12q-41 -82 -41 -177q0 -127 61.5 -186t222.5 -59h98v410q83 19 168 19q117 0 168 -55t51 -162v-212h111v-51h-174v252q0 94 -39 135.5t-125 41.5q-21 0 -45 -2.5t-38 -4.5l-14 -3v-419z" />
    <glyph glyph-name="uniFEF2" unicode="&#x64a;" horiz-adv-x="1000" arabic-form="final" 
d="M580 0h-171q-177 0 -257 70t-80 217q0 100 36 174l68 12q-41 -82 -41 -177q0 -127 61.5 -186t222.5 -59h98v410q83 19 168 19q117 0 168 -55t51 -162v-212h111v-51h-174v252q0 94 -39 135.5t-125 41.5q-21 0 -45 -2.5t-38 -4.5l-14 -3v-419zM510 -149q0 -18 -13 -31
t-31 -13t-30.5 12.5t-12.5 31.5q0 18 12.5 31t30.5 13t31 -12.5t13 -31.5zM375 -149q0 -18 -12.5 -31t-31.5 -13q-18 0 -30.5 12.5t-12.5 31.5q0 18 12.5 31t30.5 13q19 0 31.5 -12.5t12.5 -31.5z" />
    <glyph glyph-name="uniFEF3" unicode="&#x64a;" horiz-adv-x="370" arabic-form="initial" 
d="M0 0v51h210v419h63v-470h-273zM263 -149q0 -18 -13 -31t-31 -13t-30.5 12.5t-12.5 31.5q0 18 12.5 31t30.5 13t31 -12.5t13 -31.5zM128 -149q0 -18 -12.5 -31t-31.5 -13q-18 0 -30.5 12.5t-12.5 31.5q0 18 12.5 31t30.5 13q19 0 31.5 -12.5t12.5 -31.5z" />
    <glyph glyph-name="uniFEF4" unicode="&#x64a;" horiz-adv-x="368" arabic-form="medial" 
d="M0 0v51h151v419h64v-419h167v-51h-382zM128 -149q0 -18 -12.5 -31t-31.5 -13q-18 0 -30.5 12.5t-12.5 31.5q0 18 12.5 31t30.5 13q19 0 31.5 -12.5t12.5 -31.5zM263 -149q0 -18 -13 -31t-31 -13t-30.5 12.5t-12.5 31.5q0 18 12.5 31t30.5 13t31 -12.5t13 -31.5z" />
    <glyph glyph-name=".notdef" horiz-adv-x="550" 
d="M300 150h-150v250h50v-200h100v-50zM500 50h-450v450h450v-450zM350 350h-100v50h150v-250h-50v100h-100v50h100v50zM100 100h350v350h-350v-350z" />
    <glyph glyph-name=".null" 
 />
    <glyph glyph-name=".null" 
 />
    <glyph glyph-name="nonmarkingreturn" horiz-adv-x="333" 
 />
    <glyph glyph-name="CR" unicode="&#xd;" horiz-adv-x="500" 
 />
    <glyph glyph-name="space" unicode=" " horiz-adv-x="218" 
 />
    <glyph glyph-name="exclam" unicode="!" horiz-adv-x="318" 
d="M207 699l-12 -545h-51l-13 545h76zM217 40q0 -20 -14 -34t-34 -14t-34 14t-14 34t14 33.5t34 13.5t34 -13.5t14 -33.5z" />
    <glyph glyph-name="quotedbl" unicode="&#x22;" horiz-adv-x="338" 
d="M280 697l-12 -213h-46l-12 213h70zM129 697l-13 -213h-46l-12 213h71z" />
    <glyph glyph-name="numbersign" unicode="#" horiz-adv-x="573" 
d="M536 441h-102l-22 -200h100v-43h-105l-20 -198h-52l21 198h-169l-20 -198h-52l21 198h-100v43h104l22 200h-101v43h105l21 191h51l-20 -191h168l21 191h52l-21 -191h98v-43zM382 441h-168l-22 -200h168z" />
    <glyph glyph-name="dollar" unicode="$" horiz-adv-x="486" 
d="M425 173q0 -69 -44.5 -117.5t-124.5 -60.5v-136h-49v133q-70 1 -127 16l4 62q56 -23 133 -23q65 0 104.5 28t39.5 87q0 42 -30.5 69.5t-73.5 44.5t-86.5 36t-74 55.5t-30.5 91.5q0 64 44.5 108.5t118.5 52.5v109h50v-106q56 -1 107 -12l-4 -59q-59 18 -114 18
q-73 0 -106.5 -29.5t-33.5 -72.5q0 -40 30.5 -68t74 -45t87.5 -36.5t74.5 -56t30.5 -89.5z" />
    <glyph glyph-name="percent" unicode="%" horiz-adv-x="743" 
d="M694 151q0 -71 -38.5 -115t-106.5 -44q-135 0 -135 150q0 69 39 113.5t106 44.5q135 0 135 -149zM639 663l-494 -682l-43 29l494 683zM328 535q0 -71 -39 -115.5t-106 -44.5q-135 0 -135 151q0 69 39 113.5t106 44.5q135 0 135 -149zM637 145q0 109 -84 109
q-37 0 -59 -29t-22 -76q0 -56 20 -83.5t65 -27.5q35 0 57.5 30t22.5 77zM271 528q0 55 -20 82t-64 27q-37 0 -59 -29t-22 -76q0 -111 85 -111q36 0 58 30t22 77z" />
    <glyph glyph-name="ampersand" unicode="&#x26;" horiz-adv-x="794" 
d="M728 33l-40 -49q-79 54 -145 110q-112 -102 -268 -102q-99 0 -156 53t-57 139q0 66 37 116.5t111 107.5q-56 65 -77 105t-21 80q0 60 43 101t119 41q70 0 108.5 -36t38.5 -92q0 -51 -29.5 -97.5t-98.5 -100.5q123 -133 249 -234v-1q83 109 73 266h64q6 -177 -93 -301
q91 -71 142 -106zM358 599q0 38 -22.5 62t-68.5 24q-41 0 -67 -24.5t-26 -64.5q0 -54 85 -150q51 41 75 76.5t24 76.5zM501 128q-153 128 -256 244q-64 -49 -91.5 -91t-27.5 -88q0 -62 45 -105t117 -43q122 0 213 83z" />
    <glyph glyph-name="quotesingle" unicode="'" horiz-adv-x="187" 
d="M129 697l-13 -213h-46l-12 213h71z" />
    <glyph glyph-name="parenleft" unicode="(" horiz-adv-x="301" 
d="M274 -180l-46 -25q-84 134 -114.5 250.5t-30.5 237.5q0 261 146 494l43 -23q-128 -216 -128 -465q0 -259 130 -469z" />
    <glyph glyph-name="parenright" unicode=")" horiz-adv-x="301" 
d="M225 290q0 -262 -146 -495l-43 24q128 216 128 465q0 258 -129 469l46 24q84 -133 114 -250t30 -237z" />
    <glyph glyph-name="asterisk" unicode="*" horiz-adv-x="366" 
d="M315 538l-25 -44l-94 64l8 -114h-50l8 114l-95 -64l-24 43l104 50l-104 49l25 44l95 -64l-8 114h50l-8 -114l94 64l24 -43l-103 -49z" />
    <glyph glyph-name="plus" unicode="+" horiz-adv-x="550" 
d="M506 271h-202v-211h-60v211h-200v53h200v210h60v-210h202v-53z" />
    <glyph glyph-name="comma" unicode="," horiz-adv-x="208" 
d="M101 88q35 0 45 -38q16 -62 -52 -147q-18 -22 -41 -44l-29 25q29 31 42.5 59.5t12.5 46.5t-10 31q-16 22 -4.5 44.5t36.5 22.5z" />
    <glyph glyph-name="hyphen" unicode="-" horiz-adv-x="327" 
d="M278 268h-229v52h229v-52z" />
    <glyph glyph-name="hyphen" unicode="&#xad;" horiz-adv-x="327" 
d="M278 268h-229v52h229v-52z" />
    <glyph glyph-name="period" unicode="." horiz-adv-x="208" 
d="M152 41q0 -20 -14 -34.5t-34 -14.5t-34 14.5t-14 34.5t14 34t34 14t34 -14t14 -34z" />
    <glyph glyph-name="slash" unicode="/" horiz-adv-x="420" 
d="M421 757l-350 -918h-59l350 918h59z" />
    <glyph glyph-name="zero" unicode="0" horiz-adv-x="583" 
d="M526 343q0 -173 -67 -262t-175 -89q-227 0 -227 340q0 173 67 262t175 89q227 0 227 -340zM459 335q0 296 -167 296q-76 0 -122 -70.5t-46 -220.5q0 -295 167 -295q76 0 122 70.5t46 219.5z" />
    <glyph glyph-name="one" unicode="1" horiz-adv-x="347" 
d="M244 0h-66v612l-135 -54l-12 59l159 58h54v-675z" />
    <glyph glyph-name="two" unicode="2" horiz-adv-x="502" 
d="M449 0h-381v51l144 168q82 95 112 155t30 123q0 58 -33.5 95.5t-98.5 37.5q-67 0 -138 -43l-9 57q76 39 162 39t135.5 -49.5t49.5 -127.5q0 -72 -37 -141t-131 -179l-110 -129v-1q80 3 305 3v-59z" />
    <glyph glyph-name="three" unicode="3" horiz-adv-x="500" 
d="M428 198q0 -88 -71.5 -146.5t-180.5 -58.5q-65 0 -107 10l9 59q39 -14 103 -14q82 0 130.5 41.5t48.5 104.5t-51.5 99t-145.5 36q-28 0 -58 -3v52q228 -6 228 142q0 53 -33 82t-90 29q-63 0 -122 -32l-5 56q68 28 137 28q90 0 135 -43t45 -111q0 -58 -31.5 -101.5
t-86.5 -64.5v-2q65 -13 105.5 -56t40.5 -107z" />
    <glyph glyph-name="four" unicode="4" horiz-adv-x="537" 
d="M515 164h-121v-164h-62v164h-311l-4 49l292 462h85v-452h121v-59zM332 222v391h-1l-249 -394q70 3 250 3z" />
    <glyph glyph-name="five" unicode="5" horiz-adv-x="464" 
d="M424 219q0 -100 -72.5 -163t-185.5 -63q-56 0 -100 10l8 59q42 -14 99 -14q84 0 134 43.5t50 116.5q0 72 -52.5 107.5t-164.5 35.5q-33 0 -51 -1v325h295v-61h-235v-210q140 1 207.5 -47.5t67.5 -137.5z" />
    <glyph glyph-name="six" unicode="6" horiz-adv-x="575" 
d="M519 221q0 -97 -63 -163t-162 -66q-56 0 -98 21t-64.5 51t-35.5 72.5t-16.5 75t-3.5 68.5q0 204 93.5 303.5t241.5 99.5q30 0 48 -2v-57q-23 4 -56 4q-108 0 -170.5 -59.5t-83.5 -183.5q-6 -40 -8 -48l1 -1q24 37 70 61.5t105 24.5q92 0 147 -55t55 -146zM454 210
q0 72 -39.5 115.5t-110.5 43.5q-69 0 -112.5 -44t-43.5 -106q0 -79 41 -127t112 -48q66 0 109.5 46t43.5 120z" />
    <glyph glyph-name="seven" unicode="7" horiz-adv-x="452" 
d="M420 620q-63 -133 -122 -304t-92 -316h-72q40 159 102 332t114 283q-27 -2 -323 -2v62h393v-55z" />
    <glyph glyph-name="eight" unicode="8" horiz-adv-x="547" 
d="M478 167q0 -81 -60.5 -128.5t-153.5 -47.5q-96 0 -147.5 45.5t-51.5 117.5q0 59 39 102.5t109 88.5q-70 39 -103.5 80t-33.5 94q0 75 55.5 121.5t148.5 46.5q85 0 134.5 -43.5t49.5 -111.5q0 -55 -36.5 -95t-104.5 -84q75 -41 115 -84.5t40 -101.5zM398 526
q0 48 -33 78.5t-92 30.5q-60 0 -96 -30t-36 -78q0 -43 32 -76t99 -70q69 43 97.5 75t28.5 70zM410 157q0 28 -11 51t-35.5 43.5t-44 33.5t-55.5 33q-64 -40 -97.5 -75t-33.5 -82q0 -53 37.5 -84.5t102.5 -31.5q59 0 98 29.5t39 82.5z" />
    <glyph glyph-name="nine" unicode="9" horiz-adv-x="583" 
d="M506 395q0 -205 -92 -304t-241 -99q-41 0 -76 5v61q43 -10 85 -10q106 0 167 58.5t82 180.5q6 40 9 50l-1 1q-24 -37 -70 -61.5t-104 -24.5q-92 0 -147 55t-55 146q0 97 63 163.5t162 66.5q57 0 99 -21.5t64 -51t35 -72.5t16.5 -75t3.5 -68zM434 455q0 80 -41 128
t-112 48q-66 0 -109.5 -46t-43.5 -121q0 -71 39.5 -114.5t110.5 -43.5q69 0 112.5 44t43.5 105z" />
    <glyph glyph-name="colon" unicode=":" horiz-adv-x="278" 
d="M204 340q0 -20 -14 -34t-34 -14t-34 14t-14 34t14 34t34 14t34 -14t14 -34zM204 41q0 -20 -14 -34.5t-34 -14.5t-34 14.5t-14 34.5t14 34t34 14t34 -14t14 -34z" />
    <glyph glyph-name="semicolon" unicode=";" horiz-adv-x="278" 
d="M204 340q0 -20 -14 -34t-34 -14t-34 14t-14 34t14 34t34 14t34 -14t14 -34zM155 88q35 0 45 -38q16 -62 -52 -147q-18 -22 -41 -44l-29 25q29 31 42 59.5t12.5 46.5t-9.5 31q-16 22 -5 44.5t37 22.5z" />
    <glyph glyph-name="semicolon" unicode="&#x37e;" horiz-adv-x="278" 
d="M204 340q0 -20 -14 -34t-34 -14t-34 14t-14 34t14 34t34 14t34 -14t14 -34zM155 88q35 0 45 -38q16 -62 -52 -147q-18 -22 -41 -44l-29 25q29 31 42 59.5t12.5 46.5t-9.5 31q-16 22 -5 44.5t37 22.5z" />
    <glyph glyph-name="less" unicode="&#x3c;" horiz-adv-x="550" 
d="M432 72l-40 -43l-314 275l314 275l40 -39l-273 -235z" />
    <glyph glyph-name="equal" unicode="=" horiz-adv-x="550" 
d="M493 349h-436v53h436v-53zM493 192h-436v54h436v-54z" />
    <glyph glyph-name="greater" unicode="&#x3e;" horiz-adv-x="550" 
d="M472 304l-314 -275l-40 39l273 235l-273 233l40 43z" />
    <glyph glyph-name="question" unicode="?" horiz-adv-x="441" 
d="M372 519q0 -38 -15.5 -70t-37 -52.5t-45 -45.5t-40.5 -49t-22.5 -62.5t9.5 -85.5h-62q-17 64 -9.5 103t32.5 73.5t51.5 57.5t47.5 56t21 68q0 53 -57.5 92t-148.5 43l8 58q119 -5 193.5 -58.5t74.5 -127.5zM238 40q0 -20 -14 -34t-34 -14t-33.5 14t-13.5 34t13.5 33.5
t33.5 13.5t34 -13.5t14 -33.5z" />
    <glyph glyph-name="at" unicode="@" horiz-adv-x="984" 
d="M885 401q0 -127 -61.5 -199.5t-154.5 -72.5q-62 0 -89 35.5t-18 82.5h-3q-11 -37 -57.5 -77.5t-98.5 -40.5q-95 0 -95 128q0 116 58 193t163 77q63 0 122 -11l-41 -223q-20 -110 71 -110q64 0 104.5 57t40.5 157q0 55 -17.5 104t-52 90t-95.5 65.5t-140 24.5
q-156 0 -263.5 -110.5t-107.5 -278.5q0 -151 86 -239t240 -88q88 0 164 24l9 -54q-82 -25 -181 -25q-175 0 -276.5 101t-101.5 271q0 128 60 231.5t159.5 160.5t216.5 57q88 0 158.5 -27.5t113 -74t65 -105t22.5 -123.5zM586 472q-27 7 -69 7q-49 0 -85 -36t-50.5 -81.5
t-14.5 -90.5q0 -86 51 -86q46 0 90.5 60t65.5 169z" />
    <glyph glyph-name="A" unicode="A" horiz-adv-x="608" 
d="M592 0h-74l-61 172h-311l-63 -172h-67l254 675h69zM438 224l-106 291q-20 55 -30 90h-1q-12 -37 -30 -88l-107 -293h274z" />
    <glyph glyph-name="B" unicode="B" horiz-adv-x="563" 
d="M504 198q0 -27 -7 -53t-25 -53.5t-45.5 -48t-73.5 -33.5t-104 -13l-153 3v675q17 0 75 1t103 1q105 0 157 -42t52 -116q0 -57 -33.5 -100t-93.5 -62v-1q68 -7 108 -49.5t40 -108.5zM417 508q0 118 -154 118q-41 0 -103 -2v-249q22 -1 68 -1q93 0 141 34.5t48 99.5z
M438 192q0 133 -210 133q-50 0 -68 -1v-269q40 -6 97 -6q91 0 136 39.5t45 103.5z" />
    <glyph glyph-name="C" unicode="C" horiz-adv-x="595" 
d="M548 32q-90 -39 -194 -39q-149 0 -225.5 87t-76.5 244q0 161 80 259.5t245 98.5q84 0 161 -23l-12 -59q-79 28 -163 28q-122 0 -182 -82t-60 -211q0 -138 62.5 -212t189.5 -74q86 0 162 38z" />
    <glyph glyph-name="D" unicode="D" horiz-adv-x="686" 
d="M634 343q0 -169 -104 -257.5t-276 -88.5q-33 0 -84.5 2t-73.5 1v675q24 0 89 1.5t100 1.5q169 0 259 -83.5t90 -251.5zM567 339q0 287 -290 287q-30 0 -117 -3v-566q53 -7 103 -7q141 0 222.5 72t81.5 217z" />
    <glyph glyph-name="E" unicode="E" horiz-adv-x="508" 
d="M429 0h-333v675h333v-52h-269v-249h256v-51h-256v-270h269v-53z" />
    <glyph glyph-name="F" unicode="F" horiz-adv-x="471" 
d="M428 623h-268v-250h254v-52h-254v-321h-64v675h332v-52z" />
    <glyph glyph-name="G" unicode="G" horiz-adv-x="687" 
d="M597 29q-101 -37 -217 -37q-155 0 -243.5 88t-88.5 245q0 159 91.5 258.5t262.5 99.5q91 0 184 -29l-15 -58q-84 34 -178 34q-72 0 -126.5 -24.5t-86.5 -66.5t-48 -93t-16 -110q0 -139 73 -214.5t201 -75.5q74 0 143 22v269h64v-308z" />
    <glyph glyph-name="H" unicode="H" horiz-adv-x="706" 
d="M610 0h-64v324h-386v-324h-64v675h64v-298h386v298h64v-675z" />
    <glyph glyph-name="I" unicode="I" horiz-adv-x="256" 
d="M160 0h-64v675h64v-675z" />
    <glyph glyph-name="J" unicode="J" horiz-adv-x="325" 
d="M230 167q0 -87 -38 -130t-122 -43q-31 0 -69 8v59q37 -13 74 -13q47 0 68.5 26.5t21.5 98.5v502h65v-508z" />
    <glyph glyph-name="K" unicode="K" horiz-adv-x="575" 
d="M555 0h-91l-304 342v-342h-64v675h64v-327l304 327h81l-312 -327z" />
    <glyph glyph-name="L" unicode="L" horiz-adv-x="425" 
d="M418 0h-322v675h64v-622h258v-53z" />
    <glyph glyph-name="M" unicode="M" horiz-adv-x="895" 
d="M834 0h-67l-63 438q-13 95 -22 171h-2q-13 -53 -32 -107l-170 -502h-77l-161 471q-20 57 -42 138h-1q-5 -63 -18 -178l-52 -431h-66l94 675h84l164 -481q22 -65 39 -129h1q25 88 37 121l167 489h88z" />
    <glyph glyph-name="N" unicode="N" horiz-adv-x="714" 
d="M618 0h-87l-301 476q-52 84 -78 135q7 -142 7 -419v-192h-63v675h86l298 -470q45 -70 81 -137q-7 222 -7 433v174h64v-675z" />
    <glyph glyph-name="O" unicode="O" horiz-adv-x="706" 
d="M658 345q0 -165 -89.5 -259t-224.5 -94q-146 0 -221 91t-75 247q0 165 89.5 259t223.5 94q146 0 221.5 -91t75.5 -247zM589 332q0 135 -60.5 216t-175.5 81q-99 0 -167.5 -77t-68.5 -208q0 -136 60 -216.5t176 -80.5q100 0 168 76.5t68 208.5z" />
    <glyph glyph-name="P" unicode="P" horiz-adv-x="520" 
d="M481 489q0 -99 -67.5 -159.5t-180.5 -60.5l-73 4v-273h-64v675q85 3 155 3q109 0 169.5 -51.5t60.5 -137.5zM414 478q0 147 -175 147l-79 -2v-294q37 -6 81 -6q85 0 129 41.5t44 113.5z" />
    <glyph glyph-name="Q" unicode="Q" horiz-adv-x="705" 
d="M706 -67q-56 -6 -102 1.5t-73 20.5t-70.5 25t-92.5 12h-24q-146 0 -221 91t-75 247q0 165 89.5 259t223.5 94q146 0 221.5 -91t75.5 -247q0 -114 -46.5 -198.5t-134.5 -118.5q29 0 99 -21.5t130 -14.5v-59zM589 332q0 135 -60.5 216t-175.5 81q-99 0 -167.5 -77
t-68.5 -208q0 -136 60 -216.5t176 -80.5q99 0 167.5 77t68.5 208z" />
    <glyph glyph-name="R" unicode="R" horiz-adv-x="544" 
d="M507 0h-85l-249 319h-13v-319h-64v675q61 3 151 3q218 0 218 -166q0 -89 -64 -139t-157 -52q37 -41 61 -70zM398 501q0 68 -42 97t-127 29q-36 0 -69 -3v-254q24 -2 65 -2q81 0 127 36.5t46 96.5z" />
    <glyph glyph-name="S" unicode="S" horiz-adv-x="504" 
d="M446 191q0 -89 -66 -144t-176 -55q-80 0 -143 19l11 63q68 -26 137 -26q75 0 122.5 33t47.5 102q0 46 -33 76t-80.5 48t-94.5 38t-80 58.5t-33 96.5q0 81 59 132t164 51q63 0 121 -13l-8 -58q-59 18 -117 18q-76 0 -115 -33t-39 -90q0 -45 33.5 -74.5t80.5 -47
t94.5 -37.5t81 -59t33.5 -98z" />
    <glyph glyph-name="T" unicode="T" horiz-adv-x="520" 
d="M501 622h-209v-622h-64v622h-209v53h482v-53z" />
    <glyph glyph-name="U" unicode="U" horiz-adv-x="701" 
d="M605 255q0 -129 -66 -196t-197 -67q-60 0 -105 13.5t-71.5 34.5t-42.5 52.5t-21.5 62t-5.5 67.5v453h64v-446q0 -41 8 -72t28 -57.5t58 -41t94 -14.5q100 0 147 47t47 158v426h63v-420z" />
    <glyph glyph-name="V" unicode="V" horiz-adv-x="610" 
d="M592 675l-257 -675h-69l-250 675h74l164 -462q28 -76 48 -143h1q20 68 51 149l171 456h67z" />
    <glyph glyph-name="W" unicode="W" horiz-adv-x="953" 
d="M911 675l-181 -675h-81l-149 512q-10 34 -26 101h-1q-7 -47 -24 -102l-144 -511h-81l-183 675h69l129 -487q19 -74 29 -125h1q14 72 28 119l140 493h80l147 -501q17 -57 27 -111h1q8 48 22 96l134 516h63z" />
    <glyph glyph-name="X" unicode="X" horiz-adv-x="578" 
d="M556 0h-80l-191 301l-189 -301h-74l226 349l-212 326h75l175 -275l173 275h73l-209 -320z" />
    <glyph glyph-name="Y" unicode="Y" horiz-adv-x="519" 
d="M505 675l-216 -429v-246h-64v246l-211 429h71l120 -251q29 -59 54 -122h1q14 37 60 132l117 241h68z" />
    <glyph glyph-name="Z" unicode="Z" horiz-adv-x="540" 
d="M496 0h-449v45l311 481q32 50 64 94q-78 -2 -166 -2h-198v57h434v-46l-328 -505q-20 -33 -45 -68q24 2 184 2h193v-58z" />
    <glyph glyph-name="bracketleft" unicode="[" horiz-adv-x="318" 
d="M278 -195h-182v962h182v-47h-123v-866h123v-49z" />
    <glyph glyph-name="backslash" unicode="\" horiz-adv-x="415" 
d="M423 -161h-58l-350 918h58z" />
    <glyph glyph-name="bracketright" unicode="]" horiz-adv-x="318" 
d="M221 -195h-182v49h124v866h-124v47h182v-962z" />
    <glyph glyph-name="asciicircum" unicode="^" horiz-adv-x="550" 
d="M465 373l-49 -26l-154 278l-146 -278l-45 25l166 303h54z" />
    <glyph glyph-name="underscore" unicode="_" horiz-adv-x="550" 
d="M550 -251h-550v49h550v-49z" />
    <glyph glyph-name="grave" unicode="`" horiz-adv-x="366" 
d="M246 604l-36 -29l-121 138l48 36z" />
    <glyph glyph-name="a" unicode="a" horiz-adv-x="519" 
d="M424 0h-64q0 74 6 109l-2 1q-19 -51 -66 -84.5t-110 -33.5q-59 0 -97 35t-38 94q0 76 79.5 122t226.5 46v27q0 72 -26 105t-91 33q-73 0 -149 -37l-15 52q81 36 173 36t131.5 -44.5t39.5 -128.5v-178q0 -64 2 -154zM359 229v12q-130 0 -186 -31t-56 -79q0 -38 24 -62.5
t63 -24.5q67 0 111 56.5t44 128.5z" />
    <glyph glyph-name="b" unicode="b" horiz-adv-x="558" 
d="M510 271q0 -133 -68.5 -205t-184.5 -72q-86 0 -161 18v718h63v-261q0 -53 -9 -90l2 -1q21 60 67.5 93.5t106.5 33.5q89 0 136.5 -59.5t47.5 -174.5zM444 265q0 189 -128 189q-50 0 -87.5 -36t-53.5 -83t-16 -95v-181q42 -15 104 -15q85 0 133 54t48 167z" />
    <glyph glyph-name="c" unicode="c" horiz-adv-x="443" 
d="M414 23q-67 -29 -155 -29q-213 0 -213 237q0 126 60.5 199t172.5 73q77 0 132 -23l-14 -53q-65 25 -128 25q-73 0 -114.5 -57.5t-41.5 -150.5q0 -91 35 -144t124 -53q69 0 129 27z" />
    <glyph glyph-name="d" unicode="d" horiz-adv-x="556" 
d="M460 0h-64q0 68 9 114l-2 1q-20 -57 -66.5 -90t-106.5 -33q-91 0 -137.5 61.5t-46.5 172.5q0 133 68.5 205t184.5 72q44 0 98 -6v233h63v-730zM397 257v183q-52 13 -104 13q-85 0 -132.5 -54t-47.5 -167q0 -189 127 -189q50 0 87.5 36t53.5 83t16 95z" />
    <glyph glyph-name="e" unicode="e" horiz-adv-x="503" 
d="M452 306q0 -26 -2 -44h-337q-7 -216 171 -216q76 0 140 29l12 -53q-74 -30 -166 -30q-224 0 -224 255q0 114 58 186t157 72q96 0 143.5 -56.5t47.5 -142.5zM385 310q1 67 -33 106t-95 39q-56 0 -93.5 -38t-47.5 -107h269z" />
    <glyph glyph-name="f" unicode="f" horiz-adv-x="346" 
d="M387 726l-6 -54q-36 11 -81 11q-61 0 -89 -36.5t-28 -113.5v-36h153v-50h-153v-447h-63v447h-114v50h114v34q0 102 48.5 153t136.5 51q41 0 82 -9z" />
    <glyph glyph-name="g" unicode="g" horiz-adv-x="537" 
d="M506 -76q0 -79 -72 -131t-184 -52q-94 0 -150 39.5t-56 109.5q0 87 89 139q-50 21 -50 73q0 53 53 80q-73 44 -73 139q0 77 55 130.5t150 53.5q25 0 63 -8h169v-50h-94q51 -38 51 -112q0 -79 -53.5 -130.5t-153.5 -51.5q-33 0 -63 9q-39 -17 -39 -49q0 -23 22 -32.5
t70 -11.5l101 -4q79 -3 122 -40t43 -101zM441 -85q0 90 -118 94l-104 4h-34q-76 -50 -76 -113q0 -50 43 -78.5t110 -28.5q84 0 131.5 34t47.5 88zM393 328q0 60 -34 94t-95 34q-64 0 -100.5 -36.5t-36.5 -92.5q0 -60 34.5 -92.5t97.5 -32.5q62 0 98 33.5t36 92.5z" />
    <glyph glyph-name="h" unicode="h" horiz-adv-x="579" 
d="M483 0h-63v322q0 66 -22.5 99t-78.5 33q-70 0 -115 -61t-45 -156v-237h-63v730h63v-251q0 -66 -8 -99l2 -1q22 59 69 92.5t111 33.5q150 0 150 -159v-346z" />
    <glyph glyph-name="i" unicode="i" horiz-adv-x="255" 
d="M173 658q0 -18 -13 -31.5t-32 -13.5t-32 13t-13 32t13 32t32 13t32 -13t13 -32zM159 0h-63v497h63v-497z" />
    <glyph glyph-name="j" unicode="j" horiz-adv-x="263" 
d="M181 658q0 -18 -13 -31.5t-32 -13.5t-32 13t-13 32t13 32t32 13t32 -13t13 -32zM167 -68q0 -102 -34.5 -146t-121.5 -44q-38 0 -67 9l7 57q33 -12 65 -12q53 0 70.5 26.5t17.5 105.5v569h63v-565z" />
    <glyph glyph-name="k" unicode="k" horiz-adv-x="473" 
d="M448 0h-84l-205 264v-264h-63v730h63v-459l196 226h76l-202 -226z" />
    <glyph glyph-name="l" unicode="l" horiz-adv-x="255" 
d="M159 0h-63v730h63v-730z" />
    <glyph glyph-name="m" unicode="m" horiz-adv-x="888" 
d="M792 0h-63v322q0 65 -21 98.5t-75 33.5q-65 0 -111.5 -60t-46.5 -159v-235h-63v323q0 62 -20 96.5t-76 34.5q-66 0 -111.5 -62t-45.5 -157v-235h-63v497h64q0 -68 -9 -116l2 -1q21 58 68.5 91.5t109.5 33.5q41 0 71 -13.5t43.5 -35t19 -39.5t5.5 -35q17 46 61 84.5
t114 38.5q147 0 147 -160v-345z" />
    <glyph glyph-name="n" unicode="n" horiz-adv-x="579" 
d="M483 0h-63v322q0 66 -22.5 99t-78.5 33q-70 0 -115 -61t-45 -156v-237h-63v497h64q0 -69 -9 -116l2 -1q21 58 68 91.5t112 33.5q150 0 150 -159v-346z" />
    <glyph glyph-name="o" unicode="o" horiz-adv-x="540" 
d="M495 256q0 -112 -64 -188t-170 -76q-102 0 -159 64t-57 191q0 109 62.5 183.5t170.5 74.5q96 0 156.5 -59.5t60.5 -189.5zM430 253q0 95 -40.5 148t-118.5 53q-67 0 -114 -52t-47 -150q0 -99 42.5 -153.5t119.5 -54.5q67 0 112.5 53t45.5 156z" />
    <glyph glyph-name="p" unicode="p" horiz-adv-x="558" 
d="M510 271q0 -133 -68 -204.5t-184 -71.5q-56 0 -99 6v-252h-63v748h64q0 -75 -9 -114l2 -1q21 57 67 90t106 33q89 0 136.5 -59.5t47.5 -174.5zM444 265q0 189 -128 189q-50 0 -87.5 -36t-53.5 -83t-16 -95v-181q42 -15 104 -15q85 0 133 54t48 167z" />
    <glyph glyph-name="q" unicode="q" horiz-adv-x="558" 
d="M462 -251h-63v282q0 49 7 83l-2 1q-20 -56 -66.5 -89.5t-105.5 -33.5q-88 0 -136 59.5t-48 174.5q0 133 68.5 205t187.5 72q77 0 158 -13v-741zM399 257v184q-51 13 -104 13q-85 0 -132.5 -54.5t-47.5 -167.5q0 -189 127 -189q73 0 115 68.5t42 145.5z" />
    <glyph glyph-name="r" unicode="r" horiz-adv-x="354" 
d="M329 504l-3 -61q-84 13 -125.5 -50t-41.5 -195v-198h-63v497h64q0 -66 -13 -130l2 -1q17 65 61 106.5t119 31.5z" />
    <glyph glyph-name="s" unicode="s" horiz-adv-x="431" 
d="M374 146q0 -66 -55.5 -110t-148.5 -44q-66 0 -111 13l9 60q51 -19 113 -19q56 0 92 25t36 66q0 35 -26 55t-63 29.5t-74 21t-63 41.5t-26 79q0 64 49 103t139 39q53 0 100 -11l-8 -54q-52 15 -101 15q-57 0 -86 -22.5t-29 -62.5q0 -35 26 -55.5t63.5 -30t74.5 -21
t63 -40.5t26 -77z" />
    <glyph glyph-name="t" unicode="t" horiz-adv-x="369" 
d="M334 3q-45 -10 -95 -10q-71 0 -97.5 33t-26.5 111v310h-114v50h114v168l62 17v-185h153v-50h-153v-279q0 -71 16 -95t63 -24q39 0 69 8z" />
    <glyph glyph-name="u" unicode="u" horiz-adv-x="579" 
d="M483 0h-64q0 70 9 116l-2 1q-21 -58 -68 -91.5t-112 -33.5q-150 0 -150 159v346h63v-322q0 -66 22.5 -99t78.5 -33q70 0 115 61t45 156v237h63v-497z" />
    <glyph glyph-name="v" unicode="v" horiz-adv-x="471" 
d="M459 497l-191 -497h-69l-187 497h72l124 -349q18 -52 27 -85h1q11 38 27 82l127 352h69z" />
    <glyph glyph-name="w" unicode="w" horiz-adv-x="791" 
d="M770 497l-163 -497h-75l-118 344q-16 47 -27 91h-1q-9 -36 -37 -125l-98 -310h-76l-155 497h72l92 -320q6 -23 17.5 -62t15.5 -54h1q12 50 33 116l103 320h76l104 -319q22 -66 36 -118h1q4 16 34 116l97 321h68z" />
    <glyph glyph-name="x" unicode="x" horiz-adv-x="512" 
d="M484 0h-85l-146 208l-146 -208h-80l191 248l-181 249h80l141 -203l145 203h73l-183 -245z" />
    <glyph glyph-name="y" unicode="y" horiz-adv-x="464" 
d="M452 497l-207 -548q-43 -115 -92.5 -161.5t-131.5 -46.5q-22 0 -50 6l7 58q24 -8 57 -8q47 0 80 30.5t65 111.5l24 61l-192 497h74l112 -306q28 -82 38 -115h1q9 34 50 151l96 270h69z" />
    <glyph glyph-name="z" unicode="z" horiz-adv-x="445" 
d="M391 0h-342v44l266 399q-68 -2 -149 -2h-112v56h332v-43l-264 -398q64 2 152 2h117v-58z" />
    <glyph glyph-name="braceleft" unicode="{" horiz-adv-x="326" 
d="M294 -195h-16q-74 0 -106 44t-32 132v203q0 57 -23.5 81t-86.5 28v52q65 4 87.5 26.5t22.5 81.5v139q0 175 138 175h16v-47q-54 0 -75 -27.5t-21 -96.5v-138q0 -119 -93 -138v-1q93 -15 93 -139v-203q0 -69 21 -96t75 -27v-49z" />
    <glyph glyph-name="bar" unicode="|" horiz-adv-x="283" 
d="M166 -251h-50v1000h50v-1000z" />
    <glyph glyph-name="braceright" unicode="}" horiz-adv-x="322" 
d="M303 293q-62 -4 -85.5 -28t-23.5 -81v-203q0 -88 -32 -132t-106 -44h-16v49q54 0 75 27t21 96v203q0 124 93 139v1q-93 13 -93 133v143q0 69 -21 96.5t-75 27.5v47h16q138 0 138 -175v-134q0 -63 22 -86t87 -27v-52z" />
    <glyph glyph-name="asciitilde" unicode="~" horiz-adv-x="550" 
d="M489 563q0 -61 -33 -99t-88 -38q-30 0 -53.5 11.5t-37.5 28.5l-27.5 34t-30.5 28.5t-39 11.5q-34 0 -51.5 -26t-18.5 -68h-47v4q0 61 33 99t88 38q30 0 53.5 -11.5t37.5 -28.5l27.5 -34t30.5 -28.5t39 -11.5q34 0 51.5 26t18.5 69h47v-5z" />
    <glyph glyph-name="uni00A0" unicode="&#xa0;" horiz-adv-x="218" 
 />
    <glyph glyph-name="exclamdown" unicode="&#xa1;" horiz-adv-x="318" 
d="M197 457q0 -19 -13.5 -33t-33.5 -14t-34 13.5t-14 33.5t14 34t34 14t33.5 -14t13.5 -34zM187 -202h-75l12 545h51z" />
    <glyph glyph-name="cent" unicode="&#xa2;" horiz-adv-x="457" 
d="M415 71q-52 -24 -118 -30v-109h-51v109q-96 8 -148.5 68t-52.5 168q0 97 54.5 162.5t146.5 76.5v91h51v-89q62 -2 115 -23l-5 -57q-53 28 -123 28q-81 0 -127.5 -50t-46.5 -137q0 -82 41 -133.5t132 -51.5q71 0 127 34z" />
    <glyph glyph-name="sterling" unicode="&#xa3;" horiz-adv-x="467" 
d="M435 0h-392v45q62 49 85 94t23 109q0 28 -7 88h-114v49h107q-13 93 -13 125q0 83 47 128t133 45q57 0 99 -14l-11 -55q-45 17 -95 17q-52 0 -81 -29t-29 -82q0 -45 14 -135h162v-49h-156q6 -48 6 -81q0 -71 -19.5 -114t-75.5 -90q45 5 98 5h219v-56z" />
    <glyph glyph-name="currency" unicode="&#xa4;" horiz-adv-x="550" 
d="M492 103l-44 -34l-83 111q-43 -29 -97 -29q-44 0 -78 16l-73 -98l-45 33l76 93q-43 48 -43 135q0 80 48 128l-80 99l43 33l76 -104q38 22 89 22q54 0 90 -22l79 104l42 -34l-83 -102q36 -41 36 -120q0 -75 -42 -122zM386 334q0 125 -115 125q-46 0 -76.5 -35t-30.5 -92
q0 -132 114 -132q44 0 76 37t32 97z" />
    <glyph glyph-name="yen" unicode="&#xa5;" horiz-adv-x="585" 
d="M540 675l-200 -397h156v-47h-172v-77h172v-47h-172v-107h-64v107h-171v47h171v77h-171v47h156l-196 397h71l120 -250q27 -54 53 -125h1q29 74 60 136l119 239h67z" />
    <glyph glyph-name="brokenbar" unicode="&#xa6;" horiz-adv-x="283" 
d="M166 381h-50v368h50v-368zM166 -251h-50v378h50v-378z" />
    <glyph glyph-name="section" unicode="&#xa7;" horiz-adv-x="513" 
d="M416 226q0 -79 -79 -139q39 -52 39 -104q0 -61 -43 -103.5t-120 -42.5q-39 0 -76 11l6 54q45 -13 75 -13q43 0 68 24.5t25 63.5q0 32 -23.5 67t-57.5 68.5l-67.5 69t-57 79t-23.5 87.5q0 79 79 140q-39 54 -39 104q0 62 41 102.5t117 40.5q38 0 70 -9l-6 -54
q-36 11 -68 11q-43 0 -66 -22.5t-23 -61.5q0 -32 23.5 -67.5t57.5 -69l67.5 -69t57 -79.5t23.5 -88zM354 218q0 30 -17 63t-34.5 53t-56 60t-51.5 55q-51 -34 -51 -92q0 -29 17.5 -62.5t33.5 -52.5t56.5 -61l52.5 -55q50 35 50 92z" />
    <glyph glyph-name="dieresis" unicode="&#xa8;" horiz-adv-x="546" 
d="M400 658q0 -18 -12.5 -30.5t-30.5 -12.5t-30.5 12.5t-12.5 30.5q0 19 12.5 31t30.5 12t30.5 -12t12.5 -31zM216 658q0 -18 -12.5 -30.5t-30.5 -12.5q-19 0 -31 12.5t-12 30.5q0 19 12 31t31 12q18 0 30.5 -12t12.5 -31z" />
    <glyph glyph-name="copyright" unicode="&#xa9;" horiz-adv-x="752" 
d="M705 337q0 -137 -97 -234t-234 -97q-141 0 -236.5 95t-95.5 234q0 137 97 233.5t235 96.5t234.5 -95.5t96.5 -232.5zM652 335q0 115 -81.5 198t-196.5 83q-116 0 -197 -81.5t-81 -197.5t81.5 -199t196.5 -83t196.5 82t81.5 198zM471 174q-43 -15 -96 -15
q-82 0 -119.5 46.5t-37.5 124.5q0 79 42 131.5t131 52.5q39 0 77 -12l-4 -49q-37 16 -78 16q-110 0 -110 -135q0 -128 106 -128q45 0 84 15z" />
    <glyph glyph-name="ordfeminine" unicode="&#xaa;" horiz-adv-x="378" 
d="M305 356h-58q0 34 5 56l-2 1q-9 -24 -38.5 -43.5t-62.5 -19.5q-47 0 -70.5 21t-23.5 58q0 52 50.5 84.5t143.5 31.5v21q0 69 -70 69q-53 0 -102 -26l-4 52q50 21 114 21q63 0 90 -30.5t27 -77.5v-129q0 -78 1 -89zM334 237h-272v50h272v-50zM249 496v9q-137 0 -137 -67
q0 -19 12.5 -30t34.5 -11q43 0 66.5 34.5t23.5 64.5z" />
    <glyph glyph-name="guillemotleft" unicode="&#xab;" horiz-adv-x="492" 
d="M409 154l-47 -28l-125 168l126 171l45 -28l-105 -142zM226 154l-47 -29l-116 169l118 172l45 -28l-97 -143z" />
    <glyph glyph-name="logicalnot" unicode="&#xac;" horiz-adv-x="550" 
d="M477 109h-54v162h-379v53h433v-215z" />
    <glyph glyph-name="registered" unicode="&#xae;" horiz-adv-x="561" 
d="M491 527q0 -85 -62.5 -147.5t-148.5 -62.5q-89 0 -149.5 61t-60.5 149q0 87 61.5 149t148.5 62q89 0 150 -61t61 -150zM443 526q0 68 -47.5 117.5t-115.5 49.5t-115.5 -48t-47.5 -116t48 -117.5t115 -49.5q68 0 115.5 48t47.5 116zM369 413h-50l-64 102h-3v-102h-40v232
h70q77 0 77 -59q0 -29 -16.5 -46.5t-44.5 -20.5q5 -6 23 -32zM317 581q0 32 -39 32h-26v-71h16q49 0 49 39z" />
    <glyph glyph-name="macron" unicode="&#xaf;" horiz-adv-x="395" 
d="M317 629h-239v48h239v-48z" />
    <glyph glyph-name="macron" unicode="&#x2c9;" horiz-adv-x="395" 
d="M317 629h-239v48h239v-48z" />
    <glyph glyph-name="degree" unicode="&#xb0;" horiz-adv-x="367" 
d="M304 616q0 -52 -37.5 -85t-87.5 -33q-54 0 -86 31.5t-32 84.5q0 54 37 87t86 33q58 0 89 -33.5t31 -84.5zM251 615q0 30 -16 53t-53 23q-29 0 -48.5 -21t-19.5 -54q0 -35 18.5 -55t48.5 -20t50 21t20 53z" />
    <glyph glyph-name="plusminus" unicode="&#xb1;" horiz-adv-x="550" 
d="M506 328h-201v-206h-60v206h-201v53h201v204h60v-204h201v-53zM505 0h-460v53h460v-53z" />
    <glyph glyph-name="twosuperior" unicode="&#xb2;" horiz-adv-x="346" 
d="M307 368h-265v45l108 107q75 76 75 134q0 38 -20 60t-59 22q-48 0 -89 -25l-10 45q52 28 111 28q61 0 95 -33t34 -87q0 -81 -85 -163l-83 -82q49 2 188 2v-53z" />
    <glyph glyph-name="threesuperior" unicode="&#xb3;" horiz-adv-x="335" 
d="M285 490q0 -57 -47 -93t-119 -36q-33 0 -78 9l8 51q36 -12 78 -12q45 0 70.5 21t25.5 55q0 40 -39 59t-115 10v47q70 0 104.5 17.5t34.5 58.5q0 60 -73 60q-39 0 -80 -18l-7 47q49 18 99 18q56 0 89 -26t33 -74q0 -74 -72 -97q40 -7 64 -34t24 -63z" />
    <glyph glyph-name="acute" unicode="&#xb4;" horiz-adv-x="385" 
d="M274 713l-122 -138l-35 29l110 145z" />
    <glyph glyph-name="mu" unicode="&#xb5;" horiz-adv-x="589" 
d="M546 -5q-12 -1 -29 -1q-100 0 -89 122h-1q-21 -57 -67.5 -90.5t-109.5 -33.5q-70 0 -97 42l8 -285h-65v748h63v-332q0 -122 101 -122q71 0 115.5 61t44.5 156v237h63v-330q0 -76 12.5 -98t50.5 -22v-52z" />
    <glyph glyph-name="mu" unicode="&#x3bc;" horiz-adv-x="589" 
d="M546 -5q-12 -1 -29 -1q-100 0 -89 122h-1q-21 -57 -67.5 -90.5t-109.5 -33.5q-70 0 -97 42l8 -285h-65v748h63v-332q0 -122 101 -122q71 0 115.5 61t44.5 156v237h63v-330q0 -76 12.5 -98t50.5 -22v-52z" />
    <glyph glyph-name="paragraph" unicode="&#xb6;" horiz-adv-x="563" 
d="M495 628h-74v-724h-137v47h76v724h135v-47zM286 260q-102 -1 -157 59t-55 151q0 88 59 146.5t153 58.5v-415z" />
    <glyph glyph-name="periodcentered" unicode="&#xb7;" horiz-adv-x="209" 
d="M156 297q0 -22 -15 -36.5t-36 -14.5q-22 0 -36.5 14.5t-14.5 36.5t14.5 36.5t36.5 14.5q21 0 36 -14.5t15 -36.5z" />
    <glyph glyph-name="periodcentered" unicode="&#x2219;" horiz-adv-x="209" 
d="M156 297q0 -22 -15 -36.5t-36 -14.5q-22 0 -36.5 14.5t-14.5 36.5t14.5 36.5t36.5 14.5q21 0 36 -14.5t15 -36.5z" />
    <glyph glyph-name="cedilla" unicode="&#xb8;" horiz-adv-x="400" 
d="M260 -41q36 -51 29.5 -95.5t-51.5 -99.5h-56q29 37 40.5 63t7.5 51.5t-27 53.5z" />
    <glyph glyph-name="onesuperior" unicode="&#xb9;" horiz-adv-x="262" 
d="M182 368h-60v352l-93 -37l-11 52l116 42h48v-409z" />
    <glyph glyph-name="ordmasculine" unicode="&#xba;" horiz-adv-x="415" 
d="M356 522q0 -76 -44 -123.5t-115 -47.5q-143 0 -143 167q0 71 43 118t111 47q27 0 51 -7t47 -23.5t36.5 -50t13.5 -80.5zM342 237h-273v50h273v-50zM293 522q0 46 -20.5 78t-66.5 32q-38 0 -64 -28.5t-26 -85.5q0 -116 86 -116q42 0 66.5 30t24.5 90z" />
    <glyph glyph-name="guillemotright" unicode="&#xbb;" horiz-adv-x="492" 
d="M429 297l-119 -172l-45 28l98 143l-97 141l47 29zM254 297l-127 -171l-45 27l106 143l-104 140l46 29z" />
    <glyph glyph-name="onequarter" unicode="&#xbc;" horiz-adv-x="801" 
d="M182 368h-60v352l-93 -37l-11 52l116 42h48v-409zM718 770l-630 -904l-44 30l630 904zM758 -6h-70v-96h-57v96h-194l-4 40l173 273h82v-263h70v-50zM631 44v216l-138 -218q38 2 138 2z" />
    <glyph glyph-name="onehalf" unicode="&#xbd;" horiz-adv-x="833" 
d="M718 770l-630 -904l-44 30l630 904zM182 368h-60v352l-93 -37l-11 52l116 42h48v-409zM779 -102h-265v45l109 107q74 75 74 134q0 38 -20 60t-59 22q-47 0 -88 -25l-11 45q54 28 111 28q61 0 95 -33t34 -87q0 -81 -85 -163l-83 -82q49 2 188 2v-53z" />
    <glyph glyph-name="threequarters" unicode="&#xbe;" horiz-adv-x="823" 
d="M741 770l-631 -904l-44 30l630 904zM285 490q0 -57 -47 -93t-119 -36q-33 0 -78 9l8 51q36 -12 78 -12q45 0 70.5 21t25.5 55q0 40 -39 59t-115 10v47q70 0 104.5 17.5t34.5 58.5q0 60 -73 60q-39 0 -80 -18l-7 47q49 18 99 18q56 0 89 -26t33 -74q0 -74 -72 -97
q40 -7 64 -34t24 -63zM781 -6h-70v-96h-58v96h-193l-5 40l173 273h83v-263h70v-50zM653 44v216l-137 -218q37 2 137 2z" />
    <glyph glyph-name="questiondown" unicode="&#xbf;" horiz-adv-x="441" 
d="M299 457q0 -20 -14 -33.5t-34 -13.5t-34 13.5t-14 33.5t14 34t34 14t34 -14t14 -34zM346 -150l-8 -58q-119 5 -193.5 58.5t-74.5 127.5q0 38 15.5 70t37 52.5t45 45.5t40 49t22 62.5t-9.5 85.5h62q17 -64 9.5 -103t-32.5 -73.5t-51.5 -57.5t-47.5 -56t-21 -68
q0 -53 57.5 -92t149.5 -43z" />
    <glyph glyph-name="Agrave" unicode="&#xc0;" horiz-adv-x="608" 
d="M592 0h-74l-61 172h-311l-63 -172h-67l254 675h69zM438 224l-106 291q-20 55 -30 90h-1q-12 -37 -30 -88l-107 -293h274zM355 770l-15 -38l-171 58l23 54z" />
    <glyph glyph-name="Aacute" unicode="&#xc1;" horiz-adv-x="608" 
d="M592 0h-74l-61 172h-311l-63 -172h-67l254 675h69zM438 224l-106 291q-20 55 -30 90h-1q-12 -37 -30 -88l-107 -293h274zM430 790l-172 -58l-15 38l164 74z" />
    <glyph glyph-name="Acircumflex" unicode="&#xc2;" horiz-adv-x="608" 
d="M592 0h-74l-61 172h-311l-63 -172h-67l254 675h69zM438 224l-106 291q-20 55 -30 90h-1q-12 -37 -30 -88l-107 -293h274zM457 772l-24 -42l-134 64l-129 -64l-20 39l152 83z" />
    <glyph glyph-name="Atilde" unicode="&#xc3;" horiz-adv-x="608" 
d="M592 0h-74l-61 172h-311l-63 -172h-67l254 675h69zM438 224l-106 291q-20 55 -30 90h-1q-12 -37 -30 -88l-107 -293h274zM476 807q-40 -67 -103 -67q-36 0 -76 28t-60 28q-38 0 -65 -47l-35 26q37 67 103 67q36 0 75.5 -27.5t59.5 -27.5q38 0 66 46z" />
    <glyph glyph-name="Adieresis" unicode="&#xc4;" horiz-adv-x="608" 
d="M592 0h-74l-61 172h-311l-63 -172h-67l254 675h69zM438 224l-106 291q-20 55 -30 90h-1q-12 -37 -30 -88l-107 -293h274zM451 777q0 -18 -12 -30t-30 -12t-30.5 12t-12.5 30t12.5 30.5t30.5 12.5t30 -12.5t12 -30.5zM239 777q0 -18 -12.5 -30t-30.5 -12t-30 12t-12 30
t12 30.5t30 12.5t30.5 -12.5t12.5 -30.5z" />
    <glyph glyph-name="Aring" unicode="&#xc5;" horiz-adv-x="608" 
d="M592 0h-74l-61 172h-311l-63 -172h-67l254 675h69zM438 224l-106 291q-20 55 -30 90h-1q-12 -37 -30 -88l-107 -293h274zM407 811q0 -38 -30 -68t-70 -30q-42 0 -70 26.5t-28 67.5q0 40 30 68.5t70 28.5q41 0 69.5 -26.5t28.5 -66.5zM360 809q0 22 -15 38t-37 16
t-37.5 -16t-15.5 -38q0 -23 15.5 -38.5t37.5 -15.5t37 15.5t15 38.5z" />
    <glyph glyph-name="AE" unicode="&#xc6;" horiz-adv-x="777" 
d="M699 0h-338v173h-243l-95 -173h-69l376 675h357v-52h-262v-249h253v-51h-253v-270h274v-53zM361 225v396h-2l-69 -134l-146 -262h217z" />
    <glyph glyph-name="Ccedilla" unicode="&#xc7;" horiz-adv-x="595" 
d="M548 32q-90 -39 -194 -39q-149 0 -225.5 87t-76.5 244q0 161 80 259.5t245 98.5q84 0 161 -23l-12 -59q-79 28 -163 28q-122 0 -182 -82t-60 -211q0 -138 62.5 -212t189.5 -74q86 0 162 38zM355 -41q36 -51 29.5 -95.5t-51.5 -99.5h-56q29 37 40.5 63t7.5 51.5t-27 53.5z
" />
    <glyph glyph-name="Egrave" unicode="&#xc8;" horiz-adv-x="508" 
d="M429 0h-333v675h333v-52h-269v-249h256v-51h-256v-270h269v-53zM316 770l-15 -38l-171 58l23 54z" />
    <glyph glyph-name="Eacute" unicode="&#xc9;" horiz-adv-x="508" 
d="M429 0h-333v675h333v-52h-269v-249h256v-51h-256v-270h269v-53zM389 790l-172 -58l-15 38l164 74z" />
    <glyph glyph-name="Ecircumflex" unicode="&#xca;" horiz-adv-x="508" 
d="M429 0h-333v675h333v-52h-269v-249h256v-51h-256v-270h269v-53zM416 772l-24 -42l-134 64l-129 -64l-20 39l152 83z" />
    <glyph glyph-name="Edieresis" unicode="&#xcb;" horiz-adv-x="508" 
d="M429 0h-333v675h333v-52h-269v-249h256v-51h-256v-270h269v-53zM404 777q0 -18 -12 -30t-30 -12t-30.5 12t-12.5 30t12.5 30.5t30.5 12.5t30 -12.5t12 -30.5zM192 777q0 -18 -12.5 -30t-30.5 -12t-30 12t-12 30t12 30.5t30 12.5t30.5 -12.5t12.5 -30.5z" />
    <glyph glyph-name="Igrave" unicode="&#xcc;" horiz-adv-x="256" 
d="M160 0h-64v675h64v-675zM179 770l-15 -38l-171 58l23 54z" />
    <glyph glyph-name="Iacute" unicode="&#xcd;" horiz-adv-x="256" 
d="M160 0h-64v675h64v-675zM266 790l-172 -58l-15 38l164 74z" />
    <glyph glyph-name="Icircumflex" unicode="&#xce;" horiz-adv-x="256" 
d="M160 0h-64v675h64v-675zM283 772l-24 -42l-134 64l-129 -64l-20 39l152 83z" />
    <glyph glyph-name="Idieresis" unicode="&#xcf;" horiz-adv-x="256" 
d="M160 0h-64v675h64v-675zM276 777q0 -18 -12 -30t-30 -12t-30.5 12t-12.5 30t12.5 30.5t30.5 12.5t30 -12.5t12 -30.5zM64 777q0 -18 -12.5 -30t-30.5 -12t-30 12t-12 30t12 30.5t30 12.5t30.5 -12.5t12.5 -30.5z" />
    <glyph glyph-name="Eth" unicode="&#xd0;" horiz-adv-x="694" 
d="M642 343q0 -168 -104 -257t-276 -89q-33 0 -84.5 2t-73.5 1v323h-102v50h102v302q24 0 89.5 1.5t100.5 1.5q169 0 258.5 -83.5t89.5 -251.5zM575 339q0 287 -290 287q-30 0 -117 -3v-250h159v-50h-159v-266q52 -7 103 -7q141 0 222.5 72t81.5 217z" />
    <glyph glyph-name="Ntilde" unicode="&#xd1;" horiz-adv-x="714" 
d="M618 0h-87l-301 476q-52 84 -78 135q7 -142 7 -419v-192h-63v675h86l298 -470q45 -70 81 -137q-7 222 -7 433v174h64v-675zM526 807q-40 -67 -103 -67q-36 0 -76 28t-60 28q-38 0 -65 -47l-35 26q37 67 103 67q36 0 75.5 -27.5t59.5 -27.5q38 0 66 46z" />
    <glyph glyph-name="Ograve" unicode="&#xd2;" horiz-adv-x="706" 
d="M658 345q0 -165 -89.5 -259t-224.5 -94q-146 0 -221 91t-75 247q0 165 89.5 259t223.5 94q146 0 221.5 -91t75.5 -247zM589 332q0 135 -60.5 216t-175.5 81q-99 0 -167.5 -77t-68.5 -208q0 -136 60 -216.5t176 -80.5q100 0 168 76.5t68 208.5zM396 770l-15 -38l-171 58
l23 54z" />
    <glyph glyph-name="Oacute" unicode="&#xd3;" horiz-adv-x="706" 
d="M658 345q0 -165 -89.5 -259t-224.5 -94q-146 0 -221 91t-75 247q0 165 89.5 259t223.5 94q146 0 221.5 -91t75.5 -247zM589 332q0 135 -60.5 216t-175.5 81q-99 0 -167.5 -77t-68.5 -208q0 -136 60 -216.5t176 -80.5q100 0 168 76.5t68 208.5zM500 790l-172 -58l-15 38
l164 74z" />
    <glyph glyph-name="Ocircumflex" unicode="&#xd4;" horiz-adv-x="706" 
d="M658 345q0 -165 -89.5 -259t-224.5 -94q-146 0 -221 91t-75 247q0 165 89.5 259t223.5 94q146 0 221.5 -91t75.5 -247zM589 332q0 135 -60.5 216t-175.5 81q-99 0 -167.5 -77t-68.5 -208q0 -136 60 -216.5t176 -80.5q100 0 168 76.5t68 208.5zM511 772l-24 -42l-134 64
l-129 -64l-20 39l152 83z" />
    <glyph glyph-name="Otilde" unicode="&#xd5;" horiz-adv-x="706" 
d="M658 345q0 -165 -89.5 -259t-224.5 -94q-146 0 -221 91t-75 247q0 165 89.5 259t223.5 94q146 0 221.5 -91t75.5 -247zM589 332q0 135 -60.5 216t-175.5 81q-99 0 -167.5 -77t-68.5 -208q0 -136 60 -216.5t176 -80.5q100 0 168 76.5t68 208.5zM521 807q-40 -67 -103 -67
q-36 0 -76 28t-60 28q-38 0 -65 -47l-35 26q37 67 103 67q36 0 75.5 -27.5t59.5 -27.5q38 0 66 46z" />
    <glyph glyph-name="Odieresis" unicode="&#xd6;" horiz-adv-x="706" 
d="M658 345q0 -165 -89.5 -259t-224.5 -94q-146 0 -221 91t-75 247q0 165 89.5 259t223.5 94q146 0 221.5 -91t75.5 -247zM589 332q0 135 -60.5 216t-175.5 81q-99 0 -167.5 -77t-68.5 -208q0 -136 60 -216.5t176 -80.5q100 0 168 76.5t68 208.5zM505 777q0 -18 -12 -30
t-30 -12t-30.5 12t-12.5 30t12.5 30.5t30.5 12.5t30 -12.5t12 -30.5zM293 777q0 -18 -12.5 -30t-30.5 -12t-30 12t-12 30t12 30.5t30 12.5t30.5 -12.5t12.5 -30.5z" />
    <glyph glyph-name="multiply" unicode="&#xd7;" horiz-adv-x="550" 
d="M489 121l-38 -38l-177 177l-178 -177l-35 35l177 178l-177 177l38 38l177 -177l178 177l35 -35l-177 -178z" />
    <glyph glyph-name="Oslash" unicode="&#xd8;" horiz-adv-x="706" 
d="M658 341q0 -165 -88.5 -257t-228.5 -92q-55 0 -94 11l-40 -105l-50 19l41 105q-150 76 -150 309q0 164 89.5 258t223.5 94q49 0 90 -9l38 99l50 -19l-38 -98q157 -71 157 -315zM590 331q0 200 -113 268l-208 -541q31 -11 78 -11q108 0 175.5 75t67.5 209zM430 620
q-27 9 -77 9q-99 0 -168 -76.5t-69 -208.5q0 -195 106 -263z" />
    <glyph glyph-name="Ugrave" unicode="&#xd9;" horiz-adv-x="701" 
d="M605 255q0 -129 -66 -196t-197 -67q-60 0 -105 13.5t-71.5 34.5t-42.5 52.5t-21.5 62t-5.5 67.5v453h64v-446q0 -41 8 -72t28 -57.5t58 -41t94 -14.5q100 0 147 47t47 158v426h63v-420zM389 770l-15 -38l-171 58l23 54z" />
    <glyph glyph-name="Uacute" unicode="&#xda;" horiz-adv-x="701" 
d="M605 255q0 -129 -66 -196t-197 -67q-60 0 -105 13.5t-71.5 34.5t-42.5 52.5t-21.5 62t-5.5 67.5v453h64v-446q0 -41 8 -72t28 -57.5t58 -41t94 -14.5q100 0 147 47t47 158v426h63v-420zM510 790l-172 -58l-15 38l164 74z" />
    <glyph glyph-name="Ucircumflex" unicode="&#xdb;" horiz-adv-x="701" 
d="M605 255q0 -129 -66 -196t-197 -67q-60 0 -105 13.5t-71.5 34.5t-42.5 52.5t-21.5 62t-5.5 67.5v453h64v-446q0 -41 8 -72t28 -57.5t58 -41t94 -14.5q100 0 147 47t47 158v426h63v-420zM507 772l-24 -42l-134 64l-129 -64l-20 39l152 83z" />
    <glyph glyph-name="Udieresis" unicode="&#xdc;" horiz-adv-x="701" 
d="M605 255q0 -129 -66 -196t-197 -67q-60 0 -105 13.5t-71.5 34.5t-42.5 52.5t-21.5 62t-5.5 67.5v453h64v-446q0 -41 8 -72t28 -57.5t58 -41t94 -14.5q100 0 147 47t47 158v426h63v-420zM498 777q0 -18 -12 -30t-30 -12t-30.5 12t-12.5 30t12.5 30.5t30.5 12.5t30 -12.5
t12 -30.5zM286 777q0 -18 -12.5 -30t-30.5 -12t-30 12t-12 30t12 30.5t30 12.5t30.5 -12.5t12.5 -30.5z" />
    <glyph glyph-name="Yacute" unicode="&#xdd;" horiz-adv-x="519" 
d="M505 675l-216 -429v-246h-64v246l-211 429h71l120 -251q29 -59 54 -122h1q14 37 60 132l117 241h68zM417 790l-172 -58l-15 38l164 74z" />
    <glyph glyph-name="Thorn" unicode="&#xde;" horiz-adv-x="521" 
d="M499 368q0 -103 -76 -164.5t-195 -61.5q-40 0 -68 4v-146h-64v675h64v-108q46 3 91 3q118 0 183 -52t65 -150zM433 362q0 155 -197 155q-38 0 -76 -6v-311q37 -5 77 -5q93 0 144.5 44t51.5 123z" />
    <glyph glyph-name="germandbls" unicode="&#xdf;" horiz-adv-x="582" 
d="M535 144q0 -66 -52.5 -109t-141.5 -43q-54 0 -94 8l7 60q42 -14 91 -14q62 0 94 25t32 63q0 33 -21.5 57t-52.5 40t-62 34t-52.5 49.5t-21.5 75.5q0 33 15.5 58t37.5 40.5l44 30t37.5 35t15.5 47.5q0 41 -29.5 62t-79.5 21q-71 0 -107 -41.5t-36 -133.5v-509h-63v504
q0 121 57.5 175.5t154.5 54.5q80 0 123.5 -35.5t43.5 -90.5q0 -38 -15.5 -65.5t-37.5 -43t-44 -28.5t-37.5 -31.5t-15.5 -44.5q0 -31 21.5 -54.5t52.5 -39.5t62 -34t52.5 -49t21.5 -74z" />
    <glyph glyph-name="agrave" unicode="&#xe0;" horiz-adv-x="519" 
d="M424 0h-64q0 74 6 109l-2 1q-19 -51 -66 -84.5t-110 -33.5q-59 0 -97 35t-38 94q0 76 79.5 122t226.5 46v27q0 72 -26 105t-91 33q-73 0 -149 -37l-15 52q81 36 173 36t131.5 -44.5t39.5 -128.5v-178q0 -64 2 -154zM359 229v12q-130 0 -186 -31t-56 -79q0 -38 24 -62.5
t63 -24.5q67 0 111 56.5t44 128.5zM291 604l-36 -29l-121 138l48 36z" />
    <glyph glyph-name="aacute" unicode="&#xe1;" horiz-adv-x="519" 
d="M424 0h-64q0 74 6 109l-2 1q-19 -51 -66 -84.5t-110 -33.5q-59 0 -97 35t-38 94q0 76 79.5 122t226.5 46v27q0 72 -26 105t-91 33q-73 0 -149 -37l-15 52q81 36 173 36t131.5 -44.5t39.5 -128.5v-178q0 -64 2 -154zM359 229v12q-130 0 -186 -31t-56 -79q0 -38 24 -62.5
t63 -24.5q67 0 111 56.5t44 128.5zM376 713l-122 -138l-35 29l110 145z" />
    <glyph glyph-name="acircumflex" unicode="&#xe2;" horiz-adv-x="519" 
d="M424 0h-64q0 74 6 109l-2 1q-19 -51 -66 -84.5t-110 -33.5q-59 0 -97 35t-38 94q0 76 79.5 122t226.5 46v27q0 72 -26 105t-91 33q-73 0 -149 -37l-15 52q81 36 173 36t131.5 -44.5t39.5 -128.5v-178q0 -64 2 -154zM359 229v12q-130 0 -186 -31t-56 -79q0 -38 24 -62.5
t63 -24.5q67 0 111 56.5t44 128.5zM382 610l-33 -32l-97 87l-97 -87l-30 30l129 129z" />
    <glyph glyph-name="atilde" unicode="&#xe3;" horiz-adv-x="519" 
d="M424 0h-64q0 74 6 109l-2 1q-19 -51 -66 -84.5t-110 -33.5q-59 0 -97 35t-38 94q0 76 79.5 122t226.5 46v27q0 72 -26 105t-91 33q-73 0 -149 -37l-15 52q81 36 173 36t131.5 -44.5t39.5 -128.5v-178q0 -64 2 -154zM359 229v12q-130 0 -186 -31t-56 -79q0 -38 24 -62.5
t63 -24.5q67 0 111 56.5t44 128.5zM412 674q-36 -69 -100 -69q-34 0 -73 28.5t-58 28.5q-35 0 -62 -48l-34 27q38 69 101 69q34 0 72 -28.5t58 -28.5q36 0 63 48z" />
    <glyph glyph-name="adieresis" unicode="&#xe4;" horiz-adv-x="519" 
d="M424 0h-64q0 74 6 109l-2 1q-19 -51 -66 -84.5t-110 -33.5q-59 0 -97 35t-38 94q0 76 79.5 122t226.5 46v27q0 72 -26 105t-91 33q-73 0 -149 -37l-15 52q81 36 173 36t131.5 -44.5t39.5 -128.5v-178q0 -64 2 -154zM359 229v12q-130 0 -186 -31t-56 -79q0 -38 24 -62.5
t63 -24.5q67 0 111 56.5t44 128.5zM386 658q0 -18 -12.5 -30.5t-30.5 -12.5t-30.5 12.5t-12.5 30.5q0 19 12.5 31t30.5 12t30.5 -12t12.5 -31zM202 658q0 -18 -12.5 -30.5t-30.5 -12.5q-19 0 -31 12.5t-12 30.5q0 19 12 31t31 12q18 0 30.5 -12t12.5 -31z" />
    <glyph glyph-name="aring" unicode="&#xe5;" horiz-adv-x="519" 
d="M424 0h-64q0 74 6 109l-2 1q-19 -51 -66 -84.5t-110 -33.5q-59 0 -97 35t-38 94q0 76 79.5 122t226.5 46v27q0 72 -26 105t-91 33q-73 0 -149 -37l-15 52q81 36 173 36t131.5 -44.5t39.5 -128.5v-178q0 -64 2 -154zM359 229v12q-130 0 -186 -31t-56 -79q0 -38 24 -62.5
t63 -24.5q67 0 111 56.5t44 128.5zM362 661q0 -41 -31.5 -72t-73.5 -31q-44 0 -74 28t-30 72q0 42 32 72.5t74 30.5q44 0 73.5 -28.5t29.5 -71.5zM315 659q0 25 -16.5 42t-40.5 17q-25 0 -41.5 -17t-16.5 -42q0 -24 17 -41.5t41 -17.5t40.5 17.5t16.5 41.5z" />
    <glyph glyph-name="ae" unicode="&#xe6;" horiz-adv-x="811" 
d="M760 305q0 -20 -1 -37h-338q-4 -116 39 -169t132 -53q77 0 141 29l12 -53q-74 -30 -166 -30q-83 0 -132 33.5t-66 88.5h-1q-22 -50 -73 -86t-119 -36q-59 0 -97 35t-38 94q0 76 79.5 122.5t226.5 46.5v38q0 64 -27 95t-91 31q-78 0 -147 -38l-16 53q81 36 173 36
q122 0 152 -88h1q24 39 67 63.5t98 24.5q96 0 143.5 -56.5t47.5 -143.5zM693 315q2 64 -33 102.5t-95 38.5q-55 0 -92.5 -38t-47.5 -103h268zM359 229v12q-130 0 -186 -31t-56 -79q0 -38 23.5 -62.5t62.5 -24.5q68 0 112 56.5t44 128.5z" />
    <glyph glyph-name="ccedilla" unicode="&#xe7;" horiz-adv-x="443" 
d="M414 23q-67 -29 -155 -29q-213 0 -213 237q0 126 60.5 199t172.5 73q77 0 132 -23l-14 -53q-65 25 -128 25q-73 0 -114.5 -57.5t-41.5 -150.5q0 -91 35 -144t124 -53q69 0 129 27zM272 -41q36 -51 29.5 -95.5t-51.5 -99.5h-56q29 37 40.5 63t7.5 51.5t-27 53.5z" />
    <glyph glyph-name="egrave" unicode="&#xe8;" horiz-adv-x="503" 
d="M452 306q0 -26 -2 -44h-337q-7 -216 171 -216q76 0 140 29l12 -53q-74 -30 -166 -30q-224 0 -224 255q0 114 58 186t157 72q96 0 143.5 -56.5t47.5 -142.5zM385 310q1 67 -33 106t-95 39q-56 0 -93.5 -38t-47.5 -107h269zM293 604l-36 -29l-121 138l48 36z" />
    <glyph glyph-name="eacute" unicode="&#xe9;" horiz-adv-x="503" 
d="M452 306q0 -26 -2 -44h-337q-7 -216 171 -216q76 0 140 29l12 -53q-74 -30 -166 -30q-224 0 -224 255q0 114 58 186t157 72q96 0 143.5 -56.5t47.5 -142.5zM385 310q1 67 -33 106t-95 39q-56 0 -93.5 -38t-47.5 -107h269zM377 713l-122 -138l-35 29l110 145z" />
    <glyph glyph-name="ecircumflex" unicode="&#xea;" horiz-adv-x="503" 
d="M452 306q0 -26 -2 -44h-337q-7 -216 171 -216q76 0 140 29l12 -53q-74 -30 -166 -30q-224 0 -224 255q0 114 58 186t157 72q96 0 143.5 -56.5t47.5 -142.5zM385 310q1 67 -33 106t-95 39q-56 0 -93.5 -38t-47.5 -107h269zM388 610l-33 -32l-97 87l-97 -87l-30 30l129 129
z" />
    <glyph glyph-name="edieresis" unicode="&#xeb;" horiz-adv-x="503" 
d="M452 306q0 -26 -2 -44h-337q-7 -216 171 -216q76 0 140 29l12 -53q-74 -30 -166 -30q-224 0 -224 255q0 114 58 186t157 72q96 0 143.5 -56.5t47.5 -142.5zM385 310q1 67 -33 106t-95 39q-56 0 -93.5 -38t-47.5 -107h269zM394 658q0 -18 -12.5 -30.5t-30.5 -12.5
t-30.5 12.5t-12.5 30.5q0 19 12.5 31t30.5 12t30.5 -12t12.5 -31zM210 658q0 -18 -12.5 -30.5t-30.5 -12.5q-19 0 -31 12.5t-12 30.5q0 19 12 31t31 12q18 0 30.5 -12t12.5 -31z" />
    <glyph glyph-name="igrave" unicode="&#xec;" horiz-adv-x="255" 
d="M159 0h-63v497h63v-497zM168 604l-36 -29l-121 138l48 36z" />
    <glyph glyph-name="iacute" unicode="&#xed;" horiz-adv-x="255" 
d="M159 0h-63v497h63v-497zM243 713l-122 -138l-35 29l110 145z" />
    <glyph glyph-name="icircumflex" unicode="&#xee;" horiz-adv-x="255" 
d="M159 0h-63v497h63v-497zM244 610l-32 -32l-86 87l-85 -87l-31 30l118 128z" />
    <glyph glyph-name="idieresis" unicode="&#xef;" horiz-adv-x="255" 
d="M159 0h-63v497h63v-497zM254 658q0 -18 -12.5 -30.5t-30.5 -12.5t-30.5 12.5t-12.5 30.5q0 19 12.5 31t30.5 12t30.5 -12t12.5 -31zM87 658q0 -18 -12.5 -30.5t-30.5 -12.5q-19 0 -31 12.5t-12 30.5q0 19 12 31t31 12q18 0 30.5 -12t12.5 -31z" />
    <glyph glyph-name="eth" unicode="&#xf0;" horiz-adv-x="540" 
d="M493 269q0 -136 -63.5 -206.5t-166.5 -70.5q-102 0 -160.5 64.5t-58.5 190.5q0 110 62.5 184t169.5 74q91 0 123 -56q-8 15 -20.5 36t-13.5 23q-26 48 -72 98l-108 -49l-29 37l102 46q-30 29 -85 72l65 28q47 -38 80 -73l108 47l29 -37l-104 -46q142 -169 142 -362z
M427 261q0 90 -40.5 141.5t-116.5 51.5q-67 0 -113.5 -52t-46.5 -150q0 -99 43.5 -153.5t120.5 -54.5q68 0 110.5 53.5t42.5 163.5z" />
    <glyph glyph-name="ntilde" unicode="&#xf1;" horiz-adv-x="579" 
d="M483 0h-63v322q0 66 -22.5 99t-78.5 33q-70 0 -115 -61t-45 -156v-237h-63v497h64q0 -69 -9 -116l2 -1q21 58 68 91.5t112 33.5q150 0 150 -159v-346zM456 674q-36 -69 -100 -69q-34 0 -73 28.5t-58 28.5q-35 0 -62 -48l-34 27q38 69 101 69q34 0 72 -28.5t58 -28.5
q36 0 63 48z" />
    <glyph glyph-name="ograve" unicode="&#xf2;" horiz-adv-x="540" 
d="M495 256q0 -112 -64 -188t-170 -76q-102 0 -159 64t-57 191q0 109 62.5 183.5t170.5 74.5q96 0 156.5 -59.5t60.5 -189.5zM430 253q0 95 -40.5 148t-118.5 53q-67 0 -114 -52t-47 -150q0 -99 42.5 -153.5t119.5 -54.5q67 0 112.5 53t45.5 156zM311 604l-36 -29l-121 138
l48 36z" />
    <glyph glyph-name="oacute" unicode="&#xf3;" horiz-adv-x="540" 
d="M495 256q0 -112 -64 -188t-170 -76q-102 0 -159 64t-57 191q0 109 62.5 183.5t170.5 74.5q96 0 156.5 -59.5t60.5 -189.5zM430 253q0 95 -40.5 148t-118.5 53q-67 0 -114 -52t-47 -150q0 -99 42.5 -153.5t119.5 -54.5q67 0 112.5 53t45.5 156zM393 713l-122 -138l-35 29
l110 145z" />
    <glyph glyph-name="ocircumflex" unicode="&#xf4;" horiz-adv-x="540" 
d="M495 256q0 -112 -64 -188t-170 -76q-102 0 -159 64t-57 191q0 109 62.5 183.5t170.5 74.5q96 0 156.5 -59.5t60.5 -189.5zM430 253q0 95 -40.5 148t-118.5 53q-67 0 -114 -52t-47 -150q0 -99 42.5 -153.5t119.5 -54.5q67 0 112.5 53t45.5 156zM399 610l-33 -32l-97 87
l-97 -87l-30 30l129 129z" />
    <glyph glyph-name="otilde" unicode="&#xf5;" horiz-adv-x="540" 
d="M495 256q0 -112 -64 -188t-170 -76q-102 0 -159 64t-57 191q0 109 62.5 183.5t170.5 74.5q96 0 156.5 -59.5t60.5 -189.5zM430 253q0 95 -40.5 148t-118.5 53q-67 0 -114 -52t-47 -150q0 -99 42.5 -153.5t119.5 -54.5q67 0 112.5 53t45.5 156zM437 674q-36 -69 -100 -69
q-35 0 -73 28.5t-58 28.5q-35 0 -62 -48l-34 27q38 69 101 69q35 0 73 -28.5t57 -28.5q36 0 63 48z" />
    <glyph glyph-name="odieresis" unicode="&#xf6;" horiz-adv-x="540" 
d="M495 256q0 -112 -64 -188t-170 -76q-102 0 -159 64t-57 191q0 109 62.5 183.5t170.5 74.5q96 0 156.5 -59.5t60.5 -189.5zM430 253q0 95 -40.5 148t-118.5 53q-67 0 -114 -52t-47 -150q0 -99 42.5 -153.5t119.5 -54.5q67 0 112.5 53t45.5 156zM404 658q0 -18 -12.5 -30.5
t-30.5 -12.5t-30.5 12.5t-12.5 30.5q0 19 12.5 31t30.5 12t30.5 -12t12.5 -31zM220 658q0 -18 -12.5 -30.5t-30.5 -12.5q-19 0 -31 12.5t-12 30.5q0 19 12 31t31 12q18 0 30.5 -12t12.5 -31z" />
    <glyph glyph-name="divide" unicode="&#xf7;" horiz-adv-x="550" 
d="M321 498q0 -20 -14 -34t-34 -14t-34 14t-14 34t14 34t34 14t34 -14t14 -34zM506 271h-462v53h462v-53zM321 95q0 -20 -14 -33.5t-34 -13.5t-34 14t-14 33q0 20 14 34t34 14t34 -14t14 -34z" />
    <glyph glyph-name="oslash" unicode="&#xf8;" horiz-adv-x="540" 
d="M495 256q0 -112 -63 -188t-169 -76q-40 0 -75 11l-41 -104l-47 17l43 107q-98 60 -98 224q0 109 63 183.5t171 74.5q24 0 54 -5l37 93l47 -17l-38 -92q116 -56 116 -228zM432 253q0 133 -76 178l-146 -377q25 -11 63 -11q68 0 113.5 53t45.5 157zM312 451q-23 5 -43 5
q-65 0 -113 -50t-48 -154q0 -119 60 -170z" />
    <glyph glyph-name="ugrave" unicode="&#xf9;" horiz-adv-x="579" 
d="M483 0h-64q0 70 9 116l-2 1q-21 -58 -68 -91.5t-112 -33.5q-150 0 -150 159v346h63v-322q0 -66 22.5 -99t78.5 -33q70 0 115 61t45 156v237h63v-497zM321 604l-36 -29l-121 138l48 36z" />
    <glyph glyph-name="uacute" unicode="&#xfa;" horiz-adv-x="579" 
d="M483 0h-64q0 70 9 116l-2 1q-21 -58 -68 -91.5t-112 -33.5q-150 0 -150 159v346h63v-322q0 -66 22.5 -99t78.5 -33q70 0 115 61t45 156v237h63v-497zM415 713l-122 -138l-35 29l110 145z" />
    <glyph glyph-name="ucircumflex" unicode="&#xfb;" horiz-adv-x="579" 
d="M483 0h-64q0 70 9 116l-2 1q-21 -58 -68 -91.5t-112 -33.5q-150 0 -150 159v346h63v-322q0 -66 22.5 -99t78.5 -33q70 0 115 61t45 156v237h63v-497zM418 610l-33 -32l-97 87l-97 -87l-30 30l129 129z" />
    <glyph glyph-name="udieresis" unicode="&#xfc;" horiz-adv-x="579" 
d="M483 0h-64q0 70 9 116l-2 1q-21 -58 -68 -91.5t-112 -33.5q-150 0 -150 159v346h63v-322q0 -66 22.5 -99t78.5 -33q70 0 115 61t45 156v237h63v-497zM424 658q0 -18 -12.5 -30.5t-30.5 -12.5t-30.5 12.5t-12.5 30.5q0 19 12.5 31t30.5 12t30.5 -12t12.5 -31zM240 658
q0 -18 -12.5 -30.5t-30.5 -12.5q-19 0 -31 12.5t-12 30.5q0 19 12 31t31 12q18 0 30.5 -12t12.5 -31z" />
    <glyph glyph-name="yacute" unicode="&#xfd;" horiz-adv-x="464" 
d="M452 497l-207 -548q-43 -115 -92.5 -161.5t-131.5 -46.5q-22 0 -50 6l7 58q24 -8 57 -8q47 0 80 30.5t65 111.5l24 61l-192 497h74l112 -306q28 -82 38 -115h1q9 34 50 151l96 270h69zM361 713l-122 -138l-35 29l110 145z" />
    <glyph glyph-name="thorn" unicode="&#xfe;" horiz-adv-x="558" 
d="M510 271q0 -133 -68 -204.5t-184 -71.5q-56 0 -99 6v-252h-63v981h63v-229q0 -82 -7 -117l2 -1q21 56 67 89t105 33q89 0 136.5 -59.5t47.5 -174.5zM444 265q0 189 -128 189q-50 0 -87.5 -36t-53.5 -83t-16 -95v-181q42 -15 104 -15q85 0 133 54t48 167z" />
    <glyph glyph-name="ydieresis" unicode="&#xff;" horiz-adv-x="464" 
d="M452 497l-207 -548q-43 -115 -92.5 -161.5t-131.5 -46.5q-22 0 -50 6l7 58q24 -8 57 -8q47 0 80 30.5t65 111.5l24 61l-192 497h74l112 -306q28 -82 38 -115h1q9 34 50 151l96 270h69zM369 658q0 -18 -12.5 -30.5t-30.5 -12.5t-30.5 12.5t-12.5 30.5q0 19 12.5 31
t30.5 12t30.5 -12t12.5 -31zM185 658q0 -18 -12.5 -30.5t-30.5 -12.5q-19 0 -31 12.5t-12 30.5q0 19 12 31t31 12q18 0 30.5 -12t12.5 -31z" />
    <glyph glyph-name="dotlessi" unicode="&#x131;" horiz-adv-x="255" 
d="M159 0h-63v497h63v-497z" />
    <glyph glyph-name="Lslash" unicode="&#x141;" horiz-adv-x="433" 
d="M426 0h-322v373l-87 -40l-16 48l103 47v247h64v-217l121 54l16 -47l-137 -62v-350h258v-53z" />
    <glyph glyph-name="lslash" unicode="&#x142;" horiz-adv-x="285" 
d="M274 481l-97 -56v-425h-63v389l-70 -41l-20 44l90 52v286h63v-250l77 45z" />
    <glyph glyph-name="OE" unicode="&#x152;" horiz-adv-x="865" 
d="M787 0h-332q-59 -8 -111 -8q-146 0 -221 91t-75 248q0 164 89.5 258t223.5 94q48 0 98 -8h328v-52h-269v-249h256v-51h-256v-270h269v-53zM454 60v555q-51 14 -99 14q-100 0 -169 -76.5t-69 -208.5q0 -136 60 -216.5t175 -80.5q56 0 102 13z" />
    <glyph glyph-name="oe" unicode="&#x153;" horiz-adv-x="882" 
d="M831 305q0 -3 -2 -37h-337q-4 -116 38.5 -169t131.5 -53q77 0 141 29l12 -53q-74 -30 -166 -30q-148 0 -196 115q-61 -115 -193 -115q-102 0 -159 64t-57 191q0 109 62.5 183.5t170.5 74.5q61 0 110.5 -27t75.5 -81q56 108 177 108q96 0 143.5 -56.5t47.5 -143.5z
M763 315q2 64 -32.5 102.5t-94.5 38.5q-56 0 -93.5 -38t-47.5 -103h268zM429 253q0 95 -40.5 148t-118.5 53q-67 0 -113.5 -52t-46.5 -150q0 -99 42 -153.5t119 -54.5q67 0 112.5 53t45.5 156z" />
    <glyph glyph-name="Scaron" unicode="&#x160;" horiz-adv-x="504" 
d="M446 191q0 -89 -66 -144t-176 -55q-80 0 -143 19l11 63q68 -26 137 -26q75 0 122.5 33t47.5 102q0 46 -33 76t-80.5 48t-94.5 38t-80 58.5t-33 96.5q0 81 59 132t164 51q63 0 121 -13l-8 -58q-59 18 -117 18q-76 0 -115 -33t-39 -90q0 -45 33.5 -74.5t80.5 -47
t94.5 -37.5t81 -59t33.5 -98zM405 813l-152 -83l-155 80l23 42l135 -65l129 65z" />
    <glyph glyph-name="scaron" unicode="&#x161;" horiz-adv-x="431" 
d="M374 146q0 -66 -55.5 -110t-148.5 -44q-66 0 -111 13l9 60q51 -19 113 -19q56 0 92 25t36 66q0 35 -26 55t-63 29.5t-74 21t-63 41.5t-26 79q0 64 49 103t139 39q53 0 100 -11l-8 -54q-52 15 -101 15q-57 0 -86 -22.5t-29 -62.5q0 -35 26 -55.5t63.5 -30t74.5 -21
t63 -40.5t26 -77zM345 706l-129 -128l-128 126l32 33l97 -88l97 88z" />
    <glyph glyph-name="Ydieresis" unicode="&#x178;" horiz-adv-x="519" 
d="M505 675l-216 -429v-246h-64v246l-211 429h71l120 -251q29 -59 54 -122h1q14 37 60 132l117 241h68zM411 777q0 -18 -12 -30t-30 -12t-30.5 12t-12.5 30t12.5 30.5t30.5 12.5t30 -12.5t12 -30.5zM199 777q0 -18 -12.5 -30t-30.5 -12t-30 12t-12 30t12 30.5t30 12.5
t30.5 -12.5t12.5 -30.5z" />
    <glyph glyph-name="Zcaron" unicode="&#x17d;" horiz-adv-x="540" 
d="M496 0h-449v45l311 481q32 50 64 94q-78 -2 -166 -2h-198v57h434v-46l-328 -505q-20 -33 -45 -68q24 2 184 2h193v-58zM427 813l-152 -83l-155 80l23 42l135 -65l129 65z" />
    <glyph glyph-name="zcaron" unicode="&#x17e;" horiz-adv-x="445" 
d="M391 0h-342v44l266 399q-68 -2 -149 -2h-112v56h332v-43l-264 -398q64 2 152 2h117v-58zM351 706l-129 -128l-128 126l32 33l97 -88l97 88z" />
    <glyph glyph-name="florin" unicode="&#x192;" horiz-adv-x="433" 
d="M206 353l-28 -264q-15 -135 -55.5 -191t-134.5 -56q-38 0 -72 9l12 56q43 -13 74 -13q54 0 77 36t34 141l29 282h-127v49h133l15 147q10 89 55 138.5t127 49.5q35 0 70 -6l-9 -53q-35 8 -75 8q-90 0 -103 -127l-16 -157h173v-49h-179z" />
    <glyph glyph-name="circumflex" unicode="&#x2c6;" horiz-adv-x="438" 
d="M345 610l-33 -32l-97 87l-97 -87l-30 30l129 129z" />
    <glyph glyph-name="caron" unicode="&#x2c7;" horiz-adv-x="438" 
d="M342 706l-129 -128l-128 126l32 33l97 -88l97 88z" />
    <glyph glyph-name="breve" unicode="&#x2d8;" horiz-adv-x="420" 
d="M280 716h46q0 -52 -30 -86.5t-88 -34.5q-57 0 -86 34.5t-29 86.5h46q0 -30 18.5 -51t51.5 -21t52 19t19 53z" />
    <glyph glyph-name="dotaccent" unicode="&#x2d9;" horiz-adv-x="281" 
d="M185 658q0 -18 -13 -31.5t-32 -13.5t-32 13t-13 32t13 32t32 13t32 -13t13 -32z" />
    <glyph glyph-name="ring" unicode="&#x2da;" horiz-adv-x="395" 
d="M302 653q0 -41 -31.5 -72t-73.5 -31q-44 0 -74 28t-30 72q0 42 32 72.5t74 30.5q44 0 73.5 -28.5t29.5 -71.5zM255 651q0 25 -16.5 42t-40.5 17q-25 0 -41.5 -17t-16.5 -42q0 -24 17 -41.5t41 -17.5t40.5 17.5t16.5 41.5z" />
    <glyph glyph-name="ogonek" unicode="&#x2db;" horiz-adv-x="557" 
d="M97 7l62 -7q-92 -57 -92 -114q0 -34 35 -34q24 0 45 32l33 -25q-35 -63 -101 -63q-37 0 -57.5 18t-20.5 53q0 38 26.5 75.5t69.5 64.5z" />
    <glyph glyph-name="tilde" unicode="&#x2dc;" horiz-adv-x="507" 
d="M417 674q-36 -69 -100 -69q-35 0 -73 28.5t-58 28.5q-35 0 -62 -48l-34 27q38 69 101 69q35 0 73 -28.5t57 -28.5q36 0 63 48z" />
    <glyph glyph-name="hungarumlaut" unicode="&#x2dd;" horiz-adv-x="485" 
d="M410 695l-128 -117l-33 30l118 126zM241 701l-120 -123l-34 30l110 130z" />
    <glyph glyph-name="Delta" unicode="&#x394;" horiz-adv-x="603" 
d="M573 0h-543v45l233 630h77l233 -630v-45zM496 56l-181 508q-6 18 -16 56h-1q-5 -21 -17 -59l-181 -505h396z" />
    <glyph glyph-name="Delta" unicode="&#x2206;" horiz-adv-x="603" 
d="M573 0h-543v45l233 630h77l233 -630v-45zM496 56l-181 508q-6 18 -16 56h-1q-5 -21 -17 -59l-181 -505h396z" />
    <glyph glyph-name="Omega" unicode="&#x3a9;" horiz-adv-x="724" 
d="M677 0h-229v55q75 61 112.5 126t37.5 161q0 127 -61.5 207t-174.5 80q-100 0 -167.5 -77t-67.5 -205q0 -97 34 -162.5t116 -129.5v-55h-230v56h156q-145 105 -145 285q0 159 89 250.5t223 91.5q131 0 213.5 -86t82.5 -247q0 -180 -150 -294h161v-56z" />
    <glyph glyph-name="Omega" unicode="&#x2126;" horiz-adv-x="724" 
d="M677 0h-229v55q75 61 112.5 126t37.5 161q0 127 -61.5 207t-174.5 80q-100 0 -167.5 -77t-67.5 -205q0 -97 34 -162.5t116 -129.5v-55h-230v56h156q-145 105 -145 285q0 159 89 250.5t223 91.5q131 0 213.5 -86t82.5 -247q0 -180 -150 -294h161v-56z" />
    <glyph glyph-name="pi" unicode="&#x3c0;" horiz-adv-x="635" 
d="M598 445h-135q0 -200 20 -302q10 -54 23.5 -75t36.5 -21q25 0 49 7l10 -52q-27 -8 -65 -8q-50 0 -76.5 31t-41.5 107q-19 101 -19 313h-191q3 -237 -66 -447l-73 4q81 229 77 443h-133v52h584v-52z" />
    <glyph glyph-name="uni060C" unicode="&#x60c;" horiz-adv-x="208" 
d="M104 -7q-35 0 -45 38q-16 62 52 147q18 22 41 44l29 -25q-29 -31 -42.5 -59.5t-12.5 -46.5t10 -31q16 -22 4.5 -44.5t-36.5 -22.5z" />
    <glyph glyph-name="uni0615" unicode="&#x615;" horiz-adv-x="330" 
d="M18 755v37h52v188h41v-75q0 -42 -3 -48h1q13 24 38.5 39t53.5 15q52 0 68 -38t0 -118h-251zM111 792h116q18 81 -32 81q-31 0 -53.5 -23t-30.5 -58z" />
    <glyph glyph-name="uni061B" unicode="&#x61b;" horiz-adv-x="278" 
d="M66 41q0 20 14 34t34 14t34 -14.5t14 -33.5q0 -20 -14 -34.5t-34 -14.5t-34 14.5t-14 34.5zM115 292q-35 0 -46 38q-16 61 51 146q19 23 43 46l28 -26q-29 -31 -42 -59t-12 -46t10 -31q15 -22 4 -45t-36 -23z" />
    <glyph glyph-name="uni061F" unicode="&#x61f;" horiz-adv-x="459" 
d="M295 163h-62q10 31 10 60q0 37 -16.5 69.5t-40.5 57l-47.5 49.5t-40 58t-16.5 72q0 81 60.5 135.5t159.5 54.5q41 0 76 -8l-9 -57q-43 9 -74 9q-69 0 -106 -36t-37 -90q0 -32 16 -61.5t39 -54l45.5 -50t38.5 -60.5t16 -75q0 -34 -12 -73zM264 -8q-20 0 -34 14t-14 34
t14 33.5t34 13.5t34 -13.5t14 -33.5t-14 -34t-34 -14z" />
    <glyph glyph-name="uni0640" unicode="&#x640;" horiz-adv-x="120" 
d="M0 0v51h122v-51h-122z" />
    <glyph glyph-name="uni064F" unicode="&#x64f;" 
d="M0 811l-8 34l80 17q-8 18 -8 38q0 36 24.5 58t61.5 22q30 0 50 -18t20 -47q0 -33 -22.5 -49.5t-63.5 -25.5zM112 871l15 3q54 10 54 38q0 14 -9 23t-25 9q-43 0 -43 -43q0 -8 2 -15.5t4 -11.5z" />
    <glyph glyph-name="uni0653" unicode="&#x653;" 
d="M115 803l-30 37l78 59l3 -3q2 -2 6.5 -5.5l10.5 -8t14 -9t16.5 -8t20 -6t22.5 -2.5q61 0 106 45v-58l-2 -2q-3 -3 -7.5 -6l-11 -7t-15.5 -8t-19.5 -7.5t-24.5 -5.5t-29 -2q-57 0 -90 33z" />
    <glyph glyph-name="uni0654" unicode="&#x654;" 
d="M47 799v42q49 0 79 -5q-34 15 -34 54q0 37 28.5 63.5t86.5 26.5q31 0 51 -4l-7 -42q-24 4 -49 4q-29 0 -44.5 -12.5t-15.5 -33.5q0 -51 84 -51h52v-42h-231z" />
    <glyph glyph-name="uni0655" unicode="&#x655;" 
d="M49 -243v42q47 0 65 -3q-22 13 -22 41q0 34 27 56.5t74 22.5q31 0 52 -5l-7 -43q-24 6 -47 6q-22 0 -35.5 -10t-13.5 -26q0 -39 68 -39h59v-42h-220z" />
    <glyph glyph-name="uni0656" unicode="&#x656;" 
d="M73 -320v184h51v-173z" />
    <glyph glyph-name="uni0658" unicode="&#x658;" horiz-adv-x="26" 
d="M280 915h46q0 -52 -30 -86.5t-88 -34.5q-57 0 -86 34.5t-29 86.5h46q0 -30 18.5 -51t51.5 -21t52 19t19 53z" />
    <glyph glyph-name="uni0660" unicode="&#x660;" horiz-adv-x="382" 
d="M244 290q0 -22 -15 -37.5t-38 -15.5t-38 15.5t-15 37.5t15.5 37t37.5 15t37.5 -15t15.5 -37z" />
    <glyph glyph-name="uni0661" unicode="&#x661;" horiz-adv-x="310" 
d="M179 600v-600h-64v600h64z" />
    <glyph glyph-name="uni0662" unicode="&#x662;" horiz-adv-x="536" 
d="M179 0h-64v600h64v-90q0 -74 26.5 -107t86.5 -33q59 0 83.5 36t24.5 102v92h63v-87q0 -96 -47 -145t-132 -49q-36 0 -66.5 12.5t-43.5 34.5q5 -55 5 -84v-282z" />
    <glyph glyph-name="uni0663" unicode="&#x663;" horiz-adv-x="655" 
d="M115 0v600h64v-121q0 -48 20 -78t62 -30q23 0 37 8t20.5 24.5t8.5 32.5t2 41v123h58v-122q0 -57 14 -82t61 -25q37 0 57 22t20 85v122h62v-115q0 -165 -139 -165q-32 0 -62 14t-44 44q-26 -58 -95 -58q-27 0 -52 12.5t-35 34.5q5 -55 5 -85v-282h-64z" />
    <glyph glyph-name="uni0664" unicode="&#x664;" horiz-adv-x="429" 
d="M376 618l-6 -52q-39 11 -82 11q-21 0 -43.5 -5.5t-46.5 -17.5t-39.5 -35.5t-15.5 -55.5q0 -50 33 -69.5t101 -19.5h81l-4 -38q-128 -74 -182 -117.5t-54 -92.5q0 -39 24 -57t82 -18h187l-8 -51h-184q-79 0 -123 29t-44 85q0 52 41.5 100t166.5 121q-180 0 -180 126
q0 64 58.5 115t148.5 51q24 0 46 -2.5t33 -4.5z" />
    <glyph glyph-name="uni0665" unicode="&#x665;" horiz-adv-x="570" 
d="M505 306q0 -163 -63.5 -239.5t-162.5 -76.5q-108 0 -160 74.5t-52 237.5q0 152 62.5 230.5t163.5 78.5q212 0 212 -305zM439 301q0 133 -38.5 196t-115.5 63q-67 0 -109.5 -62.5t-42.5 -188.5q0 -131 35.5 -199.5t116.5 -68.5q72 0 113 64.5t41 195.5z" />
    <glyph glyph-name="uni0666" unicode="&#x666;" horiz-adv-x="466" 
d="M293 0v549h-218v51h281v-600h-63z" />
    <glyph glyph-name="uni0667" unicode="&#x667;" horiz-adv-x="546" 
d="M511 599l-204 -599h-75l-197 600h72l122 -387q24 -71 42 -146h1q10 41 45 151l130 392z" />
    <glyph glyph-name="uni0668" unicode="&#x668;" horiz-adv-x="546" 
d="M317 600l194 -592l-66 -19l-125 398q-30 97 -42 146h-2q-13 -54 -45 -151l-126 -382h-67l204 600h75z" />
    <glyph glyph-name="uni0669" unicode="&#x669;" horiz-adv-x="538" 
d="M477 0h-63v223q-74 -19 -146 -19q-103 0 -158 56.5t-55 136.5q0 99 66 155.5t181 56.5q38 0 82 -4.5t68 -9.5l25 -5v-590zM414 273v268q-46 17 -122 17q-84 0 -127.5 -42t-43.5 -110q0 -70 42.5 -110.5t110.5 -40.5q62 0 140 18z" />
    <glyph glyph-name="uni066A" unicode="&#x66a;" horiz-adv-x="729" 
d="M627 662l-483 -687l-44 28l483 687zM243 562q0 -21 -14.5 -36t-36.5 -15t-36.5 15t-14.5 36q0 22 14.5 36.5t36.5 14.5t36.5 -14.5t14.5 -36.5zM484 103q0 22 14.5 36.5t36.5 14.5q21 0 36 -14.5t15 -36.5t-15 -36.5t-36 -14.5q-22 0 -36.5 14.5t-14.5 36.5z" />
    <glyph glyph-name="uni066B" unicode="&#x66b;" horiz-adv-x="300" 
d="M101 88q35 0 45 -38q16 -62 -52 -147q-18 -22 -41 -44l-29 25q29 31 42.5 59.5t12.5 46.5t-10 31q-16 22 -4.5 44.5t36.5 22.5z" />
    <glyph glyph-name="uni066C" unicode="&#x66c;" horiz-adv-x="300" 
d="M101 508q35 0 45 -38q16 -62 -52 -147q-18 -22 -41 -44l-29 25q29 31 42.5 59.5t12.5 46.5t-10 31q-16 22 -4.5 44.5t36.5 22.5z" />
    <glyph glyph-name="uni066D" unicode="&#x66d;" horiz-adv-x="604" 
d="M205 53l-42 32l107 135l-167 46l17 50l161 -60l-7 172l54 1l-8 -173l161 60l18 -50l-168 -46l107 -135l-42 -32l-95 144z" />
    <glyph glyph-name="uni0670" unicode="&#x670;" horiz-adv-x="18" 
d="M124 766l-51 -11v225h51v-214z" />
    <glyph glyph-name="uni06C3" unicode="&#x6c3;" horiz-adv-x="594" 
d="M498 0h-189q-137 0 -198.5 60.5t-61.5 173.5q0 105 64 175.5t179 70.5q101 0 153.5 -56t52.5 -164v-260zM435 51v194q0 97 -38.5 140.5t-111.5 43.5q-79 0 -124.5 -51t-45.5 -137q0 -98 48.5 -144t156.5 -46h115zM354 573q-18 0 -30.5 12.5t-12.5 31.5q0 18 12.5 30.5
t30.5 12.5t31 -12.5t13 -30.5t-13 -31t-31 -13zM219 573q-18 0 -30.5 12.5t-12.5 31.5q0 18 12.5 30.5t30.5 12.5q19 0 31.5 -12t12.5 -31q0 -18 -12.5 -31t-31.5 -13z" />
    <glyph glyph-name="uni06D5" unicode="&#x6d5;" horiz-adv-x="594" 
d="M498 0h-189q-137 0 -198.5 60.5t-61.5 173.5q0 105 64 175.5t179 70.5q101 0 153.5 -56t52.5 -164v-260zM435 51v194q0 97 -38.5 140.5t-111.5 43.5q-79 0 -124.5 -51t-45.5 -137q0 -98 48.5 -144t156.5 -46h115z" />
    <glyph glyph-name="uni06F0" unicode="&#x6f0;" horiz-adv-x="382" 
d="M244 290q0 -22 -15 -37.5t-38 -15.5t-38 15.5t-15 37.5t15.5 37t37.5 15t37.5 -15t15.5 -37z" />
    <glyph glyph-name="uni06F1" unicode="&#x6f1;" horiz-adv-x="310" 
d="M179 600v-600h-64v600h64z" />
    <glyph glyph-name="uni06F2" unicode="&#x6f2;" horiz-adv-x="536" 
d="M179 0h-64v600h64v-90q0 -74 26.5 -107t86.5 -33q59 0 83.5 36t24.5 102v92h63v-87q0 -96 -47 -145t-132 -49q-36 0 -66.5 12.5t-43.5 34.5q5 -55 5 -84v-282z" />
    <glyph glyph-name="uni06F3" unicode="&#x6f3;" horiz-adv-x="655" 
d="M115 0v600h64v-121q0 -48 20 -78t62 -30q23 0 37 8t20.5 24.5t8.5 32.5t2 41v123h58v-122q0 -57 14 -82t61 -25q37 0 57 22t20 85v122h62v-115q0 -165 -139 -165q-32 0 -62 14t-44 44q-26 -58 -95 -58q-27 0 -52 12.5t-35 34.5q5 -55 5 -85v-282h-64z" />
    <glyph glyph-name="uni06F4" unicode="&#x6f4;" horiz-adv-x="605" 
d="M115 0v600h64v-71q0 -132 115 -156q-13 17 -23 47.5t-10 54.5q0 62 35.5 103t104.5 41q55 0 96 -26l-21 -47q-40 25 -82 25q-74 0 -74 -93q0 -30 13 -61.5t28 -46.5q87 11 169 84l30 -40q-110 -96 -229 -96q-114 0 -157 72q5 -55 5 -84v-306h-64z" />
    <glyph glyph-name="uni06F5" unicode="&#x6f5;" horiz-adv-x="600" 
d="M278 497q-47 35 -122 73l42 50q334 -176 334 -441q0 -90 -36.5 -138.5t-99.5 -48.5q-70 0 -98 70q-12 -31 -39 -50.5t-64 -19.5q-59 0 -93 44.5t-34 134.5q0 103 57 192t153 134zM468 172q0 165 -149 294q-95 -44 -141 -120t-46 -169q0 -133 71 -133q21 0 35 12.5
t20 27.5t16.5 27.5t25.5 12.5t26 -12.5t17.5 -27.5t21 -27.5t36.5 -12.5q29 0 48 32t19 96z" />
    <glyph glyph-name="uni06F6" unicode="&#x6f6;" horiz-adv-x="535" 
d="M118 -2l-63 14q45 129 123 226q-47 29 -71.5 74.5t-24.5 92.5q0 84 70.5 143.5t187.5 59.5q56 0 92 -9l-7 -51q-37 10 -84 10q-93 0 -144.5 -41.5t-51.5 -107.5q0 -78 76 -126q105 100 255 137v-55q-251 -65 -358 -367z" />
    <glyph glyph-name="uni06F7" unicode="&#x6f7;" horiz-adv-x="546" 
d="M511 599l-204 -599h-75l-197 600h72l122 -387q24 -71 42 -146h1q10 41 45 151l130 392z" />
    <glyph glyph-name="uni06F8" unicode="&#x6f8;" horiz-adv-x="546" 
d="M317 600l194 -592l-66 -19l-125 398q-30 97 -42 146h-2q-13 -54 -45 -151l-126 -382h-67l204 600h75z" />
    <glyph glyph-name="uni06F9" unicode="&#x6f9;" horiz-adv-x="538" 
d="M477 0h-63v223q-74 -19 -146 -19q-103 0 -158 56.5t-55 136.5q0 99 66 155.5t181 56.5q38 0 82 -4.5t68 -9.5l25 -5v-590zM414 273v268q-46 17 -122 17q-84 0 -127.5 -42t-43.5 -110q0 -70 42.5 -110.5t110.5 -40.5q62 0 140 18z" />
    <glyph glyph-name="endash" unicode="&#x2013;" horiz-adv-x="550" 
d="M550 271h-550v53h550v-53z" />
    <glyph glyph-name="emdash" unicode="&#x2014;" horiz-adv-x="1000" 
d="M877 271h-754v53h754v-53z" />
    <glyph glyph-name="quoteleft" unicode="&#x2018;" horiz-adv-x="227" 
d="M183 720q-29 -31 -42 -59t-12 -46t10 -31q15 -22 4 -45t-36 -23q-35 0 -46 38q-16 61 51 146q19 23 43 46z" />
    <glyph glyph-name="quoteright" unicode="&#x2019;" horiz-adv-x="227" 
d="M119 740q34 0 45 -38q16 -60 -50 -144q-18 -23 -43 -47l-29 25q29 31 42 59.5t12.5 47t-10.5 30.5q-16 22 -4.5 44.5t37.5 22.5z" />
    <glyph glyph-name="quotesinglbase" unicode="&#x201a;" horiz-adv-x="227" 
d="M119 88q35 0 45 -38q16 -62 -52 -147q-18 -22 -41 -44l-29 25q29 31 42 59.5t12.5 47t-10.5 30.5q-16 22 -4.5 44.5t37.5 22.5z" />
    <glyph glyph-name="quotedblleft" unicode="&#x201c;" horiz-adv-x="397" 
d="M353 720q-29 -31 -42 -59t-12.5 -46t9.5 -31q16 -22 5 -45t-37 -23q-35 0 -45 38q-16 61 51 146q18 23 42 46zM183 720q-29 -31 -42 -59t-12 -46t10 -31q15 -22 4 -45t-36 -23q-35 0 -46 38q-16 61 51 146q19 23 43 46z" />
    <glyph glyph-name="quotedblright" unicode="&#x201d;" horiz-adv-x="397" 
d="M288 740q36 0 46 -38q16 -62 -52 -146q-18 -23 -42 -45l-28 25q29 31 42 59.5t12 46.5t-10 31q-15 22 -4 44.5t36 22.5zM119 740q34 0 45 -38q16 -60 -50 -144q-18 -23 -43 -47l-29 25q29 31 42 59.5t12.5 47t-10.5 30.5q-16 22 -4.5 44.5t37.5 22.5z" />
    <glyph glyph-name="quotedblbase" unicode="&#x201e;" horiz-adv-x="397" 
d="M288 88q36 0 46 -38q16 -61 -52 -146q-18 -22 -42 -45l-28 25q29 31 42 59.5t12 46.5t-10 31q-15 22 -4 44.5t36 22.5zM119 88q35 0 45 -38q16 -62 -52 -147q-18 -22 -41 -44l-29 25q29 31 42 59.5t12.5 47t-10.5 30.5q-16 22 -4.5 44.5t37.5 22.5z" />
    <glyph glyph-name="dagger" unicode="&#x2020;" horiz-adv-x="442" 
d="M389 574h-144l14 -105l-16 -248h-44l-15 248l13 105h-144v49h144l-13 138h75l-14 -138h144v-49z" />
    <glyph glyph-name="daggerdbl" unicode="&#x2021;" horiz-adv-x="442" 
d="M389 302h-143l13 -136h-76l14 136h-144v49h144l-13 112l13 113h-144v49h144l-13 136h75l-13 -136h143v-49h-143l13 -113l-13 -112h143v-49z" />
    <glyph glyph-name="bullet" unicode="&#x2022;" horiz-adv-x="419" 
d="M311 297q0 -42 -30 -71.5t-72 -29.5t-71.5 29.5t-29.5 71.5t29.5 71.5t71.5 29.5t72 -29.5t30 -71.5z" />
    <glyph glyph-name="ellipsis" unicode="&#x2026;" horiz-adv-x="623" 
d="M555 40q0 -20 -14 -34t-34 -14q-19 0 -33.5 14t-14.5 34t14 34t34 14t34 -14t14 -34zM353 40q0 -20 -14 -34t-34 -14q-19 0 -33 14t-14 34t13.5 34t33.5 14t34 -14t14 -34zM151 40q0 -20 -14 -34t-34 -14q-19 0 -33 14t-14 34t13.5 34t33.5 14t34 -14t14 -34z" />
    <glyph glyph-name="perthousand" unicode="&#x2030;" horiz-adv-x="1007" 
d="M314 541q0 -73 -39 -115t-97 -42q-126 0 -126 143q0 72 39 114t97 42q126 0 126 -142zM259 534q0 102 -75 102q-36 0 -56 -28t-20 -75q0 -103 74 -103q36 0 56.5 28t20.5 76zM629 657l-534 -671l-40 31l533 672zM632 149q0 -73 -38.5 -115t-97.5 -42q-126 0 -126 142
q0 72 39 114t97 42q126 0 126 -141zM576 142q0 102 -74 102q-36 0 -56 -28t-20 -75q0 -52 17 -77.5t57 -25.5q36 0 56 28t20 76zM944 149q0 -73 -38.5 -115t-97.5 -42q-126 0 -126 142q0 72 39 114t97 42q126 0 126 -141zM889 142q0 102 -75 102q-36 0 -56 -28t-20 -75
q0 -103 74 -103q36 0 56.5 28t20.5 76z" />
    <glyph glyph-name="guilsinglleft" unicode="&#x2039;" horiz-adv-x="314" 
d="M230 156l-46 -31l-121 169l122 171l45 -29l-102 -141z" />
    <glyph glyph-name="guilsinglright" unicode="&#x203a;" horiz-adv-x="314" 
d="M251 297l-124 -172l-44 30l103 141l-101 139l45 30z" />
    <glyph glyph-name="fraction" unicode="&#x2044;" horiz-adv-x="212" 
d="M456 770l-630 -904l-45 30l631 904z" />
    <glyph glyph-name="fraction" unicode="&#x2215;" horiz-adv-x="212" 
d="M456 770l-630 -904l-45 30l631 904z" />
    <glyph glyph-name="Euro" unicode="&#x20ac;" horiz-adv-x="592" 
d="M563 48q-91 -56 -198 -56q-110 0 -175.5 63t-79.5 182h-96v46h93q-1 13 -1 40q0 23 2 61h-94v46h98q19 130 93 191.5t182 61.5q99 0 167 -42l-23 -49q-65 41 -154 41q-76 0 -130 -50t-68 -153h243v-46h-246q-2 -32 -2 -50q0 -34 1 -51h247v-46h-243q11 -93 62.5 -142.5
t138.5 -49.5q86 0 162 50z" />
    <glyph glyph-name="trademark" unicode="&#x2122;" horiz-adv-x="705" 
d="M643 394h-52l-25 166l-7 58l-14 -49l-54 -175h-58l-53 177l-12 47l-3 -37l-28 -187h-48l42 281h71l52 -176l12 -50l9 45l57 181h69zM264 635h-78v-241h-53v241h-78v40h209v-40z" />
    <glyph glyph-name="partialdiff" unicode="&#x2202;" horiz-adv-x="639" 
d="M558 415q0 -207 -85 -324q-32 -45 -82 -72t-109 -27q-96 0 -147 54.5t-51 150.5q0 101 65.5 168t168.5 67q65 0 110 -31.5t64 -83.5q2 72 2 95q-1 134 -65.5 203.5t-168.5 67.5l5 51q136 -2 214.5 -86t78.5 -233zM459 238q0 62 -39 101.5t-109 39.5q-71 0 -117 -50.5
t-46 -125.5q0 -77 38.5 -117t102.5 -40q73 0 121.5 55.5t48.5 136.5z" />
    <glyph glyph-name="product" unicode="&#x220f;" horiz-adv-x="784" 
d="M736 675h-112v-926h-62v926h-339v-926h-63v926h-112v55h688v-55z" />
    <glyph glyph-name="summation" unicode="&#x2211;" horiz-adv-x="610" 
d="M549 -251h-513v48l322 451l-302 434v48h479v-55h-399l297 -425l-320 -443h436v-58z" />
    <glyph glyph-name="minus" unicode="&#x2212;" horiz-adv-x="550" 
d="M506 271h-462v53h462v-53z" />
    <glyph glyph-name="radical" unicode="&#x221a;" horiz-adv-x="602" 
d="M561 758l-236 -758h-71l-159 448h-95v49h145l105 -311q24 -70 40 -125h2q16 65 31 116l171 581h67z" />
    <glyph glyph-name="infinity" unicode="&#x221e;" horiz-adv-x="968" 
d="M902 302q0 -66 -46.5 -112.5t-124.5 -46.5q-57 0 -116.5 31t-132.5 87q-75 -56 -133.5 -87t-115.5 -31q-81 0 -123.5 43t-42.5 109q0 67 46.5 113t122.5 46q59 0 118.5 -31t132.5 -87q75 56 133 87t115 31q80 0 123.5 -43.5t43.5 -108.5zM836 297q0 46 -27.5 74t-78.5 28
q-39 0 -85.5 -25.5t-109.5 -73.5q44 -34 71 -52t63 -34t66 -16q47 0 74 28.5t27 70.5zM434 297q-66 50 -112 76t-88 26q-47 0 -74.5 -28.5t-27.5 -70.5q0 -46 28 -74t79 -28q39 0 85.5 25.5t109.5 73.5z" />
    <glyph glyph-name="integral" unicode="&#x222b;" horiz-adv-x="335" 
d="M317 918q-28 8 -53 8q-31 0 -47 -13.5t-25 -55t-9 -119.5q0 -72 5.5 -379.5t5.5 -425.5q0 -138 -35 -195.5t-110 -57.5q-25 0 -50 5v57q23 -7 52 -7q46 0 63.5 35.5t17.5 144.5q0 64 -5 377t-5 433q0 139 35 197t110 58q27 0 50 -6v-56z" />
    <glyph glyph-name="approxequal" unicode="&#x2248;" horiz-adv-x="550" 
d="M498 371q-52 -52 -121 -52q-52 0 -109 30t-99 30q-46 0 -96 -42l-21 46q55 51 121 51q49 0 109.5 -31t98.5 -31q45 0 96 45zM498 208q-58 -47 -121 -47q-52 0 -109.5 30t-98.5 30q-46 0 -96 -42l-21 46q57 51 120 51q48 0 109 -31t100 -31q45 0 96 40z" />
    <glyph glyph-name="notequal" unicode="&#x2260;" horiz-adv-x="552" 
d="M494 192h-234l-61 -151h-55l61 151h-148v54h169l41 103h-210v53h231l63 156h56l-63 -156h150v-53h-171l-42 -103h213v-54z" />
    <glyph glyph-name="lessequal" unicode="&#x2264;" horiz-adv-x="550" 
d="M472 163l-32 -49l-381 241l380 243l33 -45l-317 -197zM484 0h-418v53h418v-53z" />
    <glyph glyph-name="greaterequal" unicode="&#x2265;" horiz-adv-x="550" 
d="M491 357l-380 -243l-33 45l317 197l-317 193l32 49zM484 0h-418v53h418v-53z" />
    <glyph glyph-name="lozenge" unicode="&#x25ca;" horiz-adv-x="614" 
d="M572 334l-241 -342h-40l-249 350l243 341h37zM504 329l-202 285l-191 -270l202 -281z" />
    <glyph glyph-name="apple" unicode="&#xf8ff;" horiz-adv-x="1040" 
d="M751 339q0 -101 -68 -164v-75l-16 -5l31 -74l-30 -7l30 -70l-30 -8l11 -25l-28 -64h-48q-2 -18 -26 -30t-57 -12q-34 0 -57.5 12t-25.5 30h-47l-47 114l30 8l-30 73l33 9l-19 46v78q-30 29 -49.5 73t-19.5 91q0 97 67.5 164.5t164.5 67.5q96 0 163.5 -67.5t67.5 -164.5z
M714 339q0 81 -57 138t-137 57t-137 -57t-57 -138q0 -91 69 -148h65l-17 144l-13.5 -4t-12.5 -4.5t-9 -3.5q-8 -2 -12 6t-2.5 17.5t6.5 10.5q70 19 120 19q56 0 122 -19q4 -1 5 -10.5t-2.5 -17.5t-11.5 -6q-8 5 -38 12l-15 -144h66q68 60 68 148zM653 -37l-18 42l-247 -63
l27 -66h211l16 37l-8 16l-77 -20l-11 27zM648 120v41h-256v-60l17 -41zM653 40l-19 47l-246 -64l18 -45zM567 339q-18 4 -47 4q-30 0 -48 -4l15 -148h66zM138 324l-111 -5v42l111 -5v-32zM1013 319l-111 5v32l110 5q1 -15 1 -42zM541 813l-5 -110q0 1 -16 1l-16 -1l-4 110
h41zM876 667l-81 -74l-22 23l74 80q16 -14 29 -29zM267 615l-23 -21l-80 74q18 20 29 29zM526 357v3q0 5 -4 1q2 0 3 -1q-2 0 -3 -2h3v-1h1zM514 359v3h-1v-3h-1v3h-1v-3q1 -2 3 0zM510 357v1h-2v6h-1v-7h3zM530 361v1q-3 0 -1.5 -2t-0.5 -2v-1q3 1 2 4zM531 355q2 0 2 5
t-2 5q3 -5 0 -10zM522 355q-3 5 0 10q-2 0 -2 -5t2 -5zM518 357v1q-1 0 -1 1t1 2v1q-2 1 -2 -2q0 -2 2 -3z" />
    <glyph glyph-name="fi" unicode="&#xfb01;" horiz-adv-x="586" 
d="M490 0h-62v447h-245v-447h-63v447h-114v50h114v25q0 103 55.5 158t166.5 55q65 0 129 -19l-13 -53q-62 20 -120 20q-155 0 -155 -150v-36h307v-497z" />
    <glyph glyph-name="fl" unicode="&#xfb02;" horiz-adv-x="586" 
d="M490 0h-62v676q-54 8 -98 8q-76 0 -111.5 -31.5t-35.5 -101.5v-54h152v-50h-152v-447h-63v447h-114v50h114v64q0 83 54.5 128.5t162.5 45.5q64 0 153 -13v-722z" />
    <glyph glyph-name="uniFD3E" unicode="&#xfd3e;" horiz-adv-x="326" 
d="M294 -195h-16q-74 0 -106 44t-32 132v203q0 57 -23.5 81t-86.5 28v52q65 4 87.5 26.5t22.5 81.5v139q0 175 138 175h16v-47q-54 0 -75 -27.5t-21 -96.5v-138q0 -119 -93 -138v-1q93 -15 93 -139v-203q0 -69 21 -96t75 -27v-49z" />
    <glyph glyph-name="uniFD3F" unicode="&#xfd3f;" horiz-adv-x="322" 
d="M303 293q-62 -4 -85.5 -28t-23.5 -81v-203q0 -88 -32 -132t-106 -44h-16v49q54 0 75 27t21 96v203q0 124 93 139v1q-93 13 -93 133v143q0 69 -21 96.5t-75 27.5v47h16q138 0 138 -175v-134q0 -63 22 -86t87 -27v-52z" />
    <glyph glyph-name="uniFC5E" 
d="M-15 807l-25 117l37 8l18 -84l58 12q-7 19 -7 37q0 36 25 59.5t63 23.5q29 0 47 -16t18 -44q0 -66 -72 -80zM110 867l25 5q45 9 45 46q0 27 -31 27q-20 0 -32 -13t-12 -33zM122 705q-15 -31 -53 -31q-41 0 -52 53l-7 35l35 6l7 -34q5 -26 25 -26q14 0 21 10.5t5 27.5
l-6 34l34 7l7 -35q6 -29 26 -29q34 0 27 46l-6 35l35 6l6 -35q7 -39 -10.5 -62.5t-57.5 -23.5q-23 0 -36 16z" />
    <glyph glyph-name="uniFC5F" 
d="M68 761l-6 34l199 31l7 -34zM78 692l-6 35l200 30l5 -34zM144 875q-15 -31 -53 -31q-42 0 -52 53l-7 35l35 7l7 -34q4 -27 25 -27q14 0 21 10.5t4 27.5l-5 35l34 6l7 -35q6 -29 26 -29q34 1 27 46l-6 35l35 6l6 -35q7 -38 -10.5 -61.5t-55.5 -24.5q-25 0 -38 16z" />
    <glyph glyph-name="uniFC60" 
d="M51 915l-6 35l198 30l6 -34zM170 788q-15 -31 -53 -31q-41 0 -51 53l-7 35l34 7l7 -35q5 -26 25 -26q14 0 21.5 11t4.5 27l-5 34l33 7l7 -35q6 -29 26 -29q34 1 27 46l-6 34l35 7l6 -36q8 -37 -10 -61t-56 -25q-24 0 -38 17z" />
    <glyph glyph-name="uniFC61" 
d="M122 705q-15 -31 -53 -31q-41 0 -52 53l-7 35l35 6l7 -34q5 -26 25 -26q14 0 21 10.5t5 27.5l-6 34l34 7l7 -35q6 -29 26 -29q34 0 27 46l-6 35l35 6l6 -35q7 -39 -10.5 -62.5t-57.5 -23.5q-23 0 -36 16zM-1 812l-7 34l78 16q-7 18 -7 39q0 36 24 57.5t61 21.5
q31 0 50.5 -18t19.5 -47q0 -33 -22.5 -49.5t-63.5 -25.5zM110 871l15 3q30 6 42 14.5t12 24.5q0 14 -9 23t-25 9q-42 0 -42 -43q0 -9 1.5 -16.5t3.5 -11.5z" />
    <glyph glyph-name="uniFC62" 
d="M80 757l-6 34l200 30l5 -34zM159 875q-15 -31 -53 -31q-42 0 -52 53l-7 35l35 7l7 -34q4 -27 25 -27q14 0 21 10.5t4 27.5l-5 35l34 6l7 -35q6 -29 26 -29q34 1 27 46l-6 35l35 6l6 -35q7 -38 -10.5 -61.5t-55.5 -24.5q-25 0 -38 16z" />
    <glyph glyph-name="uniFC63" 
d="M112 769q-15 -30 -53 -30q-42 0 -52 52l-7 35l34 6l7 -33q5 -27 26 -27q14 0 21 10.5t4 27.5l-5 34l34 7l7 -35q6 -29 26 -29q33 1 26 46l-6 34l36 6l6 -34q7 -37 -10.5 -61t-55.5 -25q-25 0 -38 16zM117 896l-35 -8v92h35v-84z" />
    <glyph glyph-name="loop.init" horiz-adv-x="612" 
d="M516 0h-516v51h95l59 -3q-87 50 -87 187q0 104 64 174.5t179 70.5q101 0 153.5 -56t52.5 -164v-260zM453 51v194q0 97 -38.5 140.5t-111.5 43.5q-79 0 -124.5 -51t-45.5 -137q0 -98 48.5 -144t156.5 -46h115z" />
    <glyph glyph-name="wasla" 
d="M109 814h137v14q0 47 -11 64.5t-35 17.5q-34 0 -57 -27t-34 -69zM2 774v40h58q17 61 54 98.5t91 37.5q45 0 68 -26t23 -94v-56h-294z" />
    <glyph glyph-name="hamza_medial" 
d="M49 575v43q47 0 79 -5q-16 6 -25 22t-9 32q0 37 29 64t87 27q20 0 50 -4l-7 -43q-24 4 -48 4q-60 0 -60 -46q0 -51 83 -51h52v-43h-231z" />
    <glyph glyph-name="xx.TahAbove" 
d="M272 702q0 57 -47 57q-41 0 -77 -42.5t-38 -86.5h76q86 0 86 72zM111 870v-87q0 -28 -7 -65h1q20 36 54.5 59t72.5 23q43 0 67 -24.5t24 -66.5q0 -56 -36.5 -87.5t-108.5 -31.5h-116v280h49z" />
    <glyph glyph-name="uni0651064B" 
d="M6 915l-6 34l201 31l5 -34zM17 846l-7 35l200 30l5 -34zM136 719q-15 -31 -53 -31q-41 0 -51 53l-7 35l34 6l7 -34q5 -26 25 -26q14 0 21.5 10.5t4.5 27.5l-5 34l33 7l7 -36q6 -28 26 -28q34 1 27 45l-6 35l35 7l6 -36q8 -37 -10 -61t-56 -25q-25 0 -38 17z" />
    <glyph glyph-name="uni0654064F" 
d="M21 657v37q31 0 71 -5q-15 5 -26.5 18.5t-11.5 31.5q0 33 29.5 50t75.5 17q26 0 51 -5l-6 -37q-28 6 -49 6q-57 0 -57 -31q0 -18 20.5 -31.5t58.5 -13.5h50v-37h-206zM9 812l-7 34l78 16q-8 18 -8 38q0 36 24.5 58t61.5 22q31 0 50.5 -18t19.5 -47q0 -33 -22.5 -49.5
t-63.5 -25.5zM120 871l15 3q30 6 42 14.5t12 24.5q0 14 -9 23t-25 9q-43 0 -43 -43q0 -9 2 -16.5t4 -11.5z" />
    <glyph glyph-name="uni06540652" 
d="M103 830q-72 0 -72 72q0 34 22 56t56 22q72 0 72 -72q0 -33 -22.5 -55.5t-55.5 -22.5zM105 862q17 0 27.5 11.5t10.5 32.5q0 42 -36 42q-16 0 -27 -11.5t-11 -30.5q0 -44 36 -44zM0 638v37q13 0 26.5 -1t26.5 -2.5t18 -1.5q-15 5 -26.5 18t-11.5 31q0 34 29 51t76 17
q24 0 51 -5l-7 -37q-26 6 -48 6q-58 0 -58 -31q0 -18 21 -31.5t59 -13.5h49v-37h-205z" />
    <glyph glyph-name="uni0654064B" 
d="M6 914l-6 35l200 31l6 -34zM17 846l-7 34l200 31l5 -34zM13 680v37q31 0 71 -5q-15 5 -26.5 18.5t-11.5 31.5q0 33 29 50t76 17q24 0 51 -5l-6 -37q-28 6 -49 6q-57 0 -57 -31q0 -18 20.5 -31.5t58.5 -13.5h49v-37h-205z" />
    <glyph glyph-name="uni0654064C" 
d="M38 667v36q31 0 71 -5q-38 16 -38 50t29.5 50.5t76.5 16.5q25 0 50 -5l-6 -37q-28 6 -49 6q-57 0 -57 -31q0 -18 20.5 -31.5t58.5 -13.5h50v-36h-206zM25 808l-25 113l37 8l17 -79l49 10q-7 19 -7 37q0 36 25 59.5t63 23.5q29 0 47 -16t18 -44q0 -64 -74 -80zM140 867
l25 5q45 9 45 46q0 27 -31 27q-20 0 -32 -13t-12 -33z" />
    <glyph glyph-name="uni0654064E" 
d="M6 915l-6 35l200 30l5 -34zM3 748v36q28 0 71 -5q-39 15 -39 50q0 34 29.5 51t76.5 17q19 0 51 -6l-7 -36q-23 5 -49 5q-57 0 -57 -31q0 -18 21 -31.5t59 -13.5h49v-36h-205z" />
    <glyph glyph-name="uni0655064D" 
d="M0 -320v34h204v-34h-204zM0 -262v34h204v-34h-204zM0 -202v35q7 0 71 -4q-38 13 -38 49q0 33 29 50t75 17q24 0 51 -5l-7 -36q-35 5 -48 5q-57 0 -57 -30q0 -18 20.5 -32t58.5 -14h49v-35h-204z" />
    <glyph glyph-name="uni06550650" 
d="M0 -320v34h205v-34h-205zM0 -259v36q31 0 71 -5q-38 16 -38 50t29 51t76 17q19 0 51 -6l-7 -36q-22 5 -48 5q-58 0 -58 -31q0 -18 21 -31.5t59 -13.5h49v-36h-205z" />
    <glyph glyph-name="wasle" horiz-adv-x="110" 
d="M0 0v51h122v-51h-122z" />
    <glyph glyph-name="Kashida.Narrow" horiz-adv-x="189" 
d="M0 0v51h209v-51h-209z" />
    <glyph glyph-name="kashida.long" horiz-adv-x="219" 
d="M-1 0v51h221v-51h-221z" />
    <glyph glyph-name="grave.cap" horiz-adv-x="366" 
d="M264 770l-15 -38l-171 58l23 54z" />
    <glyph glyph-name="acute.cap" horiz-adv-x="385" 
d="M285 790l-172 -58l-15 38l164 74z" />
    <glyph glyph-name="dieresis.cap" horiz-adv-x="546" 
d="M413 777q0 -18 -12 -30t-30 -12t-30.5 12t-12.5 30t12.5 30.5t30.5 12.5t30 -12.5t12 -30.5zM201 777q0 -18 -12.5 -30t-30.5 -12t-30 12t-12 30t12 30.5t30 12.5t30.5 -12.5t12.5 -30.5z" />
    <glyph glyph-name="circumflex.cap" horiz-adv-x="438" 
d="M372 772l-24 -42l-134 64l-129 -64l-20 39l152 83z" />
    <glyph glyph-name="tilde.cap" horiz-adv-x="516" 
d="M437 807q-40 -67 -103 -67q-36 0 -76 28t-60 28q-38 0 -65 -47l-35 26q37 67 103 67q36 0 75.5 -27.5t59.5 -27.5q38 0 66 46z" />
    <glyph glyph-name="caron.cap" horiz-adv-x="438" 
d="M369 813l-152 -83l-155 80l23 42l135 -65l129 65z" />
    <glyph glyph-name="ring.cap" horiz-adv-x="395" 
d="M297 762q0 -38 -30 -68t-70 -30q-42 0 -70 26.5t-28 67.5q0 40 30 68.5t70 28.5q41 0 69.5 -26.5t28.5 -66.5zM250 760q0 22 -15 38t-37 16t-37.5 -16t-15.5 -38q0 -23 15.5 -38.5t37.5 -15.5t37 15.5t15 38.5z" />
    <glyph glyph-name="uni0627.short" horiz-adv-x="268" 
d="M102 0v675h64v-675h-64z" />
    <glyph glyph-name="uniFE8E.short" horiz-adv-x="268" 
d="M102 0v675h64v-624h117v-51h-181z" />
    <glyph glyph-name="uni0627.mini" horiz-adv-x="268" 
d="M102 0v618h64v-618h-64z" />
    <glyph glyph-name="uniFE8E.mini" horiz-adv-x="268" 
d="M102 0v618h64v-567h117v-51h-181z" />
    </font>
</defs>
</svg>
