<svg xmlns="http://www.w3.org/2000/svg" width="124" height="37.932" viewBox="0 0 124 37.932">
  <g id="app_store" transform="translate(-11)">
    <g id="Placeholder" transform="translate(11)" fill="#030403" stroke="#000" stroke-miterlimit="10" stroke-width="1">
      <rect width="124" height="37.932" rx="4" stroke="none"/>
      <rect x="0.5" y="0.5" width="123" height="36.932" rx="3.5" fill="none"/>
    </g>
    <g id="Group" transform="translate(23 7.361)">
      <g id="Text" transform="translate(25.361 0)">
        <path id="layer" d="M2,11.281H0L3.869,0h2.39l3.888,11.279H8.1L6.973,7.967H3.067L2,11.28ZM4.976,1.506c-.117.476-.3,1.171-.571,2.125l-1,2.946H6.634L5.618,3.631c-.106-.3-.3-.992-.606-2.125Z" transform="translate(0 9.866)" fill="#fff"/>
        <path id="layer-2" data-name="layer" d="M2,11.615H.072V2.844C.072,1.992.048,1.091,0,.167H1.693L1.8,1.456h.036A3.279,3.279,0,0,1,4.762,0,3.314,3.314,0,0,1,7.32,1.138a4.322,4.322,0,0,1,1.026,3A4.468,4.468,0,0,1,7.152,7.413,3.62,3.62,0,0,1,4.494,8.484,2.722,2.722,0,0,1,2.033,7.33H2v4.284ZM4.138,1.439a2.089,2.089,0,0,0-1.293.443,2.048,2.048,0,0,0-.758,1.163A2.228,2.228,0,0,0,2,3.6V4.952a2.105,2.105,0,0,0,.58,1.5,1.991,1.991,0,0,0,1.507.611,2.023,2.023,0,0,0,1.693-.787A3.32,3.32,0,0,0,6.385,4.2a3.212,3.212,0,0,0-.571-1.958A2.022,2.022,0,0,0,4.138,1.439Z" transform="translate(11.751 12.845)" fill="#fff"/>
        <path id="layer-3" data-name="layer" d="M2,11.615H.072V2.844C.072,1.992.048,1.091,0,.167H1.693L1.8,1.456h.036A3.277,3.277,0,0,1,4.762,0a3.321,3.321,0,0,1,2.56,1.138,4.335,4.335,0,0,1,1.024,3,4.466,4.466,0,0,1-1.2,3.279A3.614,3.614,0,0,1,4.493,8.484,2.72,2.72,0,0,1,2.033,7.33H2v4.284ZM4.136,1.439a2.093,2.093,0,0,0-1.293.443,2.047,2.047,0,0,0-.757,1.163A2.265,2.265,0,0,0,2,3.6V4.952a2.112,2.112,0,0,0,.578,1.5,1.994,1.994,0,0,0,1.508.611,2.025,2.025,0,0,0,1.694-.787A3.323,3.323,0,0,0,6.383,4.2a3.212,3.212,0,0,0-.571-1.958A2.021,2.021,0,0,0,4.136,1.439Z" transform="translate(21.721 12.845)" fill="#fff"/>
        <path id="layer-4" data-name="layer" d="M7.457,8.282a2.923,2.923,0,0,1-1.068,2.343,4.936,4.936,0,0,1-3.274.987A6.03,6.03,0,0,1,0,10.91L.446,9.4a5.542,5.542,0,0,0,2.784.72,2.755,2.755,0,0,0,1.7-.461A1.47,1.47,0,0,0,5.53,8.43a1.523,1.523,0,0,0-.5-1.156A4.727,4.727,0,0,0,3.373,6.4Q.216,5.3.217,3.168A2.792,2.792,0,0,1,1.323.888,4.551,4.551,0,0,1,4.266,0,6.157,6.157,0,0,1,6.993.536L6.512,2.009a4.984,4.984,0,0,0-2.3-.519,2.431,2.431,0,0,0-1.586.469A1.3,1.3,0,0,0,2.144,2.98a1.347,1.347,0,0,0,.552,1.1,6.374,6.374,0,0,0,1.749.87A5.983,5.983,0,0,1,6.727,6.327a2.759,2.759,0,0,1,.73,1.955Z" transform="translate(33.755 9.701)" fill="#fff"/>
        <path id="layer-5" data-name="layer" d="M5.278,3.383H3.156V7.332q0,1.507,1.124,1.506a3.64,3.64,0,0,0,.855-.084l.053,1.372a4.627,4.627,0,0,1-1.5.2,2.392,2.392,0,0,1-1.784-.653,3.069,3.069,0,0,1-.642-2.193v-4.1H0V2.025H1.264V.536L3.156,0V2.025H5.278V3.383Z" transform="translate(42.3 10.986)" fill="#fff"/>
        <path id="layer-6" data-name="layer" d="M4.172,8.484A4.021,4.021,0,0,1,1.133,7.3,4.183,4.183,0,0,1,0,4.3a4.279,4.279,0,0,1,1.168-3.1A4.194,4.194,0,0,1,4.315,0,4.107,4.107,0,0,1,7.382,1.188,4.137,4.137,0,0,1,8.489,4.166,4.313,4.313,0,0,1,7.348,7.245,4.227,4.227,0,0,1,4.172,8.484Zm.074-7.162a1.965,1.965,0,0,0-1.766.973,3.577,3.577,0,0,0-.516,1.964A3.5,3.5,0,0,0,2.48,6.187a1.975,1.975,0,0,0,1.749.973,1.954,1.954,0,0,0,1.729-.99,3.507,3.507,0,0,0,.534-1.946,3.5,3.5,0,0,0-.517-1.93A1.931,1.931,0,0,0,4.246,1.321Z" transform="translate(48.666 12.846)" fill="#fff"/>
        <path id="layer-7" data-name="layer" d="M4.637,1.756a3.557,3.557,0,0,0-.607-.05,1.862,1.862,0,0,0-1.57.72,2.588,2.588,0,0,0-.481,1.606V8.3H.054L.072,2.728Q.072,1.322,0,.168H1.677l.07,1.556H1.8A2.79,2.79,0,0,1,2.764.436,2.431,2.431,0,0,1,4.156,0a3.291,3.291,0,0,1,.481.033V1.756Z" transform="translate(58.777 12.845)" fill="#fff"/>
        <path id="layer-8" data-name="layer" d="M4.317,8.467A4.383,4.383,0,0,1,1.15,7.354,3.981,3.981,0,0,1,0,4.367,4.494,4.494,0,0,1,1.071,1.3,3.806,3.806,0,0,1,4.1,0,3.318,3.318,0,0,1,6.939,1.3,4.219,4.219,0,0,1,7.7,3.865a3.965,3.965,0,0,1-.07.819H1.855a2.306,2.306,0,0,0,.838,1.842,3,3,0,0,0,1.889.569A6.793,6.793,0,0,0,6.92,6.71l.3,1.254A7.675,7.675,0,0,1,4.317,8.467ZM3.957,1.253a1.871,1.871,0,0,0-1.532.737,2.609,2.609,0,0,0-.57,1.405H5.867a2.355,2.355,0,0,0-.374-1.389A1.72,1.72,0,0,0,3.957,1.253Z" transform="translate(64.323 12.83)" fill="#fff"/>
        <path id="layer-9" data-name="layer" d="M1.385,5.632A12.414,12.414,0,0,1,0,5.566V.115A10.914,10.914,0,0,1,1.631,0,3.7,3.7,0,0,1,3.97.633a2.5,2.5,0,0,1,.884,2.048A2.709,2.709,0,0,1,3.9,4.934,3.991,3.991,0,0,1,1.385,5.632ZM1.709.7A4.174,4.174,0,0,0,.946.757V4.9a5.312,5.312,0,0,0,.64.025,2.332,2.332,0,0,0,1.677-.567,2.193,2.193,0,0,0,.593-1.652,1.959,1.959,0,0,0-.548-1.488A2.25,2.25,0,0,0,1.709.7Z" transform="translate(1.143 0.246)" fill="#fff"/>
        <path id="layer-10" data-name="layer" d="M2.049,4.168A1.972,1.972,0,0,1,.556,3.584,2.057,2.057,0,0,1,0,2.113,2.1,2.1,0,0,1,.574.591,2.067,2.067,0,0,1,2.12,0,2.02,2.02,0,0,1,3.627.583,2.041,2.041,0,0,1,4.17,2.046a2.122,2.122,0,0,1-.561,1.513A2.079,2.079,0,0,1,2.049,4.168ZM2.085.649a.965.965,0,0,0-.868.478,1.751,1.751,0,0,0-.254.965,1.73,1.73,0,0,0,.254.948.972.972,0,0,0,.859.478.958.958,0,0,0,.849-.487,1.72,1.72,0,0,0,.262-.956,1.73,1.73,0,0,0-.253-.948A.949.949,0,0,0,2.085.649Z" transform="translate(7.119 1.752)" fill="#fff"/>
        <path id="layer-11" data-name="layer" d="M6.169,0,4.837,4H3.97L3.418,2.261A12.332,12.332,0,0,1,3.075.97H3.058a8.976,8.976,0,0,1-.342,1.291L2.13,4H1.253L0,0H.973l.481,1.9q.175.674.289,1.282H1.76q.106-.5.351-1.274L2.716,0h.771l.579,1.866q.21.683.341,1.315h.026a11.893,11.893,0,0,1,.289-1.315L5.239,0h.929Z" transform="translate(12.216 1.833)" fill="#fff"/>
        <path id="layer-12" data-name="layer" d="M3.732,4.08H2.785V1.791q0-1.058-.858-1.058a.879.879,0,0,0-.684.291.994.994,0,0,0-.263.685v2.37H.034V1.226Q.034.7,0,.082H.832L.876.707H.9a1.322,1.322,0,0,1,.49-.482A1.679,1.679,0,0,1,2.251,0a1.408,1.408,0,0,1,.991.362,1.7,1.7,0,0,1,.49,1.324V4.08Z" transform="translate(19.56 1.749)" fill="#fff"/>
        <path id="layer-13" data-name="layer" d="M.946,5.829H0V0H.946V5.829Z" transform="translate(24.956 0)" fill="#fff"/>
        <path id="layer-14" data-name="layer" d="M2.049,4.168A1.97,1.97,0,0,1,.556,3.584,2.057,2.057,0,0,1,0,2.113,2.1,2.1,0,0,1,.574.591,2.065,2.065,0,0,1,2.119,0,2.024,2.024,0,0,1,3.627.583,2.041,2.041,0,0,1,4.17,2.046a2.122,2.122,0,0,1-.561,1.513A2.079,2.079,0,0,1,2.049,4.168ZM2.085.649a.964.964,0,0,0-.868.478,1.751,1.751,0,0,0-.254.965,1.73,1.73,0,0,0,.254.948.972.972,0,0,0,.859.478.957.957,0,0,0,.848-.487,1.71,1.71,0,0,0,.263-.956,1.725,1.725,0,0,0-.254-.948A.945.945,0,0,0,2.085.649Z" transform="translate(27.304 1.752)" fill="#fff"/>
        <path id="layer-15" data-name="layer" d="M1.3,4.168a1.334,1.334,0,0,1-.972-.362A1.1,1.1,0,0,1,0,2.992,1.231,1.231,0,0,1,.653,1.874,3.526,3.526,0,0,1,2.435,1.5h.055V1.422c0-.524-.3-.789-.884-.789A2.084,2.084,0,0,0,.5.928L.3.345A2.884,2.884,0,0,1,1.763,0,1.473,1.473,0,0,1,3.434,1.653V3.124a5.916,5.916,0,0,0,.061.952h-.85l-.07-.46H2.549A1.5,1.5,0,0,1,1.3,4.168ZM2.42,2.087a2.384,2.384,0,0,0-1.105.2.652.652,0,0,0-.369.6.585.585,0,0,0,.182.468.689.689,0,0,0,.462.156,1,1,0,0,0,.579-.185A.76.76,0,0,0,2.5,2.859.726.726,0,0,0,2.513,2.7V2.088H2.42Z" transform="translate(32.56 1.752)" fill="#fff"/>
        <path id="layer-16" data-name="layer" d="M1.786,5.92A1.65,1.65,0,0,1,.507,5.352,2.129,2.129,0,0,1,0,3.881a2.238,2.238,0,0,1,.552-1.57,1.757,1.757,0,0,1,1.314-.559,1.311,1.311,0,0,1,1.2.542h.018V0h.948V4.753c0,.4.011.757.033,1.076H3.224L3.18,5.187H3.154A1.438,1.438,0,0,1,1.786,5.92Zm.3-3.478a1,1,0,0,0-.833.4,1.625,1.625,0,0,0-.3,1.011,1.517,1.517,0,0,0,.291.962,1,1,0,0,0,.828.394.931.931,0,0,0,.748-.328,1.061,1.061,0,0,0,.272-.732V3.477A1.236,1.236,0,0,0,3.058,3.2a1,1,0,0,0-.343-.538A.967.967,0,0,0,2.082,2.442Z" transform="translate(37.37)" fill="#fff"/>
        <path id="layer-17" data-name="layer" d="M2.049,4.168A1.976,1.976,0,0,1,.556,3.584,2.057,2.057,0,0,1,0,2.113,2.1,2.1,0,0,1,.574.591,2.067,2.067,0,0,1,2.121,0,2.015,2.015,0,0,1,3.627.583,2.041,2.041,0,0,1,4.17,2.046a2.122,2.122,0,0,1-.561,1.513A2.079,2.079,0,0,1,2.049,4.168ZM2.085.649a.966.966,0,0,0-.868.478,1.751,1.751,0,0,0-.254.965,1.73,1.73,0,0,0,.254.948.972.972,0,0,0,.859.478.958.958,0,0,0,.85-.487,1.725,1.725,0,0,0,.263-.956,1.73,1.73,0,0,0-.254-.948A.951.951,0,0,0,2.085.649Z" transform="translate(45.359 1.752)" fill="#fff"/>
        <path id="layer-18" data-name="layer" d="M3.731,4.08H2.785V1.791q0-1.058-.859-1.058a.875.875,0,0,0-.683.291.99.99,0,0,0-.263.685v2.37H.033V1.226Q.033.7,0,.082H.831L.875.707H.9a1.336,1.336,0,0,1,.49-.482A1.682,1.682,0,0,1,2.251,0a1.407,1.407,0,0,1,.99.362,1.693,1.693,0,0,1,.49,1.324V4.08Z" transform="translate(50.888 1.749)" fill="#fff"/>
        <path id="layer-19" data-name="layer" d="M2.593,1.66H1.551V3.6c0,.493.185.74.552.74A1.772,1.772,0,0,0,2.524,4.3l.024.674a2.255,2.255,0,0,1-.735.1,1.171,1.171,0,0,1-.875-.32A1.5,1.5,0,0,1,.622,3.675V1.66H0V1H.622V.263L1.55,0V.994H2.592V1.66Z" transform="translate(58.396 0.838)" fill="#fff"/>
        <path id="layer-20" data-name="layer" d="M3.7,5.829H2.75V3.557q0-1.074-.857-1.075a.9.9,0,0,0-.9.623,1.052,1.052,0,0,0-.044.32v2.4H0V0H.946V2.408H.964a1.455,1.455,0,0,1,1.279-.657,1.366,1.366,0,0,1,.974.362A1.753,1.753,0,0,1,3.7,3.453V5.829Z" transform="translate(62.302 0)" fill="#fff"/>
        <path id="layer-21" data-name="layer" d="M2.119,4.16A2.146,2.146,0,0,1,.565,3.613,1.953,1.953,0,0,1,0,2.145,2.206,2.206,0,0,1,.526.64,1.869,1.869,0,0,1,2.014,0,1.625,1.625,0,0,1,3.406.64,2.048,2.048,0,0,1,3.785,1.9a2.024,2.024,0,0,1-.036.4H.912a1.126,1.126,0,0,0,.411.9,1.477,1.477,0,0,0,.929.279A3.332,3.332,0,0,0,3.4,3.3l.148.617A3.788,3.788,0,0,1,2.119,4.16ZM1.945.615a.923.923,0,0,0-.753.362,1.308,1.308,0,0,0-.281.691H2.882A1.144,1.144,0,0,0,2.7.986.848.848,0,0,0,1.945.615Z" transform="translate(67.383 1.744)" fill="#fff"/>
      </g>
      <g id="Icon" transform="translate(-2.944 -0.943)">
        <path id="layer-22" data-name="layer" d="M16.132,6.587A5.14,5.14,0,0,1,18.7,2.265,5.618,5.618,0,0,0,14.35.019c-1.83-.184-3.606,1.046-4.538,1.046-.951,0-2.387-1.028-3.934-1A5.835,5.835,0,0,0,1,2.907C-1.107,6.392.465,11.515,2.486,14.332,3.5,15.712,4.677,17.253,6.223,17.2c1.512-.06,2.077-.921,3.9-.921,1.808,0,2.339.921,3.915.886,1.623-.025,2.645-1.386,3.62-2.778a11.175,11.175,0,0,0,1.655-3.219,5.021,5.021,0,0,1-3.183-4.58Z" transform="translate(0 6.88)" fill="#fff"/>
        <path id="layer-23" data-name="layer" d="M3.735,3.582A4.665,4.665,0,0,0,5.012,0,5.925,5.925,0,0,0,1.339,1.7,4.459,4.459,0,0,0,.029,5.152a4.922,4.922,0,0,0,3.706-1.57Z" transform="translate(8.398 0)" fill="#fff"/>
      </g>
    </g>
  </g>
</svg>
