<svg xmlns="http://www.w3.org/2000/svg" width="19.005" height="19.006" viewBox="0 0 19.005 19.006">
  <g id="call" transform="translate(0 0)">
    <path id="call-_192_" data-name="call-[#192]" d="M65.663,7177.47c-.587,1.783-2.885,2.672-4.527,2.524a14.447,14.447,0,0,1-6.535-2.7,21.521,21.521,0,0,1-6.759-8.066c-1.05-2.233-1.286-4.98.276-7.017a2.69,2.69,0,0,1,2.141-1.2c1.3-.062,1.485.682,1.932,1.843.333.868.778,1.753,1.026,2.653.465,1.679-1.161,1.748-1.366,3.121-.127.865.921,2.026,1.395,2.642a12.791,12.791,0,0,0,3.3,3.045c.722.455,1.885,1.274,2.711.822,1.272-.7,1.153-2.843,2.931-2.116a28.439,28.439,0,0,1,2.692,1.39c1.359.731,1.3,1.488.778,3.062h0" transform="translate(-47 -7161.004)" fill="#fff" fill-rule="evenodd"/>
  </g>
</svg>
