<svg xmlns="http://www.w3.org/2000/svg" width="23.71" height="21.368" viewBox="0 0 23.71 21.368">
  <path id="cart" d="M-.685,2.267a1,1,0,0,1,.291-.739,1,1,0,0,1,.739-.291L5.51,2.454a1.027,1.027,0,0,1,.639.213,1,1,0,0,1,.37.571L6.977,7.66h13.9l.158-.471a.927.927,0,0,1,.963-.717.69.69,0,0,1,.291.045.965.965,0,0,1,.538.359.979.979,0,0,1,.2.6,1.252,1.252,0,0,1-.045.291l-2.644,8.806a.964.964,0,0,1-.359.538.985.985,0,0,1-.6.2H6.848a1,1,0,0,1-.639-.223,1.046,1.046,0,0,1-.37-.561L4.7,4.493.346,3.275a1.014,1.014,0,0,1-.728-.291A.956.956,0,0,1-.685,2.267ZM7.206,9.7l.448,5.556H18.611l.044-.2L20.269,9.7H7.206Zm0,10.844a1.966,1.966,0,0,1,.616-1.456,2.024,2.024,0,0,1,1.468-.6,2.061,2.061,0,0,1,0,4.122A2.023,2.023,0,0,1,7.823,22,1.969,1.969,0,0,1,7.206,20.544Zm1.456-9.1H20.269v2.061H9.11Zm5.49,2.061.022-2.061H17.8l-.538,2.061Zm.829,7.036a1.967,1.967,0,0,1,.617-1.456,2.021,2.021,0,0,1,1.468-.6,2.061,2.061,0,0,1,0,4.122A2.022,2.022,0,0,1,15.6,22,1.967,1.967,0,0,1,14.981,20.544Z" transform="translate(0.685 -1.236)" fill="#262626"/>
</svg>
