<svg xmlns="http://www.w3.org/2000/svg" width="21.688" height="15.182" viewBox="0 0 21.688 15.182">
  <g id="currncy" transform="translate(-2 -5)">
    <path id="Path_21284" data-name="Path 21284" d="M20.435,5H5.253A3.253,3.253,0,0,0,2,8.253v8.675a3.253,3.253,0,0,0,3.253,3.253H20.435a3.253,3.253,0,0,0,3.253-3.253V8.253A3.253,3.253,0,0,0,20.435,5ZM4.169,16.928V8.253A1.084,1.084,0,0,1,5.253,7.169h5.118a5.953,5.953,0,0,0,0,10.844H5.253A1.084,1.084,0,0,1,4.169,16.928ZM12.844,8.8a3.8,3.8,0,1,1-3.8,3.8,3.8,3.8,0,0,1,3.8-3.8Zm8.675,8.133a1.084,1.084,0,0,1-1.084,1.084H15.316a5.953,5.953,0,0,0,0-10.844h5.118a1.084,1.084,0,0,1,1.084,1.084Z"/>
    <path id="Path_21285" data-name="Path 21285" d="M11.242,12.97a.542.542,0,0,0,0,1.084h.325v.325a.542.542,0,1,0,1.084,0v-.325h.325a.542.542,0,0,0,.542-.542v-1.3a.542.542,0,0,0-.542-.542H11.784v-.217h1.193a.542.542,0,0,0,0-1.084h-.325v-.325a.542.542,0,1,0-1.084,0v.325h-.325a.542.542,0,0,0-.542.542v1.3a.542.542,0,0,0,.542.542h1.193v.217Z" transform="translate(0.734 0.38)"/>
  </g>
</svg>
