<svg id="google_play" xmlns="http://www.w3.org/2000/svg" width="124" height="37.932" viewBox="0 0 124 37.932">
  <g id="Placeholder" fill="#030403" stroke="#000" stroke-miterlimit="10" stroke-width="1">
    <rect width="124" height="37.932" rx="4" stroke="none"/>
    <rect x="0.5" y="0.5" width="123" height="36.932" rx="3.5" fill="none"/>
  </g>
  <g id="Group" transform="translate(10.825 7.502)">
    <g id="Text" transform="translate(26.696)">
      <path id="layer" d="M11.006,5.191H5.782V6.744h3.7a3.43,3.43,0,0,1-3.7,3.105A4.076,4.076,0,0,1,1.7,5.716,4.084,4.084,0,0,1,5.793,1.557,4.018,4.018,0,0,1,8.586,2.679L9.672,1.553A5.515,5.515,0,0,0,5.738,0,5.792,5.792,0,0,0,0,5.688,5.774,5.774,0,0,0,5.82,11.4,5.017,5.017,0,0,0,11.1,6.221a4.662,4.662,0,0,0-.095-1.03h0" transform="translate(0 9.466)" fill="#fff"/>
      <path id="layer-2" data-name="layer" d="M3.7,7.331a3.673,3.673,0,0,1-2.683-1.1A3.714,3.714,0,0,1,0,3.636,3.619,3.619,0,0,1,3.68,0a3.816,3.816,0,0,1,2.5.929,3.53,3.53,0,0,1,1.176,2.75A3.63,3.63,0,0,1,6.28,6.3,3.649,3.649,0,0,1,3.7,7.331Zm0-5.891A2.111,2.111,0,0,0,1.606,3.658,2.118,2.118,0,0,0,3.7,5.892,2.121,2.121,0,0,0,5.754,3.669a2.288,2.288,0,0,0-.631-1.63A2.017,2.017,0,0,0,3.7,1.44Z" transform="translate(11.767 13.533)" fill="#fff"/>
      <path id="layer-3" data-name="layer" d="M3.7,7.331a3.673,3.673,0,0,1-2.683-1.1A3.714,3.714,0,0,1,0,3.636,3.619,3.619,0,0,1,3.68,0a3.816,3.816,0,0,1,2.5.929,3.53,3.53,0,0,1,1.176,2.75A3.63,3.63,0,0,1,6.28,6.3,3.649,3.649,0,0,1,3.7,7.331Zm0-5.891A2.111,2.111,0,0,0,1.607,3.658,2.118,2.118,0,0,0,3.7,5.892,2.121,2.121,0,0,0,5.754,3.669a2.288,2.288,0,0,0-.631-1.63A2.017,2.017,0,0,0,3.7,1.44Z" transform="translate(19.856 13.533)" fill="#fff"/>
      <path id="layer-4" data-name="layer" d="M3.575,10.629A3.544,3.544,0,0,1,.283,8.47L1.69,7.881a2.029,2.029,0,0,0,1.874,1.3A1.832,1.832,0,0,0,5.487,7.164V6.441a2.426,2.426,0,0,1-2.007.891A3.456,3.456,0,0,1,1.107,6.325,3.679,3.679,0,0,1,0,3.662,3.777,3.777,0,0,1,1.019,1.105,3.4,3.4,0,0,1,3.514,0,2.585,2.585,0,0,1,5.488.841V.221H7.022V6.807a4.023,4.023,0,0,1-.99,2.881A3.335,3.335,0,0,1,3.575,10.629Zm.081-9.192A2.1,2.1,0,0,0,1.61,3.684,2.273,2.273,0,0,0,2.229,5.3a1.957,1.957,0,0,0,1.406.6,1.921,1.921,0,0,0,1.358-.573,2.285,2.285,0,0,0,.618-1.647A2.336,2.336,0,0,0,5,2.026,1.879,1.879,0,0,0,3.656,1.437Z" transform="translate(27.945 13.537)" fill="#fff"/>
      <path id="layer-5" data-name="layer" d="M3.592,7.339A3.6,3.6,0,0,1,1.1,6.365,3.619,3.619,0,0,1,0,3.66,3.466,3.466,0,0,1,3.414,0,3.123,3.123,0,0,1,5.307.635,3.565,3.565,0,0,1,6.458,2.148l.255.6L1.8,4.785A1.9,1.9,0,0,0,3.6,5.9,2.036,2.036,0,0,0,5.393,4.887l1.265.843A3.688,3.688,0,0,1,3.592,7.339ZM3.478,1.41a1.967,1.967,0,0,0-1.434.7,1.862,1.862,0,0,0-.49,1.452L4.832,2.192A1.454,1.454,0,0,0,3.478,1.41Z" transform="translate(38.699 13.528)" fill="#fff"/>
      <path id="layer-6" data-name="layer" d="M0,10.8H1.612V0H0Z" transform="translate(36.197 9.845)" fill="#fff"/>
      <path id="layer-7" data-name="layer" d="M0,10.8H1.612V0H0Z" transform="translate(57.811 9.845)" fill="#fff"/>
      <path id="layer-8" data-name="layer" d="M0,10.8H1.612V0H0Z" transform="translate(49.262 9.845)" fill="#fff"/>
      <path id="layer-9" data-name="layer" d="M3.9,6.884H0V0H3.9a3.442,3.442,0,0,1,0,6.884ZM1.612,1.615V5.27H3.9a1.827,1.827,0,0,0,0-3.655Z" transform="translate(49.262 9.845)" fill="#fff"/>
      <path id="layer-10" data-name="layer" d="M1.761,10.638,6.428,0H4.668L0,10.638H1.761" transform="translate(69.564 13.529)" fill="#fff"/>
      <path id="layer-11" data-name="layer" d="M3.6,8.2,0,0H1.761L4.243,5.657H3.6V8.2" transform="translate(68.247 13.529)" fill="#fff"/>
      <path id="layer-12" data-name="layer" d="M2.71,7.833A2.685,2.685,0,0,1,.7,7.047,2.7,2.7,0,0,1,.15,4.964,2.6,2.6,0,0,1,2.621,2.757a4.43,4.43,0,0,1,.445-.022,7.982,7.982,0,0,1,2.024.31A1.79,1.79,0,0,0,3.169,1.5,2.115,2.115,0,0,0,1.3,2.55L0,1.678A3.82,3.82,0,0,1,3.2,0,3.648,3.648,0,0,1,5.871,1.093a3.438,3.438,0,0,1,.87,2.646V7.625H5.129V6.753a2.753,2.753,0,0,1-1.4.942A3.868,3.868,0,0,1,2.71,7.833ZM3.289,4.14c-1.062,0-1.451.594-1.461,1.1a1.078,1.078,0,0,0,1.108,1.1,1.557,1.557,0,0,0,.408-.058A2.425,2.425,0,0,0,5.129,4.5a6.855,6.855,0,0,0-1.342-.322A3.361,3.361,0,0,0,3.289,4.14Z" transform="translate(60.892 13.025)" fill="#fff"/>
      <path id="layer-13" data-name="layer" d="M5.164,2.3H2.713v.687H4.451A1.587,1.587,0,0,1,2.716,4.356,1.86,1.86,0,0,1,.8,2.528,1.862,1.862,0,0,1,2.718.689a1.936,1.936,0,0,1,1.311.5l.509-.5A2.658,2.658,0,0,0,2.692,0,2.643,2.643,0,0,0,0,2.516,2.635,2.635,0,0,0,2.731,5.045,2.292,2.292,0,0,0,5.208,2.751,1.945,1.945,0,0,0,5.164,2.3h0" transform="translate(1.245 0)" fill="#fff"/>
      <path id="layer-14" data-name="layer" d="M0,5.045H.868V0H0Z" transform="translate(16.871 0)" fill="#fff"/>
      <path id="layer-15" data-name="layer" d="M1.331,5.045h.811V.754H3.472V0H0V.754H1.331V5.045" transform="translate(10.794 0)" fill="#fff"/>
      <path id="layer-16" data-name="layer" d="M0,5.045H2.6V4.291H.679V2.9H2.372V2.145H.679V.754H2.6V0H0V5.045" transform="translate(7.322 0)" fill="#fff"/>
      <path id="layer-17" data-name="layer" d="M1.331,5.045h.811V.754H3.472V0H0V.754H1.331V5.045" transform="translate(18.607 0)" fill="#fff"/>
      <path id="layer-18" data-name="layer" d="M2.6,5.044a2.648,2.648,0,0,1-1.884-.8A2.519,2.519,0,0,1,0,2.516a2.606,2.606,0,0,1,5.208,0,2.519,2.519,0,0,1-.72,1.733A2.648,2.648,0,0,1,2.6,5.044ZM2.6.689A1.834,1.834,0,1,0,4.437,2.528,1.833,1.833,0,0,0,2.6.689Z" transform="translate(23.815)" fill="#fff"/>
      <path id="layer-19" data-name="layer" d="M0,5.045H.666V1.37l2.14,3.674h.665V0H2.806V3.673L.666,0H0V5.045" transform="translate(29.892 0)" fill="#fff"/>
    </g>
    <g id="Group_10083" data-name="Group 10083" transform="translate(-2.381 -1.597)">
      <path id="Path" d="M.553,0,11.814,11.579.607,23.259A1.478,1.478,0,0,1,.1,21.983C.1,20.836.007,2.619,0,1.253A1.352,1.352,0,0,1,.553,0Z" transform="translate(0 1.497)" fill="#3ec5ea"/>
      <path id="Path-2" data-name="Path" d="M14.171,7.848.478.155A1.346,1.346,0,0,0,0,0L10.924,11.233l3.248-3.385Z" transform="translate(1.356 1.359)" fill="#62bd6d"/>
      <path id="Path-3" data-name="Path" d="M3.388,7.01,0,3.527,3.384,0l4.66,2.618c1.148.645.561,1.451,0,1.767L3.388,7.01Z" transform="translate(12.749 9.548)" fill="#facc07"/>
      <path id="Path-4" data-name="Path" d="M0,11.2a2.317,2.317,0,0,0,.3-.142L14,3.339,10.748,0,0,11.2Z" transform="translate(1.535 13.562)" fill="#ec443d"/>
    </g>
  </g>
</svg>
