<svg xmlns="http://www.w3.org/2000/svg" width="17.621" height="15.439" viewBox="0 0 17.621 15.439">
  <path id="hearts" d="M588.13,579.206a3.309,3.309,0,0,1,2.471,5.5c-.607.684-5.779,5.526-5.779,5.526s-5.184-4.842-5.79-5.537a3.271,3.271,0,0,1-.827-2.184,3.309,3.309,0,1,1,6.618,0,3.309,3.309,0,0,1,3.309-3.309m0-2.206a5.485,5.485,0,0,0-3.309,1.1,5.515,5.515,0,0,0-7.44,8.057c.62.71,4.7,4.531,5.935,5.685a2.206,2.206,0,0,0,3.013,0c1.231-1.153,5.294-4.963,5.922-5.672A5.515,5.515,0,0,0,588.13,577Z" transform="translate(-576.018 -577)" fill="#22262a" fill-rule="evenodd"/>
</svg>
