<svg xmlns="http://www.w3.org/2000/svg" width="23.729" height="23.727" viewBox="0 0 23.729 23.727">
  <g id="support" transform="translate(-1 -1.003)">
    <path id="Path_21275" data-name="Path 21275" d="M5.633,12.8h.986a6.831,6.831,0,0,0,1.565,2.889c1.983,2.167,3.554,3.267,4.67,3.267s2.682-1.1,4.664-3.267a6.783,6.783,0,0,0,1.444-2.476l.889-.408h.206a.718.718,0,0,0,.718-.718V10.522a.718.718,0,0,0-.718-.718h-.206l.294-.834A8.966,8.966,0,0,0,20.5,6.835,4.081,4.081,0,0,0,18.381,2.8a3.134,3.134,0,0,0-2.393-.021S15.237.671,11.2,1.048A5.877,5.877,0,0,0,6.349,3.88,7.369,7.369,0,0,0,5.421,8.8l.211,1a.718.718,0,0,0-.716.718v1.559a.718.718,0,0,0,.718.718Zm11.315,2.364c-1.778,1.945-3.232,3.016-4.094,3.016s-2.321-1.071-4.1-3.016a6.068,6.068,0,0,1-1.591-4.1V9.891a18.622,18.622,0,0,0,6.747-1.805,11.929,11.929,0,0,0,1.71-.975,2.862,2.862,0,0,1-1.135,1.614.387.387,0,0,0,.173.715,6.246,6.246,0,0,0,3.879-.894V11.06a6.115,6.115,0,0,1-.212,1.588l-3.28,1.507a1.158,1.158,0,1,0,.4.869,1.135,1.135,0,0,0-.02-.193l2.522-1.158A6.031,6.031,0,0,1,16.948,15.163ZM8.937,22.5l.238-.346-1.465-.237a.387.387,0,0,1-.324-.361l-.143-3.063L2.676,20.13,1,24.73h9.618L8.974,22.986a.387.387,0,0,1-.037-.484Z" transform="translate(0 0)" fill="#fff"/>
    <path id="Path_21276" data-name="Path 21276" d="M14.576,33.907l.14,2.984,1.757.285a.386.386,0,0,1,.258.6l-.406.592,1.929,2.047h1.183L16,33.4Zm7.568,3.869a.386.386,0,0,1,.258-.6l1.757-.285.14-2.984L22.876,33.4l-3.439,7.015H20.62l1.93-2.047Z" transform="translate(-6.573 -15.686)" fill="#fff"/>
    <path id="Path_21277" data-name="Path 21277" d="M36.3,36.548l-4.565-1.636-.144,3.06a.387.387,0,0,1-.324.361l-1.465.237.238.347A.387.387,0,0,1,30,39.4l-1.643,1.746h9.618Z" transform="translate(-13.244 -16.418)" fill="#fff"/>
  </g>
</svg>
