<svg xmlns="http://www.w3.org/2000/svg" width="23" height="23" viewBox="0 0 23 23">
  <path id="whats" d="M43.709,32A11.248,11.248,0,0,0,32.418,43.2a11.088,11.088,0,0,0,1.62,5.785L32,55l6.251-1.986A11.231,11.231,0,1,0,43.709,32Zm5.615,15.459a2.916,2.916,0,0,1-2,1.287c-.53.028-.545.41-3.432-.844a11.781,11.781,0,0,1-4.76-4.5,5.537,5.537,0,0,1-1.065-3,3.2,3.2,0,0,1,1.1-2.347,1.106,1.106,0,0,1,.782-.329c.227,0,.375-.007.543,0s.421-.035.639.546.741,2.01.808,2.156a.523.523,0,0,1,.005.5,1.961,1.961,0,0,1-.306.466c-.151.162-.317.362-.451.485-.15.137-.306.286-.149.579a8.64,8.64,0,0,0,1.529,2.04A7.878,7.878,0,0,0,44.832,46c.283.154.452.137.628-.048s.752-.808.955-1.087.393-.225.654-.12,1.651.85,1.934,1,.472.233.54.354a2.371,2.371,0,0,1-.219,1.353Z" transform="translate(-32 -32)" fill="#fff"/>
</svg>
