<svg id="zoom" xmlns="http://www.w3.org/2000/svg" width="29.439" height="29.439" viewBox="0 0 29.439 29.439">
  <path id="Path_21288" data-name="Path 21288" d="M0,0H29.439V29.439H0Z" fill="none"/>
  <path id="Path_21289" data-name="Path 21289" d="M18.762,4.043l1.779,1.779-2.674,2.65a1.232,1.232,0,0,0,1.742,1.742l2.65-2.674,1.779,1.779a.613.613,0,0,0,1.043-.442V3.613A.607.607,0,0,0,24.466,3H19.2a.613.613,0,0,0-.442,1.043ZM4.043,9.317,5.821,7.539l2.65,2.674a1.232,1.232,0,0,0,1.742-1.742L7.539,5.821,9.317,4.043A.613.613,0,0,0,8.876,3H3.613A.607.607,0,0,0,3,3.613V8.876a.613.613,0,0,0,1.043.442Zm5.275,14.72L7.539,22.258l2.674-2.65a1.232,1.232,0,0,0-1.742-1.742l-2.65,2.674L4.043,18.762A.613.613,0,0,0,3,19.2v5.262a.607.607,0,0,0,.613.613H8.876a.613.613,0,0,0,.442-1.043Zm14.72-5.275-1.779,1.779-2.65-2.674a1.232,1.232,0,0,0-1.742,1.742l2.674,2.65-1.779,1.779A.613.613,0,0,0,19.2,25.08h5.262a.607.607,0,0,0,.613-.613V19.2a.613.613,0,0,0-1.043-.442Z" transform="translate(0.68 0.68)"/>
</svg>
